<svg width="188" height="188" viewBox="0 0 188 188" fill="none" xmlns="http://www.w3.org/2000/svg">
<g filter="url(#filter0_d_3331_32602)">
<circle cx="94" cy="90" r="90" fill="white"/>
</g>
<path d="M25.5659 98.6939C23.899 98.6939 22.4174 98.3441 21.1209 97.6443C19.8244 96.9445 18.8135 95.957 18.0881 94.6819C17.3627 93.3912 17 91.8983 17 90.2033C17 88.5083 17.3627 87.0154 18.0881 85.7247C18.8135 84.434 19.8244 83.4388 21.1209 82.739C22.4174 82.0392 23.899 81.6893 25.5659 81.6893C27.7884 81.6893 29.6482 82.2569 31.1453 83.3921V85.6781C29.8026 84.4807 28.0122 83.882 25.7743 83.882C24.5241 83.882 23.4129 84.1386 22.4405 84.6517C21.4836 85.1649 20.735 85.9036 20.1949 86.8677C19.6547 87.8163 19.3846 88.9281 19.3846 90.2033C19.3846 91.4785 19.6547 92.5981 20.1949 93.5622C20.7505 94.5264 21.5067 95.265 22.4637 95.7782C23.436 96.2914 24.5395 96.548 25.7743 96.548C26.9164 96.548 27.935 96.4002 28.8302 96.1048C29.7408 95.7938 30.582 95.3039 31.3537 94.6352V96.9445C29.9646 98.1108 28.0354 98.6939 25.5659 98.6939Z" fill="black"/>
<path d="M47.8854 92.1627L42.005 82.0392H44.5285L49.0429 89.9001L53.6268 82.0392H56.1272L50.1773 92.1627V98.3441H47.8854V92.1627Z" fill="black"/>
<path d="M67.2469 82.0392H74.6784C76.1138 82.0392 77.225 82.4124 78.0122 83.1589C78.7993 83.9053 79.1929 84.9938 79.1929 86.4245C79.1929 87.2331 79 87.9485 78.6141 88.5705C78.2437 89.177 77.7498 89.6279 77.1324 89.9234C78.8611 90.4366 79.7254 91.7039 79.7254 93.7255C79.7254 94.6741 79.517 95.4983 79.1003 96.1981C78.699 96.8823 78.1434 97.411 77.4334 97.7842C76.7234 98.1574 75.9363 98.3441 75.072 98.3441H67.2469V82.0392ZM74.3775 89.037C75.1337 89.037 75.7279 88.8271 76.1601 88.4072C76.5922 87.9873 76.8083 87.3653 76.8083 86.5411C76.8083 85.5925 76.5922 84.9316 76.1601 84.5584C75.7434 84.1697 75.0951 83.9753 74.2154 83.9753H69.6083V89.037H74.3775ZM74.5395 96.408C75.4501 96.408 76.1447 96.2058 76.6231 95.8015C77.1016 95.3972 77.3408 94.7052 77.3408 93.7255C77.3408 92.7458 77.0861 92.046 76.5768 91.6262C76.0829 91.2063 75.3344 90.9964 74.3312 90.9964H69.6083V96.408H74.5395Z" fill="black"/>
<path d="M90.8502 82.0392H96.0592C97.8032 82.0392 99.3158 82.3658 100.597 83.0189C101.878 83.672 102.858 84.6051 103.537 85.818C104.232 87.031 104.579 88.4616 104.579 90.11C104.579 92.8158 103.799 94.8685 102.241 96.268C100.697 97.6521 98.5286 98.3441 95.7351 98.3441H90.8502V82.0392ZM95.7119 96.3614C97.8727 96.3614 99.4933 95.8249 100.574 94.7519C101.654 93.6789 102.194 92.1316 102.194 90.11C102.194 88.2439 101.662 86.7666 100.597 85.6781C99.5473 84.5895 98.0425 84.0453 96.0823 84.0453H93.2116V96.3614H95.7119Z" fill="black"/>
<path d="M115.697 82.0392H126.37V84.0453H118.058V89.2003H124.263V91.183H118.058V96.3614H126.37V98.3441H115.697V82.0392Z" fill="black"/>
<path d="M137.378 82.0392H148.051V84.0453H139.74V89.2003H145.944V91.183H139.74V96.3614H148.051V98.3441H137.378V82.0392Z" fill="black"/>
<path d="M159.06 82.0392H165.565C167.294 82.0392 168.621 82.4591 169.547 83.2988C170.473 84.1386 170.937 85.3671 170.937 86.9843C170.937 88.1817 170.62 89.2003 169.987 90.04C169.355 90.8642 168.459 91.424 167.302 91.7195L170.867 98.3441H168.413L164.964 91.9061H161.421V98.3441H159.06V82.0392ZM165.172 89.9001C166.206 89.9001 167.024 89.659 167.626 89.177C168.243 88.6793 168.552 87.9485 168.552 86.9843C168.552 85.9269 168.251 85.1727 167.649 84.7217C167.063 84.2707 166.237 84.0453 165.172 84.0453H161.421V89.9001H165.172Z" fill="black"/>
<path d="M27.3014 118.296H26.1853L21.6961 111.319V118.296H20.58V109.522H21.6961L26.1853 116.486V109.522H27.3014V118.296Z" fill="black"/>
<path d="M31.9148 110.465V113.393H35.0302V114.336H31.9148V117.353H35.3982V118.296H30.7986V109.522H35.3982V110.465H31.9148Z" fill="black"/>
<path d="M43.9435 109.535V110.465H41.613V118.296H40.4969V110.465H38.1542V109.535H43.9435Z" fill="black"/>
<path d="M57.6564 109.535L55.1788 118.296H53.9277L51.9407 111.244L49.8801 118.296L48.6413 118.308L46.2496 109.535H47.4393L49.3037 116.963L51.3643 109.535H52.6153L54.5778 116.938L56.4544 109.535H57.6564Z" fill="black"/>
<path d="M64.3483 118.384C63.5552 118.384 62.8315 118.195 62.1773 117.818C61.5232 117.433 61.0039 116.901 60.6196 116.222C60.2435 115.535 60.0554 114.764 60.0554 113.909C60.0554 113.054 60.2435 112.287 60.6196 111.609C61.0039 110.921 61.5232 110.389 62.1773 110.012C62.8315 109.627 63.5552 109.434 64.3483 109.434C65.1497 109.434 65.8774 109.627 66.5316 110.012C67.1857 110.389 67.7009 110.917 68.077 111.596C68.4532 112.275 68.6412 113.046 68.6412 113.909C68.6412 114.772 68.4532 115.543 68.077 116.222C67.7009 116.901 67.1857 117.433 66.5316 117.818C65.8774 118.195 65.1497 118.384 64.3483 118.384ZM64.3483 117.391C64.9452 117.391 65.4808 117.248 65.9551 116.963C66.4375 116.678 66.8137 116.272 67.0835 115.744C67.3615 115.216 67.5005 114.604 67.5005 113.909C67.5005 113.205 67.3615 112.593 67.0835 112.074C66.8137 111.546 66.4416 111.139 65.9674 110.854C65.4931 110.569 64.9534 110.427 64.3483 110.427C63.7432 110.427 63.2035 110.569 62.7293 110.854C62.255 111.139 61.8789 111.546 61.6009 112.074C61.331 112.593 61.1961 113.205 61.1961 113.909C61.1961 114.604 61.331 115.216 61.6009 115.744C61.8789 116.272 62.255 116.678 62.7293 116.963C63.2117 117.248 63.7514 117.391 64.3483 117.391Z" fill="black"/>
<path d="M76.2107 118.296L74.1746 114.713H72.8254V118.296H71.7092V109.535H74.469C75.1149 109.535 75.6587 109.648 76.1003 109.874C76.55 110.1 76.8853 110.406 77.106 110.792C77.3268 111.177 77.4372 111.617 77.4372 112.111C77.4372 112.715 77.2655 113.247 76.922 113.708C76.5868 114.169 76.0798 114.475 75.4011 114.625L77.5476 118.296H76.2107ZM72.8254 113.796H74.469C75.0741 113.796 75.5279 113.645 75.8304 113.343C76.133 113.033 76.2842 112.623 76.2842 112.111C76.2842 111.592 76.133 111.19 75.8304 110.905C75.5361 110.62 75.0822 110.477 74.469 110.477H72.8254V113.796Z" fill="black"/>
<path d="M85.4024 118.296L81.8822 114.299V118.296H80.766V109.535H81.8822V113.595L85.4146 109.535H86.8252L82.9493 113.921L86.862 118.296H85.4024Z" fill="black"/>
<path d="M100.283 112.099C100.283 112.828 100.038 113.435 99.5473 113.921C99.0649 114.399 98.3249 114.638 97.3273 114.638H95.6837V118.296H94.5676V109.535H97.3273C98.2922 109.535 99.024 109.773 99.5228 110.251C100.03 110.729 100.283 111.345 100.283 112.099ZM97.3273 113.695C97.9487 113.695 98.4066 113.557 98.701 113.28C98.9954 113.004 99.1426 112.61 99.1426 112.099C99.1426 111.018 98.5375 110.477 97.3273 110.477H95.6837V113.695H97.3273Z" fill="black"/>
<path d="M110.33 109.535L107.104 118.296H105.816L102.59 109.535H103.78L106.466 117.089L109.152 109.535H110.33Z" fill="black"/>
<path d="M118.41 109.535V110.465H116.08V118.296H114.964V110.465H112.621V109.535H118.41Z" fill="black"/>
<path d="M127.359 117.366H130.352V118.296H126.243V109.535H127.359V117.366Z" fill="black"/>
<path d="M138.394 109.535V110.465H136.063V118.296H134.947V110.465H132.604V109.535H138.394Z" fill="black"/>
<path d="M144.024 109.535C144.956 109.535 145.761 109.715 146.44 110.075C147.127 110.427 147.65 110.934 148.01 111.596C148.378 112.258 148.562 113.037 148.562 113.934C148.562 114.831 148.378 115.61 148.01 116.272C147.65 116.926 147.127 117.428 146.44 117.78C145.761 118.124 144.956 118.296 144.024 118.296H141.362V109.535H144.024ZM144.024 117.353C145.128 117.353 145.97 117.056 146.551 116.461C147.131 115.857 147.421 115.015 147.421 113.934C147.421 112.845 147.127 111.994 146.538 111.382C145.958 110.771 145.12 110.465 144.024 110.465H142.478V117.353H144.024Z" fill="black"/>
<path d="M30.4247 67.8174C30.4247 71.0302 27.8201 73.6347 24.6073 73.6347C21.3944 73.6347 18.7899 71.0302 18.7899 67.8174C18.7899 64.6045 21.3944 62 24.6073 62C27.8201 62 30.4247 64.6045 30.4247 67.8174Z" fill="#F26064"/>
<path d="M51.9042 67.8174C51.9042 71.0302 49.5 73.6347 46.5343 73.6347C43.5686 73.6347 41.1644 71.0302 41.1644 67.8174C41.1644 64.6045 43.5686 62 46.5343 62C49.5 62 51.9042 64.6045 51.9042 67.8174Z" fill="#A8A8A8"/>
<path d="M74.2787 67.8174C74.2787 71.0302 71.6741 73.6347 68.4613 73.6347C65.2484 73.6347 62.6439 71.0302 62.6439 67.8174C62.6439 64.6045 65.2484 62 68.4613 62C71.6741 62 74.2787 64.6045 74.2787 67.8174Z" fill="#FEBB4D"/>
<defs>
<filter id="filter0_d_3331_32602" x="0" y="0" width="188" height="188" filterUnits="userSpaceOnUse" color-interpolation-filters="sRGB">
<feFlood flood-opacity="0" result="BackgroundImageFix"/>
<feColorMatrix in="SourceAlpha" type="matrix" values="0 0 0 0 0 0 0 0 0 0 0 0 0 0 0 0 0 0 127 0" result="hardAlpha"/>
<feOffset dy="4"/>
<feGaussianBlur stdDeviation="2"/>
<feComposite in2="hardAlpha" operator="out"/>
<feColorMatrix type="matrix" values="0 0 0 0 0 0 0 0 0 0 0 0 0 0 0 0 0 0 0.25 0"/>
<feBlend mode="normal" in2="BackgroundImageFix" result="effect1_dropShadow_3331_32602"/>
<feBlend mode="normal" in="SourceGraphic" in2="effect1_dropShadow_3331_32602" result="shape"/>
</filter>
</defs>
</svg>
