<svg width="322" height="167" viewBox="0 0 322 167" fill="none" xmlns="http://www.w3.org/2000/svg">
<g filter="url(#filter0_d_4191_36199)">
<rect x="4" width="314" height="159" rx="20" fill="#3558A8"/>
</g>
<g filter="url(#filter1_d_4191_36199)">
<g filter="url(#filter2_d_4191_36199)">
<path d="M80.3856 57.8828C77.8813 60.7634 72.8465 68.5217 77.7769 78.7189L72.1422 74.3212L71.9248 70.9606C73.0866 65.5467 76.1242 60.8515 80.3856 57.8828Z" fill="url(#paint0_linear_4191_36199)"/>
</g>
<path d="M88.7438 89.9121C89.0242 88.5848 89.578 87.3468 90.3622 86.2943C91.1465 85.2418 92.14 84.4032 93.2655 83.8437L102.135 78.8027C100.892 81.6833 99.1698 87.8189 95.6655 87.8189H91.8568C92.2509 88.7473 92.4219 89.772 92.3533 90.7944C92.2848 91.8169 91.9791 92.8027 91.4655 93.6569L89.8568 96.6814L88.1177 99.9941C87.2482 101.559 86.6656 103.048 84.9873 103.048V100.801C85.3721 100.8 85.7499 100.687 86.0829 100.474C86.3435 100.301 86.5654 100.065 86.7325 99.7839C86.8995 99.5031 87.0074 99.1844 87.0482 98.8515L87.1786 97.7953C87.5647 95.1243 88.0873 92.4795 88.7438 89.8737V89.9121Z" fill="url(#paint1_linear_4191_36199)"/>
<path d="M88.7841 89.9121C89.0644 88.5848 89.6183 87.3468 90.4025 86.2943C91.1867 85.2418 92.1802 84.4032 93.3058 83.8437L102.175 78.8027C96.3492 84.0166 91.0014 84.6983 89.7406 90.9875C89.3928 92.2454 89.1232 93.5512 88.871 94.8283C88.558 96.4702 88.2884 98.1217 88.0015 99.7733C88.0015 99.9269 88.0015 100.071 87.958 100.215C87.1841 101.694 86.5493 103.028 84.958 103.028V100.801C85.3428 100.8 85.7206 100.687 86.0537 100.474C86.3142 100.301 86.5361 100.065 86.7032 99.7839C86.8702 99.5031 86.9781 99.1844 87.0189 98.8515L87.2189 97.7953C87.605 95.1243 88.1275 92.4795 88.7841 89.8737V89.9121Z" fill="white"/>
<path d="M76.169 73.857C76.5511 75.5667 77.1359 77.2132 77.9081 78.754L72.6386 74.7404C72.4734 74.4043 72.3169 74.0779 72.169 73.7802L71.9951 70.9956C72.5788 68.2618 73.6488 65.6833 75.1429 63.4102C74.9527 64.808 74.8915 66.2235 74.9603 67.635C75.0657 69.7652 75.4705 71.8643 76.1603 73.857H76.169Z" fill="white"/>
<path d="M81.2008 89.9121C80.9204 88.5848 80.3666 87.3468 79.5823 86.2943C78.7981 85.2418 77.8046 84.4032 76.6791 83.8437L67.8096 78.8027C69.0443 81.6833 70.7748 87.8189 74.2791 87.8189H78.0878C77.6937 88.7473 77.5227 89.772 77.5912 90.7944C77.6598 91.8169 77.9655 92.8027 78.4791 93.6569L80.0877 96.6814L81.8269 99.9941C82.6964 101.559 83.2703 103.048 84.9573 103.048V100.801C84.5725 100.8 84.1947 100.687 83.8616 100.474C83.6011 100.301 83.3792 100.065 83.2121 99.7839C83.0451 99.5031 82.9372 99.1844 82.8964 98.8515L82.766 97.7953C82.3799 95.1243 81.8573 92.4795 81.2008 89.8737V89.9121Z" fill="url(#paint2_linear_4191_36199)"/>
<path d="M81.2008 89.9121C80.9204 88.5848 80.3666 87.3468 79.5823 86.2943C78.7981 85.2418 77.8046 84.4032 76.6791 83.8437L67.8096 78.8027C73.6356 84.0166 78.9834 84.6983 80.2443 90.9875C80.5921 92.2454 80.8617 93.5512 81.1138 94.8283C81.4269 96.4702 81.6964 98.1217 81.9834 99.7733C81.9834 99.9269 81.9834 100.071 82.0269 100.215C82.8008 101.694 83.4269 103.028 85.0268 103.028V100.801C84.6421 100.8 84.2643 100.687 83.9312 100.474C83.6707 100.301 83.4487 100.065 83.2817 99.7839C83.1146 99.5031 83.0068 99.1844 82.966 98.8515L82.766 97.7953C82.3799 95.1243 81.8573 92.4795 81.2008 89.8737V89.9121Z" fill="white"/>
<path d="M85.0414 101.498V100.835C84.6566 100.834 84.2788 100.722 83.9457 100.509C83.6852 100.335 83.4633 100.099 83.2962 99.8186C83.1292 99.5378 83.0213 99.2192 82.9805 98.8862L82.824 97.83C82.6936 97.0138 82.5631 96.2457 82.4414 95.5352C82.5371 96.5818 82.8153 99.5487 82.8153 99.5487C82.9045 100.117 83.1818 100.628 83.5932 100.983C84.0046 101.338 84.5207 101.511 85.0414 101.469V101.498Z" fill="white"/>
<path d="M80.0752 96.6895L77.4231 101.97C76.8688 103.018 76.6595 104.245 76.8306 105.444C77.0018 106.643 77.5428 107.739 78.3622 108.548L84.9708 115L91.5795 108.548C92.3988 107.739 92.9399 106.643 93.111 105.444C93.2822 104.245 93.0729 103.018 92.5186 101.97L89.8664 96.6895L88.1273 100.002C87.2578 101.567 86.6752 103.056 84.9969 103.056C83.3187 103.056 82.7013 101.567 81.8665 100.002L80.1274 96.6895H80.0752Z" fill="url(#paint3_linear_4191_36199)"/>
<path d="M84.9766 115L91.5852 108.548C92.4046 107.739 92.9456 106.643 93.1168 105.444C93.2879 104.245 93.0786 103.018 92.5243 101.97L89.8722 96.6895L88.1331 100.002C87.2635 101.567 86.6809 103.056 85.0026 103.056V115H84.9766Z" fill="url(#paint4_linear_4191_36199)"/>
<path d="M80.1218 96.6445L79.6436 97.6047L81.0609 102.079C81.3259 103.009 81.8524 103.821 82.5639 104.397C83.2754 104.974 84.1349 105.284 85.0174 105.284C85.8999 105.284 86.7594 104.974 87.471 104.397C88.1825 103.821 88.709 103.009 88.9739 102.079L90.3913 97.6047L89.9131 96.6445L88.1739 99.9572C87.3044 101.522 86.7218 103.011 85.0435 103.011C83.3653 103.011 82.7479 101.522 81.9131 99.9572L80.1218 96.6445Z" fill="white"/>
<path d="M72.4782 64.0487C72.476 61.2424 72.9906 58.4649 73.9906 55.8849C74.9907 53.305 76.4553 50.9765 78.2956 49.041C75.3207 50.3651 72.8595 52.7974 71.3391 55.9159C70.3739 52.0944 68.2348 46.4101 65 44C68.3304 50.0204 68.8087 57.001 69.0869 63.2806C67.113 59.6415 66.0869 52.6417 66.0869 52.6417C65.4219 57.536 65.8464 62.5355 67.3235 67.2081C68.8007 71.8807 71.2862 76.0857 74.5651 79.4598L76.626 79.6614C77.7655 79.7576 78.8795 80.083 79.9129 80.6216C80.081 80.7197 80.2436 80.8287 80.3999 80.9481C79.4142 80.1714 78.4971 79.2938 77.6608 78.3267C74.3343 74.4807 72.4782 69.367 72.4782 64.0487Z" fill="url(#paint5_linear_4191_36199)"/>
<path d="M66.0661 52.6719C65.8617 54.1817 65.76 55.7062 65.7618 57.2328C65.7516 63.0153 67.2423 68.68 70.0574 73.556C71.3878 73.2487 72.9878 72.8358 72.9878 72.8358C65.7966 65.7593 66.0313 52.6719 66.0313 52.6719H66.0661Z" fill="#E0E5E6"/>
<path d="M71.2956 55.9159C70.3739 52.0944 68.2348 46.4101 65 44C65 44 69.9913 49.7611 70.313 60.5633L71.2956 55.9159Z" fill="#E0E5E6"/>
<path d="M78.2672 49.0645C75.2924 50.3886 72.8312 52.8209 71.3108 55.9394L70.876 64.1874C70.9523 61.2043 71.6606 58.2824 72.9442 55.6561C74.2277 53.0298 76.0508 50.7722 78.2672 49.0645Z" fill="#E0E5E6"/>
<path d="M76.6791 83.8478C77.8046 84.4073 78.7981 85.2458 79.5823 86.2983C80.3666 87.3508 80.9204 88.5889 81.2008 89.9162C81.931 92.8578 82.5116 95.8423 82.9399 98.8555C83.0181 99.3969 83.2686 99.8897 83.6463 100.246C84.0241 100.601 84.5043 100.797 85.0007 100.797C85.4972 100.797 85.9774 100.601 86.3552 100.246C86.7329 99.8897 86.9833 99.3969 87.0616 98.8555C87.4899 95.8423 88.0705 92.8578 88.8007 89.9162C89.0811 88.5889 89.6349 87.3508 90.4192 86.2983C91.2034 85.2458 92.1969 84.4073 93.3224 83.8478L102.192 78.8068L93.4181 79.6902C92.0556 79.7781 90.7345 80.2401 89.5746 81.0344C89.8537 80.1154 89.9114 79.132 89.7422 78.1809C89.5729 77.2297 89.1826 76.3436 88.6094 75.6094C88.7178 76.0081 88.7735 76.4221 88.7746 76.8384C88.7746 77.9385 88.3789 78.9936 87.6744 79.7715C86.9699 80.5494 86.0144 80.9864 85.0181 80.9864C84.0219 80.9864 83.0664 80.5494 82.3619 79.7715C81.6574 78.9936 81.2616 77.9385 81.2616 76.8384C81.2628 76.4221 81.3185 76.0081 81.4269 75.6094C80.8537 76.3436 80.4633 77.2297 80.2941 78.1809C80.1249 79.132 80.1826 80.1154 80.4617 81.0344C78.8964 79.7574 76.2878 79.6614 74.2617 79.4597L67.8096 78.8068L76.6791 83.8478Z" fill="url(#paint6_linear_4191_36199)"/>
<path d="M81.8818 92.9785C82.2297 94.7069 82.5688 96.7233 82.8992 98.8549C82.9775 99.3962 83.2279 99.8891 83.6057 100.245C83.9834 100.601 84.4636 100.796 84.9601 100.796C85.4566 100.796 85.9368 100.601 86.3145 100.245C86.6922 99.8891 86.9427 99.3962 87.0209 98.8549C87.3253 96.8481 87.647 94.9469 87.9774 93.2858C87.1079 98.0291 82.7601 98.0291 81.9514 93.2858C81.9342 93.1818 81.911 93.0792 81.8818 92.9785Z" fill="#E0E5E6"/>
<path d="M80.4656 81.0344L83.796 83.4541C82.6112 82.6814 81.7193 81.4619 81.2846 80.0202C80.85 78.5786 80.9019 77.0121 81.4308 75.6094C80.8576 76.3436 80.4673 77.2297 80.2981 78.1809C80.1288 79.132 80.1866 80.1154 80.4656 81.0344Z" fill="#E0E5E6"/>
<path d="M79.653 80.4707C78.1051 79.6737 76.0008 79.5777 74.2617 79.4049L67.8096 78.752L75.6356 81.2772C77.4499 81.8716 79.1422 82.8499 80.6182 84.1578L80.4443 80.9604L79.653 80.4707Z" fill="#E0E5E6"/>
<path d="M79.4134 85.6365C78.6612 84.7835 77.7779 84.0846 76.8047 83.5721L67.8135 78.7712L76.683 83.8121C77.8085 84.3716 78.802 85.2102 79.5862 86.2627C80.3705 87.3152 80.9243 88.5532 81.2047 89.8805C81.8577 92.4802 82.3773 95.1186 82.7612 97.7829L82.9177 98.8007C82.996 99.3421 83.2464 99.8349 83.6242 100.191C84.0019 100.546 84.4821 100.742 84.9786 100.742C85.475 100.742 85.9553 100.546 86.333 100.191C86.7107 99.8349 86.9612 99.3421 87.0394 98.8007L87.1959 97.7829C87.582 95.1119 88.1046 92.4672 88.7611 89.8613C89.0415 88.534 89.5953 87.296 90.3796 86.2435C91.1638 85.191 92.1573 84.3524 93.2828 83.7929L102.152 78.752L93.1611 83.5529C92.1879 84.0654 91.3047 84.7643 90.5524 85.6173C89.5903 86.8167 88.8937 88.2466 88.5177 89.7941C88.1611 91.0904 87.8829 92.4346 87.6481 93.7693C87.3351 95.4272 87.0452 97.0948 86.7785 98.7719C86.706 99.241 86.4855 99.6666 86.156 99.9735C85.8266 100.28 85.4095 100.449 84.9786 100.449C84.5476 100.449 84.1305 100.28 83.8011 99.9735C83.4717 99.6666 83.2512 99.241 83.1786 98.7719C82.9293 97.1012 82.6394 95.4336 82.309 93.7693C82.0568 92.4346 81.7786 91.0904 81.4395 89.7941C81.0567 88.2495 80.3609 86.8212 79.4047 85.6173L79.4134 85.6365Z" fill="#E0E5E6"/>
<path d="M81.8943 99.4078L78.7378 93.4931C77.7379 91.5727 77.3466 89.8828 78.1031 87.8184C77.709 88.7467 77.538 89.7714 77.6066 90.7939C77.6751 91.8164 77.9808 92.8021 78.4944 93.6563L80.1031 96.6809L81.8422 99.9936L81.9726 100.234C82.7465 101.712 83.3726 103.047 84.9726 103.047C86.5726 103.047 87.1987 101.712 87.9726 100.234L88.103 99.9936L89.8421 96.6809L91.4508 93.6563C91.9643 92.8021 92.2701 91.8164 92.3386 90.7939C92.4072 89.7714 92.2362 88.7467 91.8421 87.8184C92.5986 89.8828 92.2073 91.6015 91.1986 93.4931L88.0508 99.4078L87.8247 99.8303C87.4249 100.775 86.8606 101.623 86.1639 102.327C85.8027 102.59 85.3794 102.731 84.9465 102.731C84.5136 102.731 84.0903 102.59 83.7291 102.327C83.0324 101.623 82.4681 100.775 82.0683 99.8303L81.8422 99.4078H81.8943Z" fill="#E0E5E6"/>
<path d="M84.9756 101.498V100.835C85.3604 100.834 85.7382 100.722 86.0712 100.509C86.3318 100.335 86.5537 100.099 86.7208 99.8186C86.8878 99.5378 86.9957 99.2192 87.0364 98.8862L87.193 97.83C87.3234 97.0138 87.4451 96.2457 87.5756 95.5352C87.4799 96.5818 87.193 99.5487 87.193 99.5487C87.1115 100.121 86.8385 100.639 86.4279 101C86.0174 101.361 85.4991 101.539 84.9756 101.498Z" fill="white"/>
<path d="M89.6045 57.8828C92.1088 60.7634 97.1436 68.5217 92.2132 78.7189L97.874 74.3212L98.0653 70.9606C96.9078 65.5445 93.8692 60.8477 89.6045 57.8828Z" fill="url(#paint7_linear_4191_36199)"/>
<path d="M93.8797 73.857C93.4976 75.5667 92.9129 77.2132 92.1406 78.754L97.358 74.6924C97.5232 74.3563 97.6797 74.0298 97.8275 73.7322L98.0536 70.9956C97.4766 68.261 96.4092 65.6817 94.9145 63.4102C95.1048 64.808 95.166 66.2235 95.0971 67.635C94.9918 69.7652 94.5869 71.8643 93.8971 73.857H93.8797Z" fill="white"/>
<path d="M97.534 64.0487C97.5362 61.2424 97.0216 58.4649 96.0216 55.8849C95.0215 53.305 93.5569 50.9765 91.7166 49.041C94.6899 50.3679 97.1503 52.7995 98.6731 55.9159C99.6296 52.0944 101.777 46.4101 105.012 44C101.673 50.0204 101.195 57.001 100.925 63.2806C102.899 59.6415 103.925 52.7185 103.925 52.7185C104.128 54.2156 104.23 55.7273 104.23 57.241C104.227 61.4121 103.446 65.5378 101.935 69.3607C100.423 73.1835 98.215 76.6214 95.447 79.4598L93.3862 79.6614C92.2467 79.7576 91.1327 80.083 90.0993 80.6216C89.9312 80.7197 89.7686 80.8287 89.6123 80.9481C90.598 80.1714 91.5151 79.2938 92.3514 78.3267C94.6512 75.6397 96.2627 72.3259 97.0209 68.7249C97.3427 67.1785 97.506 65.597 97.5079 64.0103L97.534 64.0487Z" fill="url(#paint8_linear_4191_36199)"/>
<path d="M103.921 52.64C104.123 54.1371 104.225 55.6487 104.225 57.1625C104.235 62.945 102.744 68.6097 99.9293 73.4857C98.5989 73.1784 96.9902 72.7655 96.9902 72.7655C104.19 65.6889 103.947 52.6016 103.947 52.6016L103.921 52.64Z" fill="#E0E5E6"/>
<path d="M98.6689 55.9159C99.582 52.0944 101.73 46.4101 104.965 44C104.965 44 99.9733 49.7611 99.6515 60.5633L98.6689 55.9159Z" fill="#E0E5E6"/>
<path d="M91.6865 49.0645C94.6598 50.3913 97.1202 52.8229 98.643 55.9394L99.0778 64.1874C99.0002 61.2059 98.2912 58.2859 97.0077 55.6614C95.7241 53.0369 93.9018 50.7809 91.6865 49.0741V49.0645Z" fill="#E0E5E6"/>
<path d="M90.2993 80.4707C91.8471 79.6737 93.9514 79.5777 95.6906 79.4049L102.143 78.752L94.3166 81.2772C92.5059 81.8741 90.8169 82.8522 89.3428 84.1578L89.5167 80.9604L90.2906 80.4515L90.2993 80.4707Z" fill="#E0E5E6"/>
<path d="M89.5785 81.0344L86.248 83.4541C87.4329 82.6814 88.3248 81.4619 88.7594 80.0202C89.1941 78.5786 89.1422 77.0121 88.6132 75.6094C89.1864 76.3436 89.5768 77.2297 89.746 78.1809C89.9152 79.132 89.8575 80.1154 89.5785 81.0344Z" fill="#E0E5E6"/>
<path d="M118.366 90.5472V61.3574H136.279V67.2722H124.471V73.571H134.227V79.0345H124.471V90.5568L118.366 90.5472Z" fill="white"/>
<path d="M139.07 66.4921V60.5293H145.027V66.4921H139.07ZM139.07 90.4968V68.931H145.027V90.5448L139.07 90.4968Z" fill="white"/>
<path d="M167.986 90.5646H162.021V78.4374C162.102 77.3435 161.848 76.251 161.299 75.336C161.067 75.0233 160.773 74.7739 160.44 74.6073C160.107 74.4407 159.743 74.3615 159.377 74.3758C158.944 74.3789 158.515 74.4768 158.116 74.6639C157.675 74.8684 157.26 75.1364 156.882 75.4609C156.484 75.7992 156.127 76.193 155.821 76.6323C155.511 77.094 155.267 77.6057 155.099 78.1494V90.5646H149.134V68.9508H154.499V72.5995C155.233 71.299 156.294 70.2617 157.551 69.6133C158.977 68.8937 160.531 68.5361 162.099 68.5667C163.159 68.5161 164.213 68.7779 165.151 69.3252C165.893 69.8032 166.51 70.4845 166.942 71.3032C167.376 72.1207 167.671 73.0188 167.812 73.9534C167.948 74.8772 168.018 75.8115 168.021 76.7475L167.986 90.5646Z" fill="white"/>
<path d="M172.434 90.5506V61.3609H182.303C184.267 61.3158 186.219 61.7077 188.042 62.5131C189.585 63.2011 190.975 64.25 192.116 65.5877C193.256 66.9253 194.121 68.5199 194.651 70.2619C195.227 72.0794 195.521 73.9916 195.52 75.9174C195.544 77.9716 195.222 80.0128 194.573 81.9378C193.994 83.6664 193.087 85.238 191.912 86.5467C190.723 87.8435 189.301 88.8509 187.738 89.504C186.007 90.224 184.17 90.579 182.32 90.5506H172.434ZM189.268 75.9174C189.28 74.7267 189.125 73.5412 188.807 72.4031C188.522 71.3995 188.058 70.469 187.442 69.6665C186.846 68.8936 186.092 68.2881 185.242 67.8998C184.312 67.4705 183.311 67.258 182.303 67.2757H178.547V84.6359H182.303C183.329 84.6573 184.347 84.4312 185.286 83.9734C186.128 83.5593 186.873 82.9348 187.46 82.149C188.06 81.3311 188.517 80.3965 188.807 79.3933C189.122 78.2678 189.278 77.0953 189.268 75.9174Z" fill="white"/>
<path d="M207.947 90.9749C206.436 91.0001 204.936 90.7001 203.53 90.0915C202.29 89.5464 201.163 88.7299 200.217 87.6911C199.318 86.6849 198.617 85.4854 198.156 84.1672C197.679 82.8412 197.437 81.4266 197.443 79.9999C197.433 78.4887 197.675 76.9884 198.156 75.5735C198.607 74.1985 199.316 72.944 200.236 71.8918C201.156 70.8396 202.266 70.0132 203.495 69.4667C204.911 68.8452 206.424 68.5384 207.947 68.5641C209.465 68.5374 210.972 68.8442 212.382 69.4667C213.612 70.0269 214.725 70.8603 215.651 71.9152C216.543 72.9367 217.235 74.1491 217.686 75.4775C218.147 76.8309 218.38 78.266 218.373 79.7119C218.373 80.096 218.373 80.4704 218.373 80.8353C218.354 81.1577 218.316 81.4784 218.26 81.7955H203.773C203.786 82.4283 203.921 83.0508 204.169 83.6218C204.416 84.1929 204.77 84.6995 205.208 85.1082C206.035 85.8432 207.067 86.24 208.13 86.2316C209.006 86.2271 209.869 85.9865 210.643 85.5306C211.384 85.1397 211.965 84.4538 212.269 83.6103L217.329 85.2714C216.531 87.0099 215.288 88.452 213.756 89.4194C211.986 90.5181 209.976 91.0563 207.947 90.9749ZM212.077 77.7339C212.016 76.5047 211.538 75.346 210.738 74.4885C209.944 73.7135 208.92 73.2858 207.86 73.2858C206.8 73.2858 205.776 73.7135 204.982 74.4885C204.204 75.353 203.734 76.4986 203.66 77.7147L212.077 77.7339Z" fill="white"/>
<path d="M230.473 90.975C228.963 91.0002 227.462 90.7002 226.056 90.0916C224.815 89.5489 223.688 88.7321 222.743 87.6911C221.845 86.6828 221.141 85.4841 220.673 84.1673C220.204 82.8394 219.965 81.4256 219.969 80C219.961 78.4898 220.199 76.9902 220.673 75.5736C221.132 74.2222 221.83 72.9852 222.725 71.9345C223.657 70.8679 224.779 70.0275 226.021 69.4668C227.437 68.8445 228.95 68.5378 230.473 68.5642C231.988 68.5367 233.493 68.8436 234.899 69.4668C236.132 70.0268 237.248 70.8601 238.178 71.9152C239.069 72.9368 239.761 74.1492 240.212 75.4775C240.669 76.8322 240.902 78.2665 240.899 79.712C240.899 80.0961 240.899 80.4705 240.899 80.8354C240.876 81.1573 240.838 81.4778 240.786 81.7956H226.299C226.309 82.4292 226.442 83.0531 226.689 83.6248C226.937 84.1964 227.293 84.7024 227.734 85.1082C228.56 85.8461 229.593 86.2433 230.656 86.2317C231.533 86.226 232.395 85.9855 233.169 85.5307C233.91 85.1418 234.489 84.4548 234.786 83.6103L239.856 85.2715C239.057 86.9819 237.832 88.4045 236.325 89.3715C234.547 90.4941 232.521 91.0492 230.473 90.975ZM234.586 77.734C234.521 76.5059 234.044 75.3488 233.247 74.4886C232.469 73.6912 231.439 73.2635 230.378 73.2979C229.848 73.2778 229.32 73.3743 228.824 73.5821C228.328 73.7898 227.875 74.1045 227.491 74.5078C226.709 75.3698 226.239 76.5168 226.169 77.734H234.586Z" fill="white"/>
<path d="M255.993 74.6679C254.657 74.6748 253.333 74.938 252.08 75.4457C251.031 75.8336 250.137 76.6107 249.549 77.6445V90.6167H243.584V69.0028H249.062V73.3621C249.663 72.0027 250.56 70.8285 251.671 69.9438C252.651 69.1551 253.824 68.7131 255.036 68.6764H255.636C255.76 68.6626 255.886 68.6626 256.01 68.6764L255.993 74.6679Z" fill="white"/>
<path d="M119.153 97.9876L121.814 102.587L124.475 97.9492H125.092L122.092 103.211V106.428H121.544V103.182L118.562 97.9876H119.153Z" fill="white"/>
<path d="M128.817 106.464C128.314 106.47 127.817 106.345 127.365 106.099C126.94 105.86 126.56 105.534 126.243 105.139C125.926 104.738 125.678 104.276 125.513 103.776C125.348 103.274 125.263 102.744 125.261 102.21C125.258 101.659 125.349 101.111 125.53 100.597C125.707 100.102 125.96 99.6438 126.278 99.2435C126.594 98.8439 126.978 98.5175 127.409 98.2833C127.849 98.043 128.335 97.9213 128.826 97.928C129.33 97.923 129.828 98.0514 130.278 98.3025C130.704 98.5403 131.085 98.8663 131.4 99.2627C131.719 99.6897 131.963 100.178 132.122 100.703C132.481 101.719 132.481 102.846 132.122 103.862C131.949 104.36 131.696 104.819 131.374 105.216C131.056 105.612 130.672 105.938 130.243 106.176C129.794 106.391 129.306 106.489 128.817 106.464ZM125.852 102.22C125.837 102.682 125.896 103.144 126.026 103.584C126.162 104.017 126.371 104.418 126.643 104.765C126.909 105.107 127.234 105.388 127.6 105.59C127.982 105.796 128.401 105.901 128.826 105.898C129.255 105.906 129.679 105.797 130.061 105.581C130.421 105.371 130.741 105.083 131 104.736C131.261 104.379 131.467 103.976 131.609 103.545C131.749 103.114 131.822 102.659 131.826 102.201C131.826 101.726 131.749 101.254 131.6 100.809C131.45 100.38 131.239 99.9812 130.974 99.6275C130.71 99.2808 130.389 98.9938 130.026 98.7826C129.646 98.5773 129.228 98.4706 128.804 98.4706C128.381 98.4706 127.963 98.5773 127.583 98.7826C127.216 98.996 126.891 99.2863 126.626 99.6371C126.363 99.9893 126.157 100.389 126.017 100.818C125.889 101.271 125.833 101.746 125.852 102.22Z" fill="white"/>
<path d="M136.956 105.86C137.4 105.876 137.84 105.767 138.234 105.543C138.565 105.342 138.843 105.051 139.043 104.698C139.24 104.335 139.381 103.939 139.461 103.526C139.54 103.087 139.581 102.64 139.582 102.192V97.9668H140.13V102.182C140.129 102.725 140.073 103.266 139.965 103.795C139.861 104.281 139.676 104.74 139.417 105.149C139.169 105.553 138.835 105.883 138.443 106.109C137.973 106.344 137.463 106.465 136.948 106.465C136.432 106.465 135.922 106.344 135.452 106.109C135.058 105.883 134.72 105.553 134.469 105.149C134.218 104.739 134.041 104.279 133.948 103.795C133.843 103.282 133.79 102.757 133.791 102.23V97.9668H134.33V102.182C134.33 102.634 134.374 103.085 134.461 103.526C134.534 103.943 134.679 104.341 134.887 104.698C135.087 105.045 135.366 105.33 135.695 105.523C136.082 105.756 136.516 105.872 136.956 105.86Z" fill="white"/>
<path d="M141.999 106.407V97.9668H145.156C145.457 97.9655 145.754 98.0411 146.025 98.1877C146.29 98.3332 146.527 98.5356 146.721 98.783C146.919 99.0322 147.075 99.3183 147.182 99.6279C147.294 99.9327 147.35 100.259 147.347 100.588C147.347 100.892 147.303 101.193 147.216 101.481C147.14 101.762 147.019 102.025 146.86 102.259C146.703 102.487 146.508 102.679 146.286 102.825C146.066 102.978 145.821 103.079 145.564 103.123L147.477 106.407H146.851L145.042 103.19H142.547V106.407H141.999ZM142.547 102.681H145.208C145.441 102.686 145.672 102.623 145.877 102.499C146.075 102.386 146.25 102.229 146.39 102.038C146.534 101.84 146.646 101.616 146.721 101.375C146.791 101.127 146.826 100.868 146.825 100.607C146.823 100.08 146.647 99.5712 146.329 99.1767C146.177 98.9946 145.997 98.8421 145.799 98.7254C145.594 98.6109 145.368 98.5517 145.138 98.5525H142.529L142.547 102.681Z" fill="white"/>
<path d="M151.7 106.407V97.9668H156.648V98.5045H152.239V101.836H155.978V102.364H152.239V106.407H151.7Z" fill="white"/>
<path d="M158.062 106.407V97.9668H158.61V106.407H158.062Z" fill="white"/>
<path d="M161.073 99.0998V106.407H160.525V97.9668H160.943L166.273 105.351V97.9668H166.821V106.407H166.317L161.073 99.0998Z" fill="white"/>
<path d="M171.206 97.9668H171.676L174.893 106.359H174.311L173.25 103.594H169.624L168.563 106.407H167.972L171.206 97.9668ZM173.102 103.094L171.441 98.7253L169.754 103.123L173.102 103.094Z" fill="white"/>
<path d="M176.599 99.0998V106.407H176.051V97.9668H176.468L181.799 105.351V97.9668H182.381V106.407H181.877L176.599 99.0998Z" fill="white"/>
<path d="M183.814 102.117C183.815 101.606 183.897 101.098 184.058 100.619C184.209 100.126 184.446 99.6693 184.754 99.2747C185.072 98.8781 185.455 98.5521 185.884 98.3145C186.362 98.0661 186.886 97.9413 187.414 97.9497C188.027 97.9243 188.633 98.1015 189.154 98.4586C189.611 98.7786 189.981 99.23 190.223 99.7644L189.78 100.052C189.656 99.783 189.494 99.5368 189.301 99.3227C188.955 98.9497 188.521 98.6904 188.049 98.5738C187.83 98.5172 187.605 98.4882 187.38 98.4874C186.933 98.4806 186.492 98.5926 186.093 98.8138C185.731 99.022 185.411 99.3096 185.154 99.6588C184.894 100.009 184.697 100.409 184.571 100.84C184.281 101.724 184.281 102.692 184.571 103.576C184.721 104.012 184.939 104.414 185.214 104.767C185.484 105.107 185.812 105.384 186.18 105.583C186.551 105.793 186.963 105.898 187.38 105.89C187.617 105.891 187.854 105.858 188.084 105.794C188.327 105.736 188.561 105.639 188.78 105.506C189.006 105.366 189.214 105.191 189.397 104.988C189.595 104.772 189.759 104.523 189.884 104.248L190.354 104.498C190.227 104.809 190.05 105.092 189.832 105.334C189.385 105.809 188.829 106.141 188.223 106.294C187.939 106.376 187.647 106.418 187.354 106.419C186.855 106.425 186.362 106.296 185.919 106.044C185.061 105.528 184.403 104.685 184.067 103.672C183.901 103.174 183.815 102.648 183.814 102.117Z" fill="white"/>
<path d="M196.765 105.812V106.407H191.704V97.9668H196.669V98.5045H192.252V101.808H196.113V102.326H192.252V105.812H196.765Z" fill="white"/>
<path d="M200.999 106.407V97.9669H204.103C204.405 97.9641 204.703 98.0398 204.973 98.1877C205.238 98.3333 205.475 98.5356 205.669 98.783C205.869 99.0298 206.026 99.3166 206.129 99.628C206.242 99.9328 206.298 100.259 206.295 100.588C206.292 100.915 206.242 101.239 206.147 101.548C206.046 101.854 205.896 102.137 205.703 102.384C205.514 102.626 205.283 102.824 205.025 102.969C204.755 103.116 204.457 103.192 204.156 103.19H201.547V106.407H200.999ZM201.547 102.681H204.156C204.388 102.685 204.618 102.625 204.825 102.509C205.023 102.396 205.198 102.239 205.338 102.048C205.48 101.851 205.586 101.626 205.651 101.385C205.728 101.135 205.766 100.872 205.764 100.607C205.764 100.077 205.588 99.5641 205.269 99.1671C205.116 98.9851 204.936 98.8326 204.738 98.7158C204.534 98.6099 204.311 98.5542 204.086 98.5526H201.529L201.547 102.681Z" fill="white"/>
<path d="M209.6 97.9668H210.07L213.278 106.407H212.704L211.643 103.642H208.017L206.957 106.407H206.365L209.6 97.9668ZM211.496 103.094L209.835 98.7253L208.139 103.123L211.496 103.094Z" fill="white"/>
<path d="M214.412 106.407V97.9669H217.577C217.879 97.9641 218.177 98.0398 218.447 98.1877C218.712 98.3333 218.949 98.5356 219.143 98.783C219.343 99.0298 219.5 99.3166 219.603 99.628C219.716 99.9328 219.772 100.259 219.769 100.588C219.772 100.891 219.731 101.193 219.647 101.481C219.564 101.761 219.441 102.023 219.282 102.259C219.128 102.486 218.936 102.679 218.716 102.825C218.493 102.976 218.245 103.077 217.986 103.123L219.882 106.388H219.247L217.403 103.219H214.943V106.407H214.412ZM214.96 102.681H217.629C217.86 102.686 218.088 102.623 218.29 102.499C218.489 102.386 218.663 102.229 218.803 102.038C218.95 101.842 219.062 101.617 219.134 101.376C219.207 101.127 219.245 100.868 219.247 100.607C219.236 100.08 219.058 99.5734 218.743 99.1767C218.592 98.9924 218.412 98.8396 218.212 98.7254C218.007 98.6109 217.781 98.5517 217.551 98.5526H214.943L214.96 102.681Z" fill="white"/>
<path d="M226.549 98.5045H223.766V106.407H223.244V98.5045H220.462V97.9668H226.549V98.5045Z" fill="white"/>
<path d="M228.276 99.0998V106.407H227.729V97.9668H228.146L233.476 105.351V97.9668H234.024V106.407H233.52L228.276 99.0998Z" fill="white"/>
<path d="M241.086 105.812V106.407H236.025V97.9668H240.991V98.5045H236.573V101.808H240.434V102.326H236.573V105.812H241.086Z" fill="white"/>
<path d="M242.572 106.407V97.9669H245.737C246.039 97.9631 246.337 98.0388 246.607 98.1878C246.872 98.3333 247.109 98.5357 247.303 98.7831C247.503 99.0299 247.66 99.3166 247.764 99.6281C247.879 99.9322 247.938 100.259 247.937 100.588C247.938 100.892 247.894 101.193 247.807 101.481C247.724 101.761 247.601 102.023 247.442 102.259C247.288 102.486 247.096 102.679 246.877 102.825C246.653 102.976 246.405 103.077 246.146 103.123L248.042 106.388H247.407L245.564 103.219H243.103V106.407H242.572ZM243.12 102.681H245.79C246.021 102.686 246.249 102.623 246.451 102.499C246.649 102.387 246.823 102.23 246.964 102.038C247.11 101.842 247.222 101.617 247.294 101.376C247.367 101.127 247.405 100.868 247.407 100.607C247.409 100.344 247.362 100.082 247.268 99.8393C247.184 99.5955 247.06 99.3708 246.903 99.1768C246.752 98.9925 246.572 98.8396 246.372 98.7255C246.168 98.6099 245.941 98.5507 245.711 98.5527H243.103L243.12 102.681Z" fill="white"/>
</g>
<defs>
<filter id="filter0_d_4191_36199" x="0" y="0" width="322" height="167" filterUnits="userSpaceOnUse" color-interpolation-filters="sRGB">
<feFlood flood-opacity="0" result="BackgroundImageFix"/>
<feColorMatrix in="SourceAlpha" type="matrix" values="0 0 0 0 0 0 0 0 0 0 0 0 0 0 0 0 0 0 127 0" result="hardAlpha"/>
<feOffset dy="4"/>
<feGaussianBlur stdDeviation="2"/>
<feComposite in2="hardAlpha" operator="out"/>
<feColorMatrix type="matrix" values="0 0 0 0 0 0 0 0 0 0 0 0 0 0 0 0 0 0 0.25 0"/>
<feBlend mode="normal" in2="BackgroundImageFix" result="effect1_dropShadow_4191_36199"/>
<feBlend mode="normal" in="SourceGraphic" in2="effect1_dropShadow_4191_36199" result="shape"/>
</filter>
<filter id="filter1_d_4191_36199" x="61" y="44" width="199.01" height="79" filterUnits="userSpaceOnUse" color-interpolation-filters="sRGB">
<feFlood flood-opacity="0" result="BackgroundImageFix"/>
<feColorMatrix in="SourceAlpha" type="matrix" values="0 0 0 0 0 0 0 0 0 0 0 0 0 0 0 0 0 0 127 0" result="hardAlpha"/>
<feOffset dy="4"/>
<feGaussianBlur stdDeviation="2"/>
<feComposite in2="hardAlpha" operator="out"/>
<feColorMatrix type="matrix" values="0 0 0 0 0 0 0 0 0 0 0 0 0 0 0 0 0 0 0.25 0"/>
<feBlend mode="normal" in2="BackgroundImageFix" result="effect1_dropShadow_4191_36199"/>
<feBlend mode="normal" in="SourceGraphic" in2="effect1_dropShadow_4191_36199" result="shape"/>
</filter>
<filter id="filter2_d_4191_36199" x="67.9248" y="57.8828" width="16.4609" height="28.8359" filterUnits="userSpaceOnUse" color-interpolation-filters="sRGB">
<feFlood flood-opacity="0" result="BackgroundImageFix"/>
<feColorMatrix in="SourceAlpha" type="matrix" values="0 0 0 0 0 0 0 0 0 0 0 0 0 0 0 0 0 0 127 0" result="hardAlpha"/>
<feOffset dy="4"/>
<feGaussianBlur stdDeviation="2"/>
<feComposite in2="hardAlpha" operator="out"/>
<feColorMatrix type="matrix" values="0 0 0 0 0 0 0 0 0 0 0 0 0 0 0 0 0 0 0.25 0"/>
<feBlend mode="normal" in2="BackgroundImageFix" result="effect1_dropShadow_4191_36199"/>
<feBlend mode="normal" in="SourceGraphic" in2="effect1_dropShadow_4191_36199" result="shape"/>
</filter>
<linearGradient id="paint0_linear_4191_36199" x1="71.0205" y1="75.0702" x2="95.9628" y2="57.796" gradientUnits="userSpaceOnUse">
<stop stop-color="#2D479D"/>
<stop offset="0.5" stop-color="#457DC0"/>
<stop offset="1" stop-color="#85D2DD"/>
</linearGradient>
<linearGradient id="paint1_linear_4191_36199" x1="89.7699" y1="85.0248" x2="109.282" y2="109.996" gradientUnits="userSpaceOnUse">
<stop stop-color="#2D479D"/>
<stop offset="0.5" stop-color="#457DC0"/>
<stop offset="1" stop-color="#85D2DD"/>
</linearGradient>
<linearGradient id="paint2_linear_4191_36199" x1="80.1747" y1="85.0248" x2="60.6623" y2="109.996" gradientUnits="userSpaceOnUse">
<stop stop-color="#2D479D"/>
<stop offset="0.5" stop-color="#457DC0"/>
<stop offset="1" stop-color="#85D2DD"/>
</linearGradient>
<linearGradient id="paint3_linear_4191_36199" x1="84.9708" y1="97.5536" x2="84.9708" y2="120.521" gradientUnits="userSpaceOnUse">
<stop stop-color="#EFF1F7"/>
<stop offset="0.949653" stop-color="#457DC0"/>
<stop offset="1" stop-color="#85D2DD"/>
</linearGradient>
<linearGradient id="paint4_linear_4191_36199" x1="89.0722" y1="97.5536" x2="89.0722" y2="125.889" gradientUnits="userSpaceOnUse">
<stop stop-color="#2D479D"/>
<stop offset="0.5" stop-color="#457DC0"/>
<stop offset="1" stop-color="#85D2DD"/>
</linearGradient>
<linearGradient id="paint5_linear_4191_36199" x1="70.1739" y1="82.8396" x2="76.4468" y2="41.1324" gradientUnits="userSpaceOnUse">
<stop stop-color="#2D479D"/>
<stop offset="0.5" stop-color="#457DC0"/>
<stop offset="1" stop-color="#85D2DD"/>
</linearGradient>
<linearGradient id="paint6_linear_4191_36199" x1="84.9834" y1="129.822" x2="84.9834" y2="54.2068" gradientUnits="userSpaceOnUse">
<stop stop-color="#2D479D"/>
<stop offset="0.5" stop-color="#457DC0"/>
<stop offset="1" stop-color="#85D2DD"/>
</linearGradient>
<linearGradient id="paint7_linear_4191_36199" x1="86.6306" y1="72.0936" x2="111.572" y2="54.8286" gradientUnits="userSpaceOnUse">
<stop stop-color="#2D479D"/>
<stop offset="0.5" stop-color="#457DC0"/>
<stop offset="1" stop-color="#85D2DD"/>
</linearGradient>
<linearGradient id="paint8_linear_4191_36199" x1="94.4384" y1="82.7916" x2="100.722" y2="41.0753" gradientUnits="userSpaceOnUse">
<stop stop-color="#2D479D"/>
<stop offset="0.5" stop-color="#457DC0"/>
<stop offset="1" stop-color="#85D2DD"/>
</linearGradient>
</defs>
</svg>
