<svg width="40" height="40" viewBox="0 0 40 40" fill="none" xmlns="http://www.w3.org/2000/svg">
<circle cx="20" cy="20" r="19.5" stroke="white"/>
<g clip-path="url(#clip0_3093_32635)">
<path d="M26.1466 8H14.8534C11.0744 8 8 11.0744 8 14.8534V26.1466C8 29.9256 11.0744 33 14.8534 33H26.1466C29.9256 33 33 29.9256 33 26.1466V14.8534C33 11.0744 29.9256 8 26.1466 8ZM31.5236 26.1466C31.5236 29.1115 29.1116 31.5236 26.1466 31.5236H14.8534C11.8885 31.5236 9.47637 29.1116 9.47637 26.1466V14.8534C9.47637 11.8885 11.8885 9.47637 14.8534 9.47637H26.1466C29.1116 9.47637 31.5236 11.8885 31.5236 14.8534V26.1466Z" fill="white"/>
<path d="M20.5 13.6431C16.7191 13.6431 13.6431 16.7191 13.6431 20.5C13.6431 24.281 16.719 27.357 20.5 27.357C24.281 27.357 27.3571 24.281 27.3571 20.5C27.3571 16.719 24.281 13.6431 20.5 13.6431ZM20.5 25.8807C17.5332 25.8807 15.1194 23.4669 15.1194 20.5C15.1194 17.5331 17.5332 15.1193 20.5 15.1193C23.467 15.1193 25.8808 17.5332 25.8808 20.5C25.8808 23.4669 23.467 25.8807 20.5 25.8807Z" fill="white"/>
<path d="M27.7671 11.1494C26.6184 11.1494 25.6838 12.084 25.6838 13.2328C25.6838 14.3815 26.6184 15.3161 27.7671 15.3161C28.9159 15.3161 29.8504 14.3814 29.8504 13.2327C29.8504 12.084 28.9159 11.1494 27.7671 11.1494ZM27.7671 13.8396C27.4325 13.8396 27.1602 13.5674 27.1602 13.2327C27.1602 12.898 27.4325 12.6258 27.7671 12.6258C28.1018 12.6258 28.3741 12.8981 28.3741 13.2327C28.3741 13.5673 28.1018 13.8396 27.7671 13.8396Z" fill="white"/>
</g>
<defs>
<clipPath id="clip0_3093_32635">
<rect width="25" height="25" fill="white" transform="translate(8 8)"/>
</clipPath>
</defs>
</svg>
