<svg width="154" height="57" viewBox="0 0 154 57" fill="none" xmlns="http://www.w3.org/2000/svg">
<path d="M8.56591 36.6939C6.89903 36.6939 5.41736 36.3441 4.12089 35.6443C2.82443 34.9445 1.8135 33.957 1.0881 32.6819C0.362701 31.3912 0 29.8983 0 28.2033C0 26.5083 0.362701 25.0154 1.0881 23.7247C1.8135 22.434 2.82443 21.4388 4.12089 20.739C5.41736 20.0392 6.89903 19.6893 8.56591 19.6893C10.7884 19.6893 12.6482 20.2569 14.1453 21.3921V23.6781C12.8026 22.4807 11.0122 21.882 8.77427 21.882C7.52411 21.882 6.41285 22.1386 5.44051 22.6517C4.4836 23.1649 3.73504 23.9036 3.19485 24.8677C2.65466 25.8163 2.38456 26.9281 2.38456 28.2033C2.38456 29.4785 2.65466 30.5981 3.19485 31.5622C3.75048 32.5264 4.50675 33.265 5.46366 33.7782C6.436 34.2914 7.53954 34.548 8.77427 34.548C9.91639 34.548 10.935 34.4002 11.8302 34.1048C12.7408 33.7938 13.582 33.3039 14.3537 32.6352V34.9445C12.9646 36.1108 11.0354 36.6939 8.56591 36.6939Z" fill="black"/>
<path d="M30.8854 30.1627L25.005 20.0392H27.5285L32.0429 27.9001L36.6268 20.0392H39.1272L33.1773 30.1627V36.3441H30.8854V30.1627Z" fill="black"/>
<path d="M50.2469 20.0392H57.6784C59.1138 20.0392 60.225 20.4124 61.0122 21.1589C61.7993 21.9053 62.1929 22.9938 62.1929 24.4245C62.1929 25.2331 62 25.9485 61.6141 26.5705C61.2437 27.177 60.7498 27.6279 60.1324 27.9234C61.8611 28.4366 62.7254 29.7039 62.7254 31.7255C62.7254 32.6741 62.517 33.4983 62.1003 34.1981C61.699 34.8823 61.1434 35.411 60.4334 35.7842C59.7234 36.1574 58.9363 36.3441 58.072 36.3441H50.2469V20.0392ZM57.3775 27.037C58.1337 27.037 58.7279 26.8271 59.1601 26.4072C59.5922 25.9873 59.8083 25.3653 59.8083 24.5411C59.8083 23.5925 59.5922 22.9316 59.1601 22.5584C58.7434 22.1697 58.0951 21.9753 57.2154 21.9753H52.6083V27.037H57.3775ZM57.5395 34.408C58.4501 34.408 59.1447 34.2058 59.6231 33.8015C60.1016 33.3972 60.3408 32.7052 60.3408 31.7255C60.3408 30.7458 60.0861 30.046 59.5768 29.6262C59.0829 29.2063 58.3344 28.9964 57.3312 28.9964H52.6083V34.408H57.5395Z" fill="black"/>
<path d="M73.8502 20.0392H79.0592C80.8032 20.0392 82.3158 20.3658 83.5968 21.0189C84.8778 21.672 85.8579 22.6051 86.537 23.818C87.2315 25.031 87.5788 26.4616 87.5788 28.11C87.5788 30.8158 86.7994 32.8685 85.2405 34.268C83.6971 35.6521 81.5286 36.3441 78.7351 36.3441H73.8502V20.0392ZM78.7119 34.3614C80.8727 34.3614 82.4933 33.8249 83.5736 32.7519C84.654 31.6789 85.1942 30.1316 85.1942 28.11C85.1942 26.2439 84.6618 24.7666 83.5968 23.6781C82.5473 22.5895 81.0425 22.0453 79.0823 22.0453H76.2116V34.3614H78.7119Z" fill="black"/>
<path d="M98.6969 20.0392H109.37V22.0453H101.058V27.2003H107.263V29.183H101.058V34.3614H109.37V36.3441H98.6969V20.0392Z" fill="black"/>
<path d="M120.378 20.0392H131.051V22.0453H122.74V27.2003H128.944V29.183H122.74V34.3614H131.051V36.3441H120.378V20.0392Z" fill="black"/>
<path d="M142.06 20.0392H148.565C150.294 20.0392 151.621 20.4591 152.547 21.2988C153.473 22.1386 153.937 23.3671 153.937 24.9843C153.937 26.1817 153.62 27.2003 152.987 28.04C152.355 28.8642 151.459 29.424 150.302 29.7195L153.867 36.3441H151.413L147.964 29.9061H144.421V36.3441H142.06V20.0392ZM148.172 27.9001C149.206 27.9001 150.024 27.659 150.626 27.177C151.243 26.6793 151.552 25.9485 151.552 24.9843C151.552 23.9269 151.251 23.1727 150.649 22.7217C150.063 22.2707 149.237 22.0453 148.172 22.0453H144.421V27.9001H148.172Z" fill="black"/>
<path d="M10.3014 56.2958H9.18527L4.69611 49.3195V56.2958H3.57996V47.5219H4.69611L9.18527 54.4857V47.5219H10.3014V56.2958Z" fill="black"/>
<path d="M14.9148 48.4647V51.3935H18.0302V52.3362H14.9148V55.353H18.3982V56.2958H13.7986V47.5219H18.3982V48.4647H14.9148Z" fill="black"/>
<path d="M26.9435 47.5345V48.4647H24.613V56.2958H23.4969V48.4647H21.1542V47.5345H26.9435Z" fill="black"/>
<path d="M40.6564 47.5345L38.1788 56.2958H36.9277L34.9407 49.244L32.8801 56.2958L31.6413 56.3083L29.2496 47.5345H30.4393L32.3037 54.9634L34.3643 47.5345H35.6153L37.5778 54.9382L39.4544 47.5345H40.6564Z" fill="black"/>
<path d="M47.3483 56.3838C46.5552 56.3838 45.8315 56.1952 45.1773 55.8181C44.5232 55.4326 44.0039 54.9005 43.6196 54.2217C43.2435 53.5346 43.0554 52.7636 43.0554 51.9089C43.0554 51.0541 43.2435 50.2873 43.6196 49.6086C44.0039 48.9214 44.5232 48.3893 45.1773 48.0122C45.8315 47.6267 46.5552 47.434 47.3483 47.434C48.1497 47.434 48.8774 47.6267 49.5316 48.0122C50.1857 48.3893 50.7009 48.9172 51.077 49.596C51.4532 50.2748 51.6412 51.0457 51.6412 51.9089C51.6412 52.772 51.4532 53.543 51.077 54.2217C50.7009 54.9005 50.1857 55.4326 49.5316 55.8181C48.8774 56.1952 48.1497 56.3838 47.3483 56.3838ZM47.3483 55.3907C47.9452 55.3907 48.4808 55.2483 48.9551 54.9634C49.4375 54.6784 49.8137 54.272 50.0835 53.7441C50.3615 53.2161 50.5005 52.6044 50.5005 51.9089C50.5005 51.2049 50.3615 50.5932 50.0835 50.0736C49.8137 49.5457 49.4416 49.1393 48.9674 48.8544C48.4931 48.5694 47.9534 48.427 47.3483 48.427C46.7432 48.427 46.2035 48.5694 45.7293 48.8544C45.255 49.1393 44.8789 49.5457 44.6008 50.0736C44.331 50.5932 44.1961 51.2049 44.1961 51.9089C44.1961 52.6044 44.331 53.2161 44.6008 53.7441C44.8789 54.272 45.255 54.6784 45.7293 54.9634C46.2117 55.2483 46.7514 55.3907 47.3483 55.3907Z" fill="black"/>
<path d="M59.2107 56.2958L57.1746 52.7133H55.8254V56.2958H54.7092V47.5345H57.469C58.1149 47.5345 58.6587 47.6476 59.1003 47.8739C59.55 48.1002 59.8853 48.406 60.106 48.7915C60.3268 49.177 60.4372 49.6169 60.4372 50.1114C60.4372 50.7147 60.2655 51.2468 59.922 51.7077C59.5868 52.1686 59.0798 52.4745 58.4011 52.6253L60.5476 56.2958H59.2107ZM55.8254 51.7957H57.469C58.0741 51.7957 58.5279 51.6449 58.8304 51.3432C59.133 51.0332 59.2842 50.6225 59.2842 50.1114C59.2842 49.5918 59.133 49.1896 58.8304 48.9046C58.5361 48.6197 58.0822 48.4773 57.469 48.4773H55.8254V51.7957Z" fill="black"/>
<path d="M68.4024 56.2958L64.8822 52.2985V56.2958H63.766V47.5345H64.8822V51.5946L68.4146 47.5345H69.8252L65.9493 51.9214L69.862 56.2958H68.4024Z" fill="black"/>
<path d="M83.2833 50.0988C83.2833 50.8278 83.0379 51.4354 82.5473 51.9214C82.0649 52.3991 81.3249 52.6379 80.3273 52.6379H78.6837V56.2958H77.5676V47.5345H80.3273C81.2922 47.5345 82.024 47.7733 82.5228 48.251C83.0298 48.7287 83.2833 49.3446 83.2833 50.0988ZM80.3273 51.6952C80.9487 51.6952 81.4066 51.5569 81.701 51.2804C81.9954 51.0038 82.1426 50.61 82.1426 50.0988C82.1426 49.0178 81.5375 48.4773 80.3273 48.4773H78.6837V51.6952H80.3273Z" fill="black"/>
<path d="M93.3299 47.5345L90.1041 56.2958H88.8162L85.5904 47.5345H86.7802L89.4663 55.0891L92.1524 47.5345H93.3299Z" fill="black"/>
<path d="M101.41 47.5345V48.4647H99.0797V56.2958H97.9636V48.4647H95.6209V47.5345H101.41Z" fill="black"/>
<path d="M110.359 55.3656H113.352V56.2958H109.243V47.5345H110.359V55.3656Z" fill="black"/>
<path d="M121.394 47.5345V48.4647H119.063V56.2958H117.947V48.4647H115.604V47.5345H121.394Z" fill="black"/>
<path d="M127.024 47.5345C127.956 47.5345 128.761 47.7147 129.44 48.075C130.127 48.427 130.65 48.934 131.01 49.596C131.378 50.258 131.562 51.0373 131.562 51.934C131.562 52.8307 131.378 53.61 131.01 54.272C130.65 54.9256 130.127 55.4284 129.44 55.7804C128.761 56.124 127.956 56.2958 127.024 56.2958H124.362V47.5345H127.024ZM127.024 55.353C128.128 55.353 128.97 55.0555 129.551 54.4606C130.131 53.8572 130.421 53.015 130.421 51.934C130.421 50.8446 130.127 49.994 129.538 49.3823C128.958 48.7706 128.12 48.4647 127.024 48.4647H125.478V55.353H127.024Z" fill="black"/>
<path d="M13.4247 5.81737C13.4247 9.03021 10.8201 11.6347 7.60728 11.6347C4.39444 11.6347 1.78992 9.03021 1.78992 5.81737C1.78992 2.60452 4.39444 0 7.60728 0C10.8201 0 13.4247 2.60452 13.4247 5.81737Z" fill="#F26064"/>
<path d="M34.9042 5.81737C34.9042 9.03021 32.5 11.6347 29.5343 11.6347C26.5686 11.6347 24.1644 9.03021 24.1644 5.81737C24.1644 2.60452 26.5686 0 29.5343 0C32.5 0 34.9042 2.60452 34.9042 5.81737Z" fill="#A8A8A8"/>
<path d="M57.2787 5.81737C57.2787 9.03021 54.6741 11.6347 51.4613 11.6347C48.2484 11.6347 45.6439 9.03021 45.6439 5.81737C45.6439 2.60452 48.2484 0 51.4613 0C54.6741 0 57.2787 2.60452 57.2787 5.81737Z" fill="#FEBB4D"/>
</svg>
