<svg width="203" height="79" viewBox="0 0 203 79" fill="none" xmlns="http://www.w3.org/2000/svg">
<path d="M12.45 47.45C10.29 47.45 8.37 47 6.69 46.1C5.01 45.2 3.7 43.93 2.76 42.29C1.82 40.63 1.35 38.71 1.35 36.53C1.35 34.35 1.82 32.43 2.76 30.77C3.7 29.11 5.01 27.83 6.69 26.93C8.37 26.03 10.29 25.58 12.45 25.58C15.33 25.58 17.74 26.31 19.68 27.77V30.71C17.94 29.17 15.62 28.4 12.72 28.4C11.1 28.4 9.66 28.73 8.4 29.39C7.16 30.05 6.19 31 5.49 32.24C4.79 33.46 4.44 34.89 4.44 36.53C4.44 38.17 4.79 39.61 5.49 40.85C6.21 42.09 7.19 43.04 8.43 43.7C9.69 44.36 11.12 44.69 12.72 44.69C14.2 44.69 15.52 44.5 16.68 44.12C17.86 43.72 18.95 43.09 19.95 42.23V45.2C18.15 46.7 15.65 47.45 12.45 47.45ZM41.3723 39.05L33.7523 26.03H37.0223L42.8723 36.14L48.8123 26.03H52.0523L44.3423 39.05V47H41.3723V39.05ZM66.4617 26.03H76.0917C77.9517 26.03 79.3917 26.51 80.4117 27.47C81.4317 28.43 81.9417 29.83 81.9417 31.67C81.9417 32.71 81.6917 33.63 81.1917 34.43C80.7117 35.21 80.0717 35.79 79.2717 36.17C81.5117 36.83 82.6317 38.46 82.6317 41.06C82.6317 42.28 82.3617 43.34 81.8217 44.24C81.3017 45.12 80.5817 45.8 79.6617 46.28C78.7417 46.76 77.7217 47 76.6017 47H66.4617V26.03ZM75.7017 35.03C76.6817 35.03 77.4517 34.76 78.0117 34.22C78.5717 33.68 78.8517 32.88 78.8517 31.82C78.8517 30.6 78.5717 29.75 78.0117 29.27C77.4717 28.77 76.6317 28.52 75.4917 28.52H69.5217V35.03H75.7017ZM75.9117 44.51C77.0917 44.51 77.9917 44.25 78.6117 43.73C79.2317 43.21 79.5417 42.32 79.5417 41.06C79.5417 39.8 79.2117 38.9 78.5517 38.36C77.9117 37.82 76.9417 37.55 75.6417 37.55H69.5217V44.51H75.9117ZM97.0477 26.03H103.798C106.058 26.03 108.018 26.45 109.678 27.29C111.338 28.13 112.608 29.33 113.488 30.89C114.388 32.45 114.838 34.29 114.838 36.41C114.838 39.89 113.828 42.53 111.808 44.33C109.808 46.11 106.998 47 103.378 47H97.0477V26.03ZM103.348 44.45C106.148 44.45 108.248 43.76 109.648 42.38C111.048 41 111.748 39.01 111.748 36.41C111.748 34.01 111.058 32.11 109.678 30.71C108.318 29.31 106.368 28.61 103.828 28.61H100.108V44.45H103.348ZM129.245 26.03H143.075V28.61H132.305V35.24H140.345V37.79H132.305V44.45H143.075V47H129.245V26.03ZM157.341 26.03H171.171V28.61H160.401V35.24H168.441V37.79H160.401V44.45H171.171V47H157.341V26.03ZM185.436 26.03H193.866C196.106 26.03 197.826 26.57 199.026 27.65C200.226 28.73 200.826 30.31 200.826 32.39C200.826 33.93 200.416 35.24 199.596 36.32C198.776 37.38 197.616 38.1 196.116 38.48L200.736 47H197.556L193.086 38.72H188.496V47H185.436V26.03ZM193.356 36.14C194.696 36.14 195.756 35.83 196.536 35.21C197.336 34.57 197.736 33.63 197.736 32.39C197.736 31.03 197.346 30.06 196.566 29.48C195.806 28.9 194.736 28.61 193.356 28.61H188.496V36.14H193.356Z" fill="white"/>
<path d="M14 73H12.544L6.688 64.12V73H5.232V61.832H6.688L12.544 70.696V61.832H14V73ZM20.018 63.032V66.76H24.082V67.96H20.018V71.8H24.562V73H18.562V61.832H24.562V63.032H20.018ZM35.7091 61.848V63.032H32.6691V73H31.2131V63.032H28.1571V61.848H35.7091ZM53.5974 61.848L50.3654 73H48.7334L46.1414 64.024L43.4534 73L41.8374 73.016L38.7174 61.848H40.2694L42.7014 71.304L45.3894 61.848H47.0214L49.5814 71.272L52.0294 61.848H53.5974ZM62.3267 73.112C61.2921 73.112 60.3481 72.872 59.4947 72.392C58.6414 71.9013 57.9641 71.224 57.4627 70.36C56.9721 69.4853 56.7267 68.504 56.7267 67.416C56.7267 66.328 56.9721 65.352 57.4627 64.488C57.9641 63.6133 58.6414 62.936 59.4947 62.456C60.3481 61.9653 61.2921 61.72 62.3267 61.72C63.3721 61.72 64.3214 61.9653 65.1748 62.456C66.0281 62.936 66.7001 63.608 67.1908 64.472C67.6814 65.336 67.9268 66.3173 67.9268 67.416C67.9268 68.5147 67.6814 69.496 67.1908 70.36C66.7001 71.224 66.0281 71.9013 65.1748 72.392C64.3214 72.872 63.3721 73.112 62.3267 73.112ZM62.3267 71.848C63.1054 71.848 63.8041 71.6667 64.4228 71.304C65.0521 70.9413 65.5428 70.424 65.8948 69.752C66.2574 69.08 66.4388 68.3013 66.4388 67.416C66.4388 66.52 66.2574 65.7413 65.8948 65.08C65.5428 64.408 65.0574 63.8907 64.4388 63.528C63.8201 63.1653 63.1161 62.984 62.3267 62.984C61.5374 62.984 60.8334 63.1653 60.2147 63.528C59.5961 63.8907 59.1054 64.408 58.7427 65.08C58.3907 65.7413 58.2147 66.52 58.2147 67.416C58.2147 68.3013 58.3907 69.08 58.7427 69.752C59.1054 70.424 59.5961 70.9413 60.2147 71.304C60.8441 71.6667 61.5481 71.848 62.3267 71.848ZM77.8009 73L75.1449 68.44H73.3849V73H71.9289V61.848H75.5289C76.3715 61.848 77.0809 61.992 77.6569 62.28C78.2435 62.568 78.6809 62.9573 78.9689 63.448C79.2569 63.9387 79.4009 64.4987 79.4009 65.128C79.4009 65.896 79.1769 66.5733 78.7289 67.16C78.2915 67.7467 77.6302 68.136 76.7449 68.328L79.5449 73H77.8009ZM73.3849 67.272H75.5289C76.3182 67.272 76.9102 67.08 77.3049 66.696C77.6995 66.3013 77.8969 65.7787 77.8969 65.128C77.8969 64.4667 77.6995 63.9547 77.3049 63.592C76.9209 63.2293 76.3289 63.048 75.5289 63.048H73.3849V67.272ZM89.7912 73L85.1992 67.912V73H83.7432V61.848H85.1992V67.016L89.8072 61.848H91.6472L86.5912 67.432L91.6952 73H89.7912ZM109.203 65.112C109.203 66.04 108.883 66.8133 108.243 67.432C107.614 68.04 106.648 68.344 105.347 68.344H103.203V73H101.747V61.848H105.347C106.606 61.848 107.56 62.152 108.211 62.76C108.872 63.368 109.203 64.152 109.203 65.112ZM105.347 67.144C106.158 67.144 106.755 66.968 107.139 66.616C107.523 66.264 107.715 65.7627 107.715 65.112C107.715 63.736 106.926 63.048 105.347 63.048H103.203V67.144H105.347ZM122.309 61.848L118.101 73H116.421L112.213 61.848H113.765L117.269 71.464L120.773 61.848H122.309ZM132.849 61.848V63.032H129.809V73H128.353V63.032H125.297V61.848H132.849ZM144.523 71.816H148.427V73H143.067V61.848H144.523V71.816ZM158.917 61.848V63.032H155.877V73H154.421V63.032H151.365V61.848H158.917ZM166.261 61.848C167.477 61.848 168.528 62.0773 169.413 62.536C170.309 62.984 170.992 63.6293 171.461 64.472C171.941 65.3147 172.181 66.3067 172.181 67.448C172.181 68.5893 171.941 69.5813 171.461 70.424C170.992 71.256 170.309 71.896 169.413 72.344C168.528 72.7813 167.477 73 166.261 73H162.789V61.848H166.261ZM166.261 71.8C167.701 71.8 168.8 71.4213 169.557 70.664C170.315 69.896 170.693 68.824 170.693 67.448C170.693 66.0613 170.309 64.9787 169.541 64.2C168.784 63.4213 167.691 63.032 166.261 63.032H164.245V71.8H166.261Z" fill="white"/>
<circle cx="11.5" cy="7.5" r="7.5" fill="#F26064"/>
<circle cx="39.5" cy="7.5" r="7.5" fill="#A8A8A8"/>
<circle cx="67.5" cy="7.5" r="7.5" fill="#FEBB4D"/>
</svg>
