<svg width="322" height="167" viewBox="0 0 322 167" fill="none" xmlns="http://www.w3.org/2000/svg">
<g filter="url(#filter0_d_4191_36109)">
<rect x="4" width="314" height="159" rx="20" fill="#17A7AE"/>
</g>
<g clip-path="url(#clip0_4191_36109)">
<path d="M126.876 117.441C127.905 115.528 128.93 113.612 129.964 111.704C131.275 109.285 132.59 106.87 133.91 104.458C133.975 104.35 134.016 104.227 134.03 104.098C134.044 103.969 134.03 103.839 133.991 103.717C131.745 95.4875 129.504 87.2561 127.267 79.023C127.089 78.3664 127.088 78.3664 127.701 78.3664C130.352 78.3664 133.003 78.3731 135.654 78.3587C135.978 78.3587 136.106 78.433 136.176 78.8145C136.96 83.1399 137.773 87.4655 138.57 91.7909C138.745 92.7413 138.852 93.7056 138.889 94.6746C139.148 93.8981 139.359 93.1994 139.608 92.5228C140.68 89.6094 142.028 86.8388 143.254 84.0028C144.016 82.2339 144.808 80.4782 145.581 78.7147C145.671 78.5106 145.74 78.3543 146.001 78.3555C148.964 78.3664 151.928 78.3631 154.89 78.3643C154.944 78.3717 154.997 78.3836 155.049 78.3998C154.68 79.1596 154.328 79.8982 153.968 80.6336C149.817 89.107 145.666 97.5796 141.515 106.052C139.711 109.734 137.907 113.416 136.105 117.098C136.053 117.209 135.964 117.299 135.98 117.431L126.876 117.441Z" fill="#E0E0E0"/>
<path d="M241.259 85.8282C241.819 84.9166 242.336 83.9926 242.953 83.1421C244.327 81.2499 246.073 80.1908 248.308 80.1098C249.225 80.075 250.142 80.1848 251.031 80.4358C251.306 80.5134 251.34 80.6343 251.245 80.9116C250.892 81.9286 250.547 82.9491 250.228 83.9782C250.127 84.311 249.995 84.3488 249.711 84.2467C248.327 83.7509 246.931 83.7309 245.554 84.2611C243.949 84.8789 243.005 86.2087 242.428 87.8977C241.834 89.6269 241.672 91.4369 241.664 93.2625C241.645 97.1732 241.652 101.084 241.664 104.995C241.664 105.385 241.576 105.49 241.221 105.479C240.258 105.45 239.292 105.446 238.329 105.479C237.939 105.492 237.868 105.353 237.869 104.956C237.88 98.6302 237.882 92.3046 237.876 85.9791C237.876 84.4208 237.884 82.8625 237.87 81.3042C237.87 80.9826 237.949 80.8751 238.25 80.8816C239.129 80.9032 240.008 80.9032 240.887 80.8816C241.182 80.8751 241.274 80.9694 241.271 81.2987C241.251 82.8105 241.259 84.3198 241.259 85.8282Z" fill="white"/>
<path d="M138.107 31.2352C136.704 32.3931 135.393 33.6619 134.104 34.9595L131.566 37.71L128.839 40.9697L125.441 45.3794L121.951 50.408L119.243 54.7169L116.506 59.5968C115.78 61.1031 115.048 62.6059 114.33 64.1175C114.018 64.7753 113.735 65.4484 113.438 66.1195C112.909 67.5856 112.313 69.0229 111.859 70.5224C111.637 71.2557 111.422 71.9909 111.165 72.7295C110.948 71.6716 110.737 70.6167 110.475 69.5753C109.914 67.6899 109.229 65.8731 108.322 64.1574C108.12 63.7826 107.924 63.41 107.724 63.0361C106.615 61.1974 105.304 59.5436 103.993 57.8888C102.99 56.7087 101.887 55.6441 100.817 54.5405L98.7028 52.6883C97.4343 51.7179 96.182 50.7219 94.749 49.8435C95.7665 49.4087 96.7184 49.0782 97.7448 49.076C98.5949 48.8963 99.4389 49.0073 100.271 49.1947C100.487 49.2435 100.723 49.2424 100.927 49.3611C102.086 49.5551 103.145 50.0564 104.17 50.6509C105.521 51.4062 106.817 52.258 107.982 53.3316C108.834 54.0691 109.674 54.8212 110.372 55.7416C110.564 55.7295 110.608 55.5363 110.692 55.4089C111.473 54.1967 112.246 52.9778 113.024 51.7622C113.095 51.6672 113.171 51.5775 113.253 51.4938C114.218 49.9544 115.226 48.4594 116.305 47.0253C117.129 45.7895 118.019 44.6081 118.969 43.4873C119.811 42.3633 120.719 41.3004 121.686 40.3053C122.814 39.0375 124.037 37.8752 125.341 36.8305C126.401 35.8998 127.539 35.0828 128.741 34.3905C129.571 33.8346 130.448 33.3674 131.36 32.9953C132.242 32.5522 133.161 32.202 134.104 31.9494C135.322 31.5388 136.575 31.2671 137.843 31.1387C137.937 31.1531 138.042 31.1276 138.107 31.2352Z" fill="url(#paint0_linear_4191_36109)"/>
<path d="M94.5533 76.5078C94.1833 72.0814 91.6291 68.5278 87.7976 67.1272C85.9241 66.4417 83.981 66.2609 82.0379 66.2277C78.0268 66.1578 74.0137 66.1965 70.0015 66.1777C69.7343 66.1777 69.6638 66.2887 69.6285 66.5425C69.3179 68.7238 69.004 70.9051 68.6867 73.0863C67.9076 78.4912 67.1285 83.8952 66.3494 89.2977C65.7051 93.7476 65.0698 98.2004 64.4144 102.651C64.2934 103.469 64.2571 104.307 64.001 105.099V105.473H72.4225C73.4702 105.473 73.4702 105.473 73.6476 104.364C73.6688 104.225 73.6819 104.086 73.7031 103.948C74.2745 100.035 74.8459 96.1209 75.4173 92.2058C75.4667 91.8654 75.5907 91.7888 75.8851 91.7934C77.0477 91.8131 78.2114 91.8287 79.3729 91.7934C81.322 91.7379 83.2752 91.7634 85.2213 91.4683C88.6788 90.9415 91.2209 88.9685 92.9209 85.6522C94.3707 82.8041 94.8185 79.7386 94.5533 76.5078ZM84.1877 82.1098C83.4879 82.7365 82.6218 82.9483 81.7576 83.1136C80.6026 83.3298 79.4323 83.4319 78.2607 83.4185C77.8352 83.4185 77.4107 83.4108 76.9862 83.4185C76.7846 83.424 76.6837 83.402 76.7291 83.1213C77.1405 80.363 77.5358 77.6024 77.9391 74.8431C77.9633 74.6734 77.9572 74.5225 78.1942 74.5236C79.7188 74.5304 81.2484 74.4637 82.7408 74.9051C84.102 75.3078 85.1538 76.113 85.3997 77.7477C85.6437 79.4035 85.4643 80.9618 84.1827 82.1098H84.1877Z" fill="#E0E0E0"/>
<path d="M125.033 78.3584C122.694 78.3739 120.354 78.366 118.014 78.366C117.208 78.366 117.208 78.366 117.092 79.2679C116.962 80.2471 116.814 81.2242 116.662 82.2846L116.36 81.8544C115.521 80.6832 114.567 79.6362 113.375 78.9108C110.263 77.0065 107.023 77.0762 103.808 78.4406C100.494 79.8468 98.3076 82.6129 96.8455 86.0987C95.9329 88.2737 95.5527 90.5862 95.4731 92.975C95.3935 95.3641 95.6143 97.7054 96.4906 99.9168C97.5795 102.664 99.2584 104.867 101.901 105.823C105.834 107.246 109.398 106.305 112.533 103.348C112.99 102.918 113.394 102.428 113.877 101.868C113.748 103.023 113.647 104.056 113.511 105.084C113.467 105.417 113.552 105.477 113.83 105.476C116.298 105.466 118.765 105.466 121.232 105.476C121.472 105.476 121.572 105.414 121.612 105.127C121.995 102.392 122.398 99.6619 122.791 96.928C123.657 90.8922 124.524 84.8592 125.394 78.8286C125.451 78.4359 125.376 78.3563 125.033 78.3584ZM111.608 98.2222C110.158 98.8643 108.671 98.8123 107.225 98.1744C105.41 97.377 104.446 95.8455 104.248 93.7383C104.068 91.8338 104.324 90.005 105.279 88.3668C106.462 86.3395 108.161 85.2846 110.363 85.2514C112.838 85.1692 114.639 86.7974 115.242 88.7495C116.195 91.8328 115.118 96.6707 111.608 98.2222Z" fill="#E0E0E0"/>
<path d="M178.599 64.2246C178.642 63.9239 178.513 63.8608 178.262 63.864C177.241 63.8775 176.22 63.8907 175.2 63.864C174.827 63.8519 174.768 63.9894 174.769 64.3609C174.781 68.6308 174.777 72.9009 174.777 77.1687V85.4868C174.443 84.8057 174.06 84.1556 173.63 83.5426C173.211 82.9528 172.728 82.422 172.191 81.9622C169.808 79.9725 167.104 79.6918 164.284 80.2885C160.926 81.0007 158.662 83.2621 157.257 86.6192C156.471 88.5046 156.177 90.5078 156.123 92.5628C156.049 95.3545 156.383 98.0605 157.596 100.567C159.894 105.305 164.114 107.082 168.385 106.343C171.085 105.877 173.07 104.206 174.523 101.712C174.624 101.544 174.677 101.332 174.891 101.185C174.891 102.477 174.905 103.707 174.883 104.936C174.876 105.342 174.948 105.504 175.361 105.49C176.268 105.452 177.176 105.447 178.083 105.49C178.531 105.513 178.607 105.353 178.607 104.898C178.596 91.4206 178.593 77.9429 178.597 64.4652C178.592 64.3851 178.593 64.3045 178.599 64.2246ZM173.819 98.5909C172.553 101.071 170.568 102.27 168.022 102.405C166.902 102.465 165.789 102.405 164.721 101.955C163.076 101.263 161.871 100.025 161.166 98.279C159.902 95.1504 159.741 91.9163 160.818 88.6999C161.732 85.9616 164.084 84.2912 166.741 84.2303C168.175 84.196 169.569 84.3123 170.859 85.0621C173.01 86.3143 174.199 88.3416 174.69 90.9125C174.826 91.6944 174.894 92.4889 174.892 93.2849C174.87 95.1936 174.645 96.9727 173.819 98.5909Z" fill="white"/>
<path d="M189.024 93.8013C191.847 93.8013 194.668 93.8013 197.487 93.8013H205.95C206.18 93.8013 206.382 93.8477 206.384 93.4441C206.392 91.6629 206.283 89.895 205.822 88.1804C204.915 84.7488 203.072 82.1735 200 80.8169C198.34 80.0839 196.597 79.8789 194.806 80.0131C193.481 80.1118 192.201 80.3855 190.991 80.9611C188.369 82.2078 186.542 84.3561 185.436 87.2166C184.226 90.3441 184.156 93.606 184.792 96.8811C185.457 100.312 187.111 103.043 189.891 104.847C192.093 106.278 194.516 106.652 197.044 106.441C201.026 106.108 203.956 103.965 206.003 100.253C206.185 99.9201 206.204 99.746 205.869 99.5252C205.286 99.1437 204.738 98.6979 204.174 98.282C203.915 98.0911 203.644 97.7472 203.394 97.7628C203.092 97.7807 203.015 98.2785 202.841 98.5648C201.134 101.364 198.908 103.142 195.692 102.969C193.171 102.833 191.154 101.682 189.793 99.2911C188.885 97.7064 188.641 95.9361 188.592 94.1105C188.581 93.7126 188.827 93.8013 189.024 93.8013ZM188.648 90.0136C188.937 87.9928 189.713 86.275 191.253 85.0627C192.171 84.3252 193.249 83.8662 194.379 83.7317C196.001 83.5511 197.605 83.6454 199.094 84.4882C201.141 85.6483 202.018 87.6248 202.261 90.0424C202.294 90.3863 202.153 90.4139 201.901 90.413C199.746 90.4051 197.591 90.413 195.437 90.413C193.282 90.413 191.155 90.413 189.015 90.4195C188.733 90.4184 188.597 90.3708 188.648 90.0148V90.0136Z" fill="white"/>
<path d="M214.823 93.7922C217.615 93.8066 220.408 93.8001 223.201 93.8001C226.025 93.8001 228.848 93.8001 231.665 93.8077C231.975 93.8077 232.078 93.729 232.068 93.3707C232.047 91.9058 231.985 90.4474 231.689 89.0122C231.101 86.1517 229.874 83.7194 227.656 81.9993C225.089 80.0108 222.188 79.6125 219.186 80.1738C215.271 80.9068 212.566 83.4577 211.119 87.4694C209.723 91.3302 209.809 95.2806 211.199 99.1314C212.288 102.156 214.241 104.344 217.007 105.591C218.863 106.425 220.804 106.618 222.792 106.437C226.808 106.07 229.736 103.871 231.758 100.1C231.902 99.8291 231.819 99.726 231.628 99.5895C231.001 99.1381 230.38 98.6755 229.755 98.2177C229.024 97.6808 229.025 97.682 228.562 98.4659C228.455 98.6491 228.345 98.8309 228.23 99.0071C226.545 101.578 224.371 103.119 221.379 102.974C219.363 102.877 217.648 102.087 216.294 100.399C214.895 98.6423 214.412 96.5472 214.36 94.277C214.357 93.8755 214.48 93.7901 214.823 93.7922ZM214.428 89.9105C214.865 86.2938 217.579 83.6874 220.899 83.6674C222.025 83.6607 223.131 83.7417 224.185 84.1975C226.351 85.1335 227.496 86.9558 227.863 89.4236C228.009 90.4051 227.997 90.4074 227.095 90.4074H221.146C219.036 90.4074 216.925 90.3963 214.815 90.4183C214.424 90.4262 214.384 90.2665 214.428 89.9194V89.9105Z" fill="white"/>
<path d="M248.829 71.8995C248.829 70.986 249.077 70.0934 249.539 69.3348C250.002 68.5762 250.659 67.9862 251.428 67.6396C252.196 67.2929 253.04 67.2053 253.854 67.3879C254.668 67.5706 255.414 68.0153 255.997 68.6654C256.58 69.3156 256.975 70.1417 257.13 71.0389C257.286 71.9364 257.195 72.8643 256.87 73.7046C256.545 74.5451 256 75.2603 255.304 75.7593C254.608 76.2581 253.794 76.5184 252.963 76.5068C251.862 76.49 250.811 75.9975 250.037 75.1354C249.264 74.2732 248.83 73.1109 248.829 71.8995ZM253.017 75.9388C253.743 75.9388 254.452 75.702 255.056 75.2585C255.66 74.8147 256.13 74.1841 256.408 73.4464C256.685 72.7087 256.758 71.8969 256.616 71.1137C256.475 70.3305 256.125 69.6112 255.612 69.0467C255.098 68.4822 254.444 68.0977 253.732 67.9421C253.02 67.7863 252.282 67.8664 251.611 68.1722C250.941 68.478 250.368 68.9956 249.964 69.6597C249.561 70.3238 249.346 71.1044 249.346 71.9027C249.348 72.9727 249.736 73.9981 250.424 74.7546C251.112 75.5109 252.044 75.9367 253.017 75.9388Z" fill="#FCFFFF"/>
<path d="M253.858 72.2641C254.187 72.944 254.516 73.6194 254.844 74.2961C254.844 74.3026 254.844 74.3126 254.844 74.3269H254.466C254.338 74.3269 254.209 74.3269 254.081 74.3269C254.063 74.3288 254.045 74.3239 254.03 74.3135C254.015 74.3033 254.004 74.2877 253.998 74.2694C253.724 73.6882 253.447 73.1081 253.174 72.5269C253.166 72.5053 253.152 72.487 253.134 72.4745C253.116 72.4622 253.095 72.4566 253.073 72.4582C252.815 72.4582 252.557 72.4582 252.291 72.4582V74.3204H251.525V69.4738H251.592C252.09 69.4738 252.588 69.4738 253.086 69.4738C253.403 69.4629 253.717 69.5323 254.005 69.6767C254.187 69.7698 254.343 69.9147 254.457 70.0961C254.571 70.2776 254.639 70.4892 254.654 70.7093C254.697 71.0107 254.658 71.3195 254.541 71.5965C254.41 71.8803 254.193 72.1053 253.927 72.233L253.858 72.2641ZM252.286 71.7716C252.293 71.7749 252.3 71.7769 252.308 71.7783C252.596 71.7783 252.885 71.7783 253.173 71.7783C253.342 71.7772 253.505 71.7156 253.639 71.603C253.853 71.4201 253.91 71.1672 253.891 70.8855C253.89 70.7481 253.853 70.6136 253.783 70.4994C253.713 70.3849 253.615 70.2955 253.5 70.2423C253.365 70.1838 253.221 70.1555 253.076 70.159H252.345H252.286V71.7716Z" fill="#FCFFFF"/>
</g>
<defs>
<filter id="filter0_d_4191_36109" x="0" y="0" width="322" height="167" filterUnits="userSpaceOnUse" color-interpolation-filters="sRGB">
<feFlood flood-opacity="0" result="BackgroundImageFix"/>
<feColorMatrix in="SourceAlpha" type="matrix" values="0 0 0 0 0 0 0 0 0 0 0 0 0 0 0 0 0 0 127 0" result="hardAlpha"/>
<feOffset dy="4"/>
<feGaussianBlur stdDeviation="2"/>
<feComposite in2="hardAlpha" operator="out"/>
<feColorMatrix type="matrix" values="0 0 0 0 0 0 0 0 0 0 0 0 0 0 0 0 0 0 0.25 0"/>
<feBlend mode="normal" in2="BackgroundImageFix" result="effect1_dropShadow_4191_36109"/>
<feBlend mode="normal" in="SourceGraphic" in2="effect1_dropShadow_4191_36109" result="shape"/>
</filter>
<linearGradient id="paint0_linear_4191_36109" x1="94.749" y1="51.9319" x2="138.107" y2="51.9319" gradientUnits="userSpaceOnUse">
<stop stop-color="#E0E0E0"/>
<stop offset="1" stop-color="#F5F5F5"/>
</linearGradient>
<clipPath id="clip0_4191_36109">
<rect width="193.37" height="86.61" fill="white" transform="translate(64 31)"/>
</clipPath>
</defs>
</svg>
