<svg width="322" height="167" viewBox="0 0 322 167" fill="none" xmlns="http://www.w3.org/2000/svg">
<g filter="url(#filter0_d_4191_36209)">
<rect x="4" width="314" height="159" rx="20" fill="#091468"/>
</g>
<path d="M137.589 53.6016L120.11 100.217H114.442L109.245 81.9997L113.969 81.4639L117.748 94.3235L124.362 73.9625L117.276 53.6016H122.472L127.669 68.6044L132.393 53.6016H137.589Z" fill="white"/>
<path d="M148.161 76.5782L147.036 44.0475L184.298 44.0938L149.114 77.6545" fill="#F9BF77"/>
<path d="M166.749 76.5782L165.623 44.0475L202.886 44.0939L167.702 77.6545" fill="#F9BF77"/>
<path d="M70 74.5535L74.2872 46.584H83.9713C85.9552 46.584 87.5608 46.9846 88.7882 47.7858C90.0155 48.5779 90.8687 49.675 91.3479 51.0771C91.8271 52.4701 91.9279 54.0589 91.6505 55.8434C91.3815 57.637 90.7889 59.2304 89.8726 60.6234C88.9647 62.0164 87.7668 63.1135 86.2789 63.9147C84.791 64.7068 83.0508 65.1029 81.0585 65.1029H74.6403L75.2834 60.9375H81.0712C82.2312 60.9375 83.2148 60.719 84.0218 60.2819C84.8372 59.8449 85.4803 59.244 85.951 58.4792C86.4218 57.7144 86.7328 56.8358 86.8841 55.8434C87.027 54.851 86.9808 53.977 86.7454 53.2213C86.5101 52.4656 86.0519 51.8783 85.371 51.4595C84.6985 51.0316 83.778 50.8177 82.6095 50.8177H78.3223L74.6781 74.5535H70Z" fill="#FCFCFC"/>
<path d="M91.9966 64.0168C92.3767 61.9631 93.1242 60.1416 94.2391 58.5525C95.3794 56.9633 96.7603 55.7408 98.382 54.8851C100.004 54.0294 101.714 53.6016 103.513 53.6016C105.084 53.6016 106.402 53.9072 107.466 54.5184C108.556 55.1296 109.354 55.8998 109.861 56.8288L110.393 53.9316H115.752L112.027 74.2486H106.668L107.238 71.2781C106.402 72.2316 105.312 73.0262 103.969 73.6619C102.652 74.2731 101.207 74.5787 99.6363 74.5787C98.0906 74.5787 96.7223 74.2486 95.5314 73.5885C94.3405 72.9039 93.4156 71.9504 92.7568 70.728C92.098 69.4811 91.7686 68.0386 91.7686 66.4005C91.7686 65.6426 91.8446 64.848 91.9966 64.0168ZM108.53 64.0901C108.632 63.4545 108.682 62.9899 108.682 62.6965C108.682 61.2541 108.239 60.1294 107.352 59.3226C106.491 58.5158 105.401 58.1124 104.083 58.1124C103.095 58.1124 102.132 58.3446 101.195 58.8092C100.282 59.2737 99.4843 59.9583 98.8001 60.8629C98.116 61.743 97.6599 62.7943 97.4318 64.0168C97.3558 64.4813 97.3178 64.9214 97.3178 65.337C97.3178 66.804 97.7486 67.9653 98.6101 68.821C99.4716 69.6522 100.561 70.0679 101.879 70.0679C102.867 70.0679 103.83 69.8356 104.767 69.3711C105.705 68.8821 106.503 68.1853 107.162 67.2807C107.846 66.3761 108.302 65.3126 108.53 64.0901Z" fill="#FCFCFC"/>
<path d="M138.678 81.178C141.207 81.178 143.212 81.9124 144.691 83.3812C146.171 84.8251 146.91 86.7793 146.91 89.244C146.91 90.0406 146.851 90.7501 146.731 91.3725C146.588 92.1193 146.433 92.7666 146.266 93.3143H131.77C131.746 93.4885 131.734 93.7375 131.734 94.0611C131.734 95.3557 132.092 96.3764 132.808 97.1232C133.547 97.8452 134.514 98.2061 135.707 98.2061C136.709 98.2061 137.568 97.9821 138.284 97.534C139.024 97.061 139.62 96.4511 140.074 95.7042H145.479C144.596 97.6958 143.224 99.3389 141.362 100.633C139.525 101.903 137.437 102.538 135.098 102.538C132.569 102.538 130.541 101.791 129.013 100.297C127.486 98.8036 126.723 96.7747 126.723 94.2105C126.723 93.4637 126.794 92.6795 126.937 91.8579C127.295 89.717 128.023 87.8374 129.121 86.2192C130.242 84.601 131.626 83.3563 133.273 82.485C134.919 81.6136 136.721 81.178 138.678 81.178ZM141.756 90.1402C141.804 89.7419 141.828 89.4556 141.828 89.2813C141.828 88.0863 141.458 87.1528 140.718 86.4806C139.978 85.8084 139.012 85.4724 137.819 85.4724C136.554 85.4724 135.421 85.8956 134.418 86.742C133.416 87.5635 132.712 88.6963 132.306 90.1402H141.756Z" fill="#FCFCFC"/>
<path d="M163.06 81.2153C165.112 81.2153 166.723 81.8004 167.892 82.9704C169.085 84.1156 169.682 85.7587 169.682 87.8996C169.682 88.6963 169.622 89.4182 169.503 90.0655L167.427 102.202H162.452L164.384 90.775C164.456 90.3269 164.492 89.8912 164.492 89.468C164.492 88.2233 164.17 87.2772 163.525 86.63C162.905 85.9827 162.01 85.6591 160.841 85.6591C159.505 85.6591 158.359 86.0823 157.405 86.9287C156.474 87.7503 155.854 88.9452 155.543 90.5136L153.575 102.202H148.528L152.036 81.5141H157.083L156.653 84.0533C157.464 83.182 158.431 82.4974 159.552 81.9995C160.674 81.4767 161.843 81.2153 163.06 81.2153Z" fill="#FCFCFC"/>
<path d="M172.693 91.7832C173.051 89.6921 173.755 87.8374 174.805 86.2192C175.879 84.601 177.18 83.3563 178.707 82.485C180.258 81.6136 181.88 81.178 183.575 81.178C184.863 81.178 186.044 81.4767 187.118 82.0742C188.192 82.6468 188.991 83.4185 189.516 84.3894L191.199 74.5684H196.246L191.557 102.202H186.51L187.047 99.1397C186.259 100.16 185.245 100.982 184.004 101.604C182.787 102.227 181.439 102.538 179.959 102.538C178.504 102.538 177.203 102.202 176.058 101.53C174.936 100.833 174.054 99.8617 173.409 98.6169C172.789 97.3473 172.479 95.8785 172.479 94.2105C172.479 93.4388 172.55 92.6297 172.693 91.7832ZM188.264 91.8579C188.359 91.2107 188.407 90.7377 188.407 90.4389C188.407 88.9701 187.989 87.8249 187.154 87.0034C186.343 86.1819 185.317 85.7711 184.076 85.7711C183.145 85.7711 182.238 86.0076 181.355 86.4806C180.496 86.9536 179.745 87.6507 179.1 88.5718C178.456 89.468 178.027 90.5385 177.812 91.7832C177.74 92.2562 177.704 92.7044 177.704 93.1276C177.704 94.6213 178.11 95.8038 178.921 96.6751C179.733 97.5215 180.759 97.9448 182 97.9448C182.93 97.9448 183.837 97.7082 184.72 97.2352C185.603 96.7373 186.355 96.0278 186.975 95.1067C187.619 94.1856 188.049 93.1027 188.264 91.8579Z" fill="#FCFCFC"/>
<path d="M205.328 102.538C203.634 102.538 202.13 102.177 200.818 101.455C199.529 100.733 198.527 99.7123 197.811 98.3929C197.095 97.0734 196.737 95.5548 196.737 93.8371C196.737 91.4969 197.262 89.3684 198.312 87.4515C199.386 85.5097 200.842 83.9787 202.679 82.8584C204.54 81.7381 206.604 81.178 208.871 81.178C210.566 81.178 212.069 81.5514 213.381 82.2982C214.718 83.0202 215.744 84.0409 216.46 85.3603C217.199 86.6798 217.569 88.1984 217.569 89.9161C217.569 92.2811 217.032 94.4221 215.959 96.339C214.885 98.2559 213.405 99.7745 211.52 100.895C209.659 101.99 207.595 102.538 205.328 102.538ZM206.008 98.0568C207.201 98.0568 208.287 97.6958 209.265 96.9738C210.243 96.2519 211.007 95.2934 211.556 94.0985C212.105 92.9035 212.379 91.6463 212.379 90.3269C212.379 88.8332 211.973 87.688 211.162 86.8914C210.375 86.0698 209.372 85.6591 208.155 85.6591C206.938 85.6591 205.853 86.0201 204.898 86.742C203.968 87.464 203.24 88.4349 202.715 89.6547C202.19 90.8497 201.927 92.1193 201.927 93.4637C201.927 94.9325 202.297 96.0652 203.037 96.8618C203.801 97.6585 204.791 98.0568 206.008 98.0568Z" fill="#FCFCFC"/>
<path d="M227.223 85.1736C228.082 83.9289 229.084 82.958 230.229 82.2609C231.375 81.5638 232.616 81.2153 233.952 81.2153L233.021 86.7047H231.697C230.217 86.7047 229.024 87.0407 228.118 87.7129C227.235 88.3851 226.59 89.5302 226.185 91.1484L224.323 102.202H219.276L222.784 81.5141H227.831L227.223 85.1736Z" fill="#FCFCFC"/>
<path d="M241.515 102.538C240.059 102.538 238.735 102.289 237.542 101.791C236.373 101.268 235.442 100.559 234.75 99.6625C234.082 98.7414 233.748 97.6958 233.748 96.5257C233.748 96.3515 233.772 96.0652 233.819 95.6669H238.687C238.616 96.5382 238.866 97.2477 239.439 97.7954C240.012 98.3182 240.823 98.5796 241.873 98.5796C242.827 98.5796 243.615 98.4053 244.235 98.0568C244.88 97.6834 245.202 97.1481 245.202 96.451C245.202 95.8287 244.903 95.3308 244.307 94.9574C243.734 94.5839 242.816 94.1607 241.551 93.6877C240.286 93.2147 239.236 92.7541 238.401 92.306C237.566 91.8579 236.85 91.2356 236.253 90.4389C235.657 89.6423 235.358 88.634 235.358 87.4142C235.358 86.1943 235.693 85.1114 236.361 84.1654C237.053 83.2194 238.007 82.485 239.224 81.9622C240.441 81.4394 241.837 81.178 243.412 81.178C244.915 81.178 246.24 81.4394 247.385 81.9622C248.531 82.485 249.414 83.2194 250.034 84.1654C250.678 85.0865 251 86.1445 251 87.3395C251 87.6382 250.988 87.8623 250.965 88.0116H246.311C246.383 87.1403 246.144 86.4433 245.596 85.9205C245.047 85.3977 244.247 85.1363 243.197 85.1363C242.338 85.1363 241.634 85.3354 241.085 85.7338C240.537 86.1072 240.262 86.6175 240.262 87.2648C240.262 87.9121 240.572 88.4473 241.193 88.8705C241.813 89.2688 242.768 89.717 244.056 90.2149C245.345 90.7377 246.371 91.2231 247.135 91.6712C247.922 92.0944 248.602 92.6919 249.175 93.4637C249.748 94.2105 250.034 95.1565 250.034 96.3017C250.034 97.5713 249.664 98.6792 248.924 99.6252C248.185 100.571 247.17 101.293 245.882 101.791C244.593 102.289 243.138 102.538 241.515 102.538Z" fill="#FCFCFC"/>
<path d="M161.836 115.131H159.086L158.632 116.432H157.178L159.66 109.596H161.272L163.754 116.432H162.291L161.836 115.131ZM161.46 114.036L160.461 111.18L159.462 114.036H161.46Z" fill="#FCFCFC"/>
<path d="M166.067 115.346H168.342V116.432H164.682V109.606H166.067V115.346Z" fill="#FCFCFC"/>
<path d="M178.449 109.606L176.52 116.432H174.889L173.593 111.571L172.238 116.432L170.616 116.442L168.757 109.606H170.24L171.457 114.906L172.861 109.606H174.404L175.729 114.877L176.955 109.606H178.449Z" fill="#FCFCFC"/>
<path d="M183.586 115.131H180.836L180.381 116.432H178.928L181.41 109.596H183.022L185.504 116.432H184.041L183.586 115.131ZM183.21 114.036L182.211 111.18L181.212 114.036H183.21Z" fill="#FCFCFC"/>
<path d="M191.921 109.606L189.587 114.055V116.432H188.203V114.055L185.859 109.606H187.421L188.905 112.725L190.378 109.606H191.921Z" fill="#FCFCFC"/>
<path d="M195.103 116.5C194.622 116.5 194.187 116.419 193.798 116.256C193.415 116.093 193.112 115.858 192.888 115.552C192.664 115.245 192.548 114.883 192.542 114.466H194.025C194.045 114.746 194.144 114.968 194.322 115.131C194.506 115.294 194.757 115.376 195.073 115.376C195.397 115.376 195.65 115.301 195.835 115.151C196.02 114.994 196.112 114.792 196.112 114.544C196.112 114.342 196.049 114.176 195.924 114.046C195.799 113.915 195.64 113.814 195.449 113.742C195.265 113.664 195.008 113.579 194.678 113.488C194.23 113.358 193.864 113.231 193.58 113.107C193.303 112.976 193.063 112.784 192.858 112.53C192.66 112.269 192.561 111.923 192.561 111.493C192.561 111.089 192.664 110.737 192.868 110.437C193.072 110.137 193.359 109.909 193.728 109.752C194.098 109.589 194.52 109.508 194.994 109.508C195.706 109.508 196.283 109.681 196.725 110.026C197.173 110.365 197.421 110.841 197.467 111.454H195.944C195.931 111.219 195.828 111.027 195.637 110.877C195.453 110.72 195.205 110.642 194.895 110.642C194.625 110.642 194.408 110.711 194.243 110.848C194.084 110.985 194.005 111.183 194.005 111.444C194.005 111.627 194.065 111.78 194.183 111.904C194.309 112.021 194.46 112.119 194.638 112.197C194.823 112.269 195.08 112.354 195.41 112.451C195.858 112.582 196.224 112.712 196.507 112.843C196.791 112.973 197.035 113.169 197.239 113.429C197.444 113.69 197.546 114.032 197.546 114.456C197.546 114.821 197.45 115.16 197.259 115.473C197.068 115.786 196.788 116.037 196.418 116.226C196.049 116.409 195.611 116.5 195.103 116.5Z" fill="#FCFCFC"/>
<path d="M210.33 109.606L208.402 116.432H206.77L205.474 111.571L204.119 116.432L202.497 116.442L200.638 109.606H202.122L203.338 114.906L204.742 109.606H206.285L207.61 114.877L208.837 109.606H210.33Z" fill="#FCFCFC"/>
<path d="M212.619 109.606V116.432H211.234V109.606H212.619Z" fill="#FCFCFC"/>
<path d="M218.684 109.606V110.711H216.845V116.432H215.46V110.711H213.621V109.606H218.684Z" fill="#FCFCFC"/>
<path d="M225.421 109.606V116.432H224.036V113.527H221.079V116.432H219.695V109.606H221.079V112.412H224.036V109.606H225.421Z" fill="#FCFCFC"/>
<path d="M234.629 109.606L232.295 114.055V116.432H230.91V114.055L228.567 109.606H230.129L231.613 112.725L233.086 109.606H234.629Z" fill="#FCFCFC"/>
<path d="M238.632 116.5C237.986 116.5 237.392 116.35 236.852 116.05C236.311 115.75 235.883 115.336 235.566 114.808C235.25 114.274 235.091 113.671 235.091 112.999C235.091 112.334 235.25 111.738 235.566 111.209C235.883 110.675 236.311 110.258 236.852 109.958C237.392 109.658 237.986 109.508 238.632 109.508C239.285 109.508 239.878 109.658 240.412 109.958C240.953 110.258 241.378 110.675 241.688 111.209C242.004 111.738 242.163 112.334 242.163 112.999C242.163 113.671 242.004 114.274 241.688 114.808C241.378 115.336 240.953 115.75 240.412 116.05C239.871 116.35 239.278 116.5 238.632 116.5ZM238.632 115.278C239.047 115.278 239.413 115.186 239.73 115.004C240.046 114.815 240.293 114.548 240.471 114.202C240.649 113.856 240.738 113.455 240.738 112.999C240.738 112.543 240.649 112.145 240.471 111.806C240.293 111.46 240.046 111.196 239.73 111.014C239.413 110.831 239.047 110.74 238.632 110.74C238.217 110.74 237.847 110.831 237.524 111.014C237.208 111.196 236.961 111.46 236.782 111.806C236.604 112.145 236.515 112.543 236.515 112.999C236.515 113.455 236.604 113.856 236.782 114.202C236.961 114.548 237.208 114.815 237.524 115.004C237.847 115.186 238.217 115.278 238.632 115.278Z" fill="#FCFCFC"/>
<path d="M244.557 109.606V113.83C244.557 114.293 244.679 114.649 244.923 114.896C245.167 115.138 245.51 115.258 245.952 115.258C246.4 115.258 246.746 115.138 246.99 114.896C247.234 114.649 247.356 114.293 247.356 113.83V109.606H248.751V113.821C248.751 114.401 248.622 114.893 248.365 115.297C248.115 115.695 247.775 115.995 247.346 116.197C246.924 116.399 246.453 116.5 245.932 116.5C245.418 116.5 244.95 116.399 244.528 116.197C244.112 115.995 243.783 115.695 243.539 115.297C243.295 114.893 243.173 114.401 243.173 113.821V109.606H244.557Z" fill="#FCFCFC"/>
<path d="M183.41 44.2754L166.452 62.9217L165.968 44.2754H183.41Z" fill="#FFA700"/>
<defs>
<filter id="filter0_d_4191_36209" x="0" y="0" width="322" height="167" filterUnits="userSpaceOnUse" color-interpolation-filters="sRGB">
<feFlood flood-opacity="0" result="BackgroundImageFix"/>
<feColorMatrix in="SourceAlpha" type="matrix" values="0 0 0 0 0 0 0 0 0 0 0 0 0 0 0 0 0 0 127 0" result="hardAlpha"/>
<feOffset dy="4"/>
<feGaussianBlur stdDeviation="2"/>
<feComposite in2="hardAlpha" operator="out"/>
<feColorMatrix type="matrix" values="0 0 0 0 0 0 0 0 0 0 0 0 0 0 0 0 0 0 0.25 0"/>
<feBlend mode="normal" in2="BackgroundImageFix" result="effect1_dropShadow_4191_36209"/>
<feBlend mode="normal" in="SourceGraphic" in2="effect1_dropShadow_4191_36209" result="shape"/>
</filter>
</defs>
</svg>
