<svg width="322" height="167" viewBox="0 0 322 167" fill="none" xmlns="http://www.w3.org/2000/svg">
<g filter="url(#filter0_d_4191_36122)">
<rect x="4" width="314" height="159" rx="20" fill="#00549A"/>
</g>
<g clip-path="url(#clip0_4191_36122)">
<path d="M136.605 92.5565C133.271 89.5756 132.385 86.2348 134.028 82.3451C134.64 80.9289 135.425 79.579 136.367 78.3204C143.267 68.8957 150.17 59.4725 157.076 50.0508C157.579 49.3264 158.143 48.6389 158.764 47.9946C160.12 46.6628 161.686 46.5615 163.221 47.7066C163.937 48.2608 164.559 48.9073 165.068 49.6256C172.324 59.5242 179.593 69.4048 186.77 79.344C190.107 83.9626 190.024 88.1808 186.77 91.7443C186.488 92.0119 186.184 92.2587 185.859 92.4822C184.543 92.0907 184.198 90.9951 183.582 90.1605C177.234 81.5472 170.906 72.9234 164.598 64.2891C163.73 63.1057 162.945 61.8302 161.197 61.5602C159.482 61.7537 158.792 62.9888 157.987 64.0866C151.602 72.7854 145.218 81.4902 138.834 90.201C138.263 90.9681 137.879 91.8995 136.605 92.5565Z" fill="url(#paint0_linear_4191_36122)" stroke="url(#paint1_linear_4191_36122)" stroke-miterlimit="10"/>
<path d="M216.354 49.6909C216.496 48.7213 215.245 48.2848 215.554 47.3692L227.933 39.9902C228.392 42.1882 228.7 44.4086 228.926 46.6358C229.032 47.7269 229.114 48.818 229.174 49.9113C229.209 50.4536 229.623 51.9766 229.047 52.3613C228.265 52.8855 227.242 52.1363 226.431 52.5367C225.892 52.8022 225.552 53.5244 225.113 54.161C217.551 65.1373 210.637 76.4532 203.545 87.6814C200.622 92.3045 197.72 96.9411 193.91 101.036C190.099 105.13 185.444 107.022 178.942 105.76L195.64 80.7884L212.144 56.098L214.768 52.1745C215.277 51.4141 216.063 50.7258 216.319 49.8439C216.334 49.7934 216.346 49.7424 216.354 49.6909Z" fill="url(#paint2_linear_4191_36122)" stroke="url(#paint3_linear_4191_36122)" stroke-miterlimit="10"/>
<path d="M233.355 47.3232C233.442 46.8733 233.315 46.5898 233.005 46.1984C232.859 46.0139 232.059 45.2737 232.508 44.9993L244.896 37.6113C245.641 41.2311 245.939 44.8891 246.194 48.5605C246.229 49.0397 246.462 49.6854 246.033 49.9846C245.289 50.4998 244.218 49.7597 243.394 50.1579C242.855 50.4233 242.516 51.1455 242.076 51.7821C234.514 62.7584 227.6 74.0743 220.507 85.3025C217.586 89.9256 214.684 94.5622 210.875 98.6566C207.067 102.751 202.407 104.643 195.905 103.381C201.465 95.0541 207.029 86.731 212.598 78.4117L229.097 53.7416L231.475 50.1848C232.067 49.303 233.015 48.5066 233.313 47.4852C233.33 47.4245 233.342 47.3682 233.355 47.3232Z" fill="url(#paint4_linear_4191_36122)" stroke="url(#paint5_linear_4191_36122)" stroke-miterlimit="10"/>
<path d="M179.478 99.3561C173.582 91.7748 168.424 83.9301 162.076 76.0314C161.97 75.9008 161.832 75.7946 161.673 75.7213C161.514 75.6481 161.338 75.6098 161.159 75.6098C160.981 75.6098 160.805 75.6481 160.646 75.7213C160.487 75.7946 160.349 75.9008 160.243 76.0314C153.908 83.9931 148.682 91.822 142.925 99.2772C142.83 99.3983 142.707 99.4992 142.565 99.5732C142.422 99.6472 142.264 99.6924 142.101 99.7059C141.938 99.7193 141.773 99.701 141.618 99.6515C141.464 99.6019 141.323 99.5224 141.205 99.4191C139.045 97.5633 138.514 95.1786 139.559 92.3552C140.167 90.7174 141.222 89.2866 142.267 87.8558L157.783 66.7087C158.573 65.6333 159.273 64.4591 160.894 64.2183C160.987 64.2048 161.082 64.2003 161.177 64.2048C162.493 64.2836 163.314 65.1047 164 66.0316C169.878 74.0247 175.843 81.9684 181.558 90.0672C184.148 93.7342 183.999 96.5149 181.251 99.446C181.137 99.5622 180.997 99.6539 180.84 99.7138C180.682 99.7731 180.511 99.8 180.341 99.7915C180.17 99.7823 180.004 99.7389 179.854 99.6637C179.705 99.5885 179.576 99.4833 179.478 99.3561Z" fill="url(#paint6_linear_4191_36122)" stroke="url(#paint7_linear_4191_36122)" stroke-miterlimit="10"/>
<path d="M130.312 105.788C124.172 106.756 119.14 106.402 115.533 101.912C108.93 93.6782 104.113 84.4725 97.7109 75.6582C101.209 75.3185 104.756 75.4692 108.279 75.4805C108.594 75.4625 108.909 75.4999 109.208 75.5907C109.851 75.8314 110.332 76.9945 110.697 77.5097L112.39 79.9439L115.779 84.8279L122.606 94.6681L130.312 105.788Z" fill="url(#paint8_linear_4191_36122)" stroke="url(#paint9_linear_4191_36122)" stroke-miterlimit="10"/>
<path d="M143.296 105.523C137.174 107.499 131.591 105.672 128.336 101.377C124.466 96.2727 121.328 90.7744 117.815 85.4832C115.717 82.3336 113.654 79.1503 111.36 75.6655C115.355 75.2291 118.964 75.5306 122.793 75.4878L143.296 105.523Z" fill="url(#paint10_linear_4191_36122)" stroke="url(#paint11_linear_4191_36122)" stroke-miterlimit="10"/>
<path d="M127.416 117.837L128.417 113.936C128.667 113.021 128.839 112.16 129.027 111.137H129.058C129.183 112.173 129.355 113.021 129.559 113.936L130.45 117.837H133.031L135.752 108.769H133.328L132.468 112.469C132.249 113.559 132.014 114.622 131.858 115.631H131.826C131.67 114.622 131.498 113.653 131.263 112.59L130.419 108.769H127.885L126.994 112.469C126.728 113.599 126.478 114.689 126.306 115.671H126.274C126.102 114.756 125.883 113.586 125.649 112.496L124.851 108.769H122.302L124.804 117.837H127.416ZM143.004 115.2C143.036 115.052 143.082 114.743 143.082 114.393C143.082 112.765 142.144 111.11 139.673 111.11C137.014 111.11 135.81 112.953 135.81 114.622C135.81 116.68 137.296 117.971 139.892 117.971C140.924 117.971 141.878 117.837 142.66 117.554L142.347 116.169C141.706 116.357 141.049 116.451 140.236 116.451C139.126 116.451 138.14 116.048 138.078 115.2H143.004ZM138.062 113.801C138.125 113.263 138.531 112.469 139.532 112.469C140.627 112.469 140.877 113.303 140.877 113.801H138.062ZM144.511 115.873C144.511 116.613 144.479 117.406 144.448 117.837H146.466L146.559 116.922H146.591C147.123 117.702 147.998 117.985 148.89 117.985C150.641 117.985 152.377 116.801 152.377 114.433C152.393 112.415 151.064 111.11 149.234 111.11C148.17 111.11 147.373 111.474 146.919 112.039H146.888V108.285H144.511V115.873ZM146.888 114.07C146.888 113.936 146.904 113.814 146.935 113.693C147.091 113.101 147.686 112.684 148.327 112.684C149.437 112.684 149.969 113.492 149.969 114.514C149.969 115.698 149.343 116.371 148.327 116.371C147.639 116.371 147.091 115.94 146.935 115.402C146.904 115.294 146.888 115.173 146.888 115.039V114.07ZM153.858 117.837H156.235V113.936C156.235 113.788 156.251 113.613 156.313 113.492C156.485 113.115 156.876 112.765 157.502 112.765C158.393 112.765 158.737 113.357 158.737 114.218V117.837H161.115V114.003C161.115 112.012 159.957 111.11 158.44 111.11C158.002 111.11 157.564 111.205 157.205 111.366C156.829 111.527 156.517 111.756 156.266 112.052H156.235V108.285H153.858V117.837ZM170.232 111.258H167.855V115.173C167.855 115.348 167.823 115.496 167.761 115.617C167.62 115.94 167.229 116.33 166.572 116.33C165.728 116.33 165.368 115.752 165.368 114.797V111.258H162.991V115.119C162.991 117.151 164.117 117.985 165.681 117.985C167.057 117.985 167.776 117.312 168.074 116.909H168.121L168.23 117.837H170.295C170.263 117.285 170.232 116.586 170.232 115.725V111.258ZM172.14 115.873C172.14 116.613 172.109 117.406 172.077 117.837H174.095L174.189 116.922H174.22C174.752 117.702 175.628 117.985 176.519 117.985C178.271 117.985 180.007 116.801 180.007 114.433C180.022 112.415 178.693 111.11 176.863 111.11C175.8 111.11 175.002 111.474 174.549 112.039H174.517V108.285H172.14V115.873ZM174.517 114.07C174.517 113.936 174.533 113.814 174.564 113.693C174.721 113.101 175.315 112.684 175.956 112.684C177.067 112.684 177.598 113.492 177.598 114.514C177.598 115.698 176.973 116.371 175.956 116.371C175.268 116.371 174.721 115.94 174.564 115.402C174.533 115.294 174.517 115.173 174.517 115.039V114.07ZM184.07 117.837H192.25V116.142H187.261V116.088L192.172 109.953V108.769H184.524V110.465H189.091V110.518L184.07 116.734V117.837ZM197.198 111.097C194.727 111.097 193.1 112.456 193.1 114.595C193.1 116.72 194.821 117.985 197.057 117.985C199.106 117.985 201.092 116.882 201.092 114.474C201.092 112.483 199.528 111.097 197.198 111.097ZM197.12 112.563C198.199 112.563 198.637 113.559 198.637 114.527C198.637 115.725 198.058 116.519 197.12 116.519C196.103 116.519 195.556 115.671 195.556 114.541C195.556 113.572 195.994 112.563 197.12 112.563ZM202.564 117.837H204.942V114.043C204.942 113.855 204.957 113.666 205.02 113.532C205.192 113.155 205.583 112.765 206.24 112.765C207.1 112.765 207.444 113.344 207.444 114.191V117.837H209.821V113.949C209.821 112.012 208.648 111.11 207.084 111.11C205.802 111.11 205.036 111.743 204.723 112.173H204.676L204.566 111.258H202.502C202.533 111.85 202.564 112.536 202.564 113.357V117.837ZM218.484 115.2C218.516 115.052 218.563 114.743 218.563 114.393C218.563 112.765 217.624 111.11 215.153 111.11C212.494 111.11 211.29 112.953 211.29 114.622C211.29 116.68 212.776 117.971 215.372 117.971C216.404 117.971 217.358 117.837 218.14 117.554L217.827 116.169C217.186 116.357 216.529 116.451 215.716 116.451C214.606 116.451 213.62 116.048 213.558 115.2H218.484ZM213.542 113.801C213.605 113.263 214.011 112.469 215.012 112.469C216.107 112.469 216.357 113.303 216.357 113.801H213.542Z" fill="white"/>
<path d="M160.961 87.5586C161.067 87.5739 161.174 87.5791 161.282 87.5743C162.496 87.5997 163.687 87.885 164.757 88.4067C165.055 88.5694 165.316 88.7816 165.527 89.0321C165.881 89.382 166.141 89.8017 166.286 90.2582C166.354 90.4776 166.373 90.7071 166.341 90.9331C166.337 90.9521 166.332 90.9709 166.326 90.9894C166.254 90.9307 166.188 90.8667 166.127 90.7981C166.117 90.783 166.101 90.7721 166.082 90.7675C166.063 90.7629 166.043 90.765 166.026 90.7734C165.609 90.9234 165.184 91.0568 164.752 91.1738C164.635 91.2053 164.633 91.2211 164.678 91.3245C164.938 91.9074 165.141 92.5096 165.286 93.1243C165.3 93.1626 165.303 93.2037 165.294 93.2433C165.285 93.2829 165.264 93.3194 165.234 93.3493C165.048 93.5521 164.849 93.7444 164.638 93.9252C164.596 93.6102 164.554 93.3088 164.486 93.0095C164.372 92.4854 164.21 91.9707 164.002 91.4708C163.955 91.3628 163.94 91.3516 163.816 91.3695C163.431 91.4191 163.049 91.473 162.662 91.5045C162.275 91.536 161.813 91.5675 161.386 91.581C161.257 91.581 161.257 91.581 161.257 91.7025C161.257 92.5282 161.257 93.3538 161.257 94.1772C161.257 94.2941 161.257 94.4134 161.274 94.5326C161.279 94.5493 161.278 94.5672 161.269 94.583C161.261 94.5987 161.247 94.6111 161.229 94.6181C160.817 94.8228 160.388 95.0006 159.963 95.185C159.93 95.1972 159.894 95.2018 159.859 95.1985H157.357C157.27 95.1985 157.257 95.221 157.262 95.2952C157.285 95.6237 157.339 95.9499 157.386 96.2761C157.392 96.2955 157.389 96.3159 157.379 96.3336C157.369 96.3514 157.352 96.3653 157.332 96.3728C157.138 96.4583 156.947 96.5438 156.751 96.6226C156.691 96.6473 156.671 96.6226 156.662 96.5776C156.602 96.2559 156.55 95.9319 156.517 95.6057C156.505 95.491 156.49 95.3807 156.48 95.2592C156.48 95.2097 156.451 95.1985 156.398 95.1985C155.677 95.1985 154.954 95.1985 154.231 95.1985C154.169 95.1985 154.147 95.212 154.152 95.2705C154.177 95.686 154.252 96.0978 154.375 96.4988C154.512 96.9585 154.707 97.4023 154.956 97.8216C154.976 97.8554 155.023 97.9004 154.993 97.9319C154.963 97.9634 154.904 97.9319 154.867 97.9071C154.465 97.7445 154.098 97.5199 153.782 97.2435C153.576 97.0657 153.377 96.8813 153.176 96.7013C153.149 96.6798 153.131 96.6503 153.126 96.6181C153.021 96.2216 152.954 95.8172 152.928 95.41C152.93 95.3838 152.93 95.3574 152.928 95.3313V94.6001C152.93 94.5604 152.93 94.5206 152.928 94.4808C152.941 94.0257 153.008 93.573 153.129 93.131C153.534 91.6583 154.433 90.3354 155.701 89.3438C156.969 88.3521 158.545 87.7403 160.212 87.5923C160.366 87.5912 160.52 87.5822 160.673 87.5653L160.961 87.5586ZM158.908 94.5866H160.485C160.544 94.5866 160.569 94.5866 160.569 94.5168C160.569 93.563 160.569 92.6076 160.569 91.6508C160.569 91.608 160.569 91.5878 160.505 91.5832C160.187 91.563 159.869 91.5405 159.551 91.5135C159.055 91.4708 158.558 91.4123 158.062 91.329C158.046 91.3239 158.029 91.322 158.012 91.3234C157.996 91.3248 157.979 91.3295 157.965 91.3373C157.95 91.345 157.938 91.3555 157.929 91.3681C157.919 91.3807 157.913 91.395 157.91 91.41C157.843 91.581 157.771 91.7498 157.712 91.9229C157.431 92.7644 157.275 93.6359 157.247 94.5146C157.247 94.5821 157.272 94.5866 157.334 94.5866H158.908ZM155.309 94.5866C155.666 94.5866 156.026 94.5866 156.383 94.5866C156.453 94.5866 156.475 94.5663 156.48 94.5056C156.505 94.2334 156.535 93.9634 156.567 93.6912C156.623 93.213 156.725 92.7403 156.873 92.2784C156.989 91.9229 157.121 91.572 157.267 91.2278C157.267 91.2008 157.309 91.176 157.242 91.1603C156.802 91.0632 156.374 90.9268 155.964 90.7531C155.897 90.7262 155.867 90.7531 155.83 90.7891C155.136 91.5044 154.635 92.3563 154.368 93.2773C154.245 93.6727 154.173 94.0796 154.152 94.4899C154.152 94.5731 154.179 94.5866 154.261 94.5866C154.611 94.5844 154.958 94.5866 155.309 94.5866ZM160.567 89.8803C160.567 89.5406 160.567 89.2053 160.567 88.8589C160.567 88.6857 160.567 88.6834 160.37 88.6947C160.151 88.6951 159.939 88.7679 159.775 88.8994C159.199 89.4002 158.711 89.9784 158.33 90.6136C158.27 90.7126 158.275 90.7194 158.399 90.7396C159.094 90.8453 159.797 90.9218 160.502 90.9646C160.564 90.9646 160.577 90.9511 160.577 90.8993C160.567 90.5619 160.567 90.2222 160.567 89.8803ZM163.615 90.7194C163.501 90.5439 163.389 90.3819 163.27 90.2245C162.891 89.7074 162.438 89.2384 161.922 88.8296C161.839 88.7589 161.733 88.7161 161.619 88.7082C161.537 88.7082 161.458 88.6901 161.371 88.6834C161.252 88.6699 161.252 88.6834 161.252 88.7756C161.252 89.482 161.252 90.1885 161.252 90.8949C161.252 90.9601 161.269 90.9691 161.336 90.9646C161.815 90.9308 162.294 90.8926 162.771 90.8364C163.052 90.8049 163.332 90.7779 163.615 90.7194ZM163.054 88.9916C163.084 89.0276 163.111 89.0658 163.143 89.0996C163.563 89.5394 163.93 90.0183 164.238 90.5282C164.244 90.5417 164.252 90.5542 164.263 90.5648C164.274 90.5755 164.287 90.5841 164.301 90.5902C164.316 90.5962 164.332 90.5996 164.348 90.6002C164.364 90.6007 164.38 90.5984 164.395 90.5934C164.73 90.5261 165.062 90.4428 165.388 90.3437C165.581 90.2875 165.581 90.2829 165.425 90.1614C164.964 89.8092 164.455 89.5121 163.911 89.2773C163.637 89.1556 163.35 89.0598 163.054 88.9916ZM158.705 89.0321L158.608 89.0591C158.144 89.2159 157.7 89.4181 157.285 89.662C157.009 89.8232 156.744 89.9998 156.493 90.1907C156.401 90.2627 156.408 90.3032 156.522 90.3347C156.843 90.4282 157.169 90.507 157.498 90.5709C157.514 90.5758 157.53 90.578 157.546 90.5772C157.563 90.5763 157.579 90.5725 157.594 90.5661C157.608 90.5596 157.622 90.5505 157.632 90.5394C157.643 90.5282 157.652 90.5152 157.657 90.5012C157.925 90.0477 158.235 89.6157 158.583 89.2099C158.635 89.1579 158.676 89.0976 158.705 89.0321Z" fill="url(#paint12_linear_4191_36122)" stroke="url(#paint13_linear_4191_36122)" stroke-miterlimit="10"/>
<path d="M160.926 102.216C160.74 102.187 160.551 102.2 160.363 102.187C159.697 102.141 159.04 102.02 158.406 101.827C157.407 101.517 156.481 101.039 155.676 100.419C155.641 100.394 155.611 100.367 155.562 100.324C155.704 100.344 155.845 100.37 155.984 100.403C156.355 100.461 156.733 100.472 157.108 100.437C157.303 100.419 157.497 100.392 157.689 100.354C157.707 100.351 157.725 100.352 157.742 100.356C157.759 100.36 157.775 100.368 157.788 100.378C158.044 100.5 158.309 100.607 158.58 100.698C158.617 100.715 158.658 100.724 158.699 100.722C158.615 100.587 158.522 100.458 158.419 100.334C158.33 100.216 158.33 100.219 158.474 100.167C158.618 100.115 158.779 100.061 158.93 100.003C158.942 99.9966 158.955 99.9935 158.968 99.9917C158.981 99.9905 158.995 99.9917 159.008 99.9954C159.02 99.999 159.032 100.005 159.042 100.013C159.052 100.02 159.061 100.03 159.067 100.041C159.186 100.181 159.303 100.32 159.424 100.457C159.56 100.614 159.704 100.764 159.856 100.907C159.927 100.977 160.023 101.023 160.127 101.036C160.254 101.051 160.375 101.06 160.509 101.076C160.556 101.076 160.566 101.076 160.564 101.029C160.564 100.918 160.564 100.804 160.564 100.696C160.564 100.664 160.564 100.608 160.633 100.648C160.703 100.689 160.685 100.626 160.693 100.601C160.765 100.358 160.837 100.115 160.904 99.8725C161.041 99.3863 161.179 98.9002 161.314 98.4122C161.315 98.3999 161.319 98.3877 161.325 98.3767C161.332 98.3657 161.341 98.3565 161.351 98.3486C161.362 98.3406 161.374 98.3351 161.387 98.3315C161.4 98.3284 161.414 98.3272 161.428 98.329C161.677 98.3253 161.926 98.3376 162.173 98.3651C162.604 98.4054 163.036 98.455 163.466 98.5222L163.625 98.5449C163.761 98.5675 163.771 98.5651 163.831 98.4507C164.036 98.0395 164.202 97.6135 164.327 97.1771C164.481 96.6692 164.581 96.1496 164.628 95.6248C164.628 95.5146 164.64 95.3998 164.65 95.2919C164.65 95.2266 164.65 95.2064 164.558 95.2064C164.017 95.2064 163.474 95.2064 162.93 95.2064C162.731 95.2064 162.535 95.2064 162.339 95.1929C162.22 95.1929 162.212 95.1794 162.24 95.0782C162.274 94.9409 162.317 94.8059 162.346 94.6687C162.361 94.6102 162.391 94.599 162.451 94.599H163.866C164.114 94.599 164.342 94.599 164.581 94.599C164.645 94.599 164.66 94.5832 164.655 94.5269C164.633 94.356 164.638 94.3492 164.829 94.3313C165.02 94.3132 165.186 94.3088 165.363 94.2975C165.405 94.2975 165.42 94.2975 165.425 94.3447C165.43 94.392 165.452 94.4617 165.452 94.5202C165.452 94.5787 165.492 94.599 165.559 94.599H167.691C167.763 94.599 167.791 94.5855 167.786 94.5157C167.764 94.1728 167.713 93.8321 167.632 93.4966C167.621 93.4655 167.621 93.4322 167.631 93.401C167.641 93.3697 167.661 93.342 167.689 93.3211C167.957 93.0962 168.213 92.8329 168.496 92.6058L168.528 92.5787C168.604 92.527 168.617 92.527 168.642 92.608C168.803 93.069 168.914 93.5428 168.975 94.0231C168.99 94.1872 169.005 94.3515 169.01 94.5157C169.012 94.5453 169.017 94.5746 169.025 94.6034V95.3009C169.025 95.3301 169.025 95.3593 169.01 95.3886C168.979 95.9038 168.883 96.4141 168.724 96.9094C168.248 98.3932 167.268 99.7037 165.924 100.655C164.579 101.605 162.938 102.148 161.234 102.205C161.13 102.202 161.027 102.208 160.924 102.221L160.926 102.216ZM166.651 95.2154H165.72C165.472 95.2154 165.472 95.2154 165.472 95.4404C165.425 96.1262 165.294 96.8052 165.082 97.4651C164.953 97.87 164.777 98.2617 164.615 98.6549C164.566 98.7809 164.553 98.7607 164.697 98.8011C165.076 98.9136 165.452 99.0359 165.824 99.168C165.852 99.1815 165.884 99.1851 165.915 99.1784C165.945 99.1711 165.971 99.1539 165.988 99.1301C166.786 98.3486 167.351 97.3963 167.632 96.3627C167.734 96.0117 167.795 95.6521 167.815 95.2896C167.815 95.2334 167.8 95.2176 167.736 95.2176L166.651 95.2154ZM161.259 100.027C161.259 100.363 161.259 100.702 161.259 101.033C161.259 101.085 161.276 101.099 161.331 101.094C161.49 101.076 161.651 101.062 161.81 101.047C161.922 101.042 162.028 100.998 162.106 100.925C162.608 100.421 163.046 99.867 163.411 99.2738C163.451 99.2084 163.431 99.1931 163.362 99.1815C163.079 99.1344 162.798 99.0891 162.513 99.0555C162.125 99.0108 161.738 98.9748 161.348 98.9497C161.274 98.9497 161.259 98.968 161.259 99.0286C161.261 99.3545 161.259 99.6878 161.259 100.02V100.027ZM165.365 99.6517C165.01 99.5245 164.645 99.4218 164.273 99.346C164.255 99.3417 164.237 99.3435 164.221 99.3515C164.205 99.3594 164.194 99.3729 164.188 99.3888C163.944 99.7966 163.673 100.191 163.377 100.57C163.339 100.617 163.307 100.664 163.272 100.714C164.035 100.475 164.744 100.113 165.365 99.645V99.6517Z" fill="url(#paint14_linear_4191_36122)" stroke="url(#paint15_linear_4191_36122)" stroke-miterlimit="10"/>
<path d="M153.506 97.6376C153.659 97.7727 153.825 97.8948 154.002 98.002C154.426 98.2616 154.906 98.4365 155.41 98.5148C155.853 98.5906 156.312 98.5356 156.718 98.3576C156.89 98.2744 157.038 98.1558 157.15 98.011C157.192 97.9615 157.195 97.9255 157.123 97.885C156.837 97.7141 156.537 97.5633 156.244 97.4013L156.204 97.3788C156.326 97.3226 156.44 97.2686 156.557 97.2191L161.122 95.1831L161.686 94.9379C161.708 94.9379 161.733 94.902 161.76 94.9222C161.788 94.9424 161.76 94.9671 161.76 94.9896C161.631 95.4644 161.512 95.9368 161.371 96.4115L160.581 99.2125C160.522 99.4241 160.457 99.6351 160.402 99.8466C160.383 99.9188 160.358 99.9322 160.286 99.8919C159.993 99.7341 159.71 99.5635 159.427 99.3923C159.398 99.3703 159.363 99.3568 159.325 99.3538C159.288 99.3513 159.25 99.3593 159.218 99.3764C158.747 99.6002 158.247 99.7677 157.729 99.876C157.154 100.007 156.554 100.025 155.971 99.928C155.4 99.8093 154.877 99.5501 154.459 99.1789C153.994 98.7924 153.665 98.2897 153.513 97.7343C153.512 97.7163 153.512 97.6983 153.513 97.6803C153.509 97.6663 153.507 97.652 153.506 97.6376Z" fill="url(#paint16_linear_4191_36122)" stroke="url(#paint17_linear_4191_36122)" stroke-miterlimit="10"/>
<path d="M165.517 93.8072C165.533 93.7595 165.563 93.7167 165.603 93.6834C166.243 93.0051 166.655 92.1741 166.788 91.2898C166.877 90.8407 166.852 90.3791 166.716 89.9399C166.621 89.6423 166.443 89.3719 166.199 89.1548C166.155 89.1166 166.115 89.0738 166.055 89.0176C166.153 89.0464 166.247 89.0849 166.336 89.1323C166.896 89.3605 167.381 89.7181 167.741 90.1694C168.12 90.663 168.343 91.2409 168.386 91.8409C168.396 91.9137 168.385 91.9874 168.356 92.0556C168.326 92.1238 168.279 92.1845 168.218 92.2323C167.866 92.5786 167.477 92.8922 167.056 93.1683C166.625 93.4356 166.153 93.6448 165.656 93.7891C165.612 93.8072 165.564 93.8134 165.517 93.8072Z" fill="url(#paint18_linear_4191_36122)" stroke="url(#paint19_linear_4191_36122)" stroke-miterlimit="10"/>
</g>
<defs>
<filter id="filter0_d_4191_36122" x="0" y="0" width="322" height="167" filterUnits="userSpaceOnUse" color-interpolation-filters="sRGB">
<feFlood flood-opacity="0" result="BackgroundImageFix"/>
<feColorMatrix in="SourceAlpha" type="matrix" values="0 0 0 0 0 0 0 0 0 0 0 0 0 0 0 0 0 0 127 0" result="hardAlpha"/>
<feOffset dy="4"/>
<feGaussianBlur stdDeviation="2"/>
<feComposite in2="hardAlpha" operator="out"/>
<feColorMatrix type="matrix" values="0 0 0 0 0 0 0 0 0 0 0 0 0 0 0 0 0 0 0.25 0"/>
<feBlend mode="normal" in2="BackgroundImageFix" result="effect1_dropShadow_4191_36122"/>
<feBlend mode="normal" in="SourceGraphic" in2="effect1_dropShadow_4191_36122" result="shape"/>
</filter>
<linearGradient id="paint0_linear_4191_36122" x1="161.227" y1="92.5565" x2="161.227" y2="46.9147" gradientUnits="userSpaceOnUse">
<stop stop-color="white"/>
<stop offset="1" stop-color="#D9D9D9"/>
</linearGradient>
<linearGradient id="paint1_linear_4191_36122" x1="133.1" y1="69.7491" x2="189.355" y2="69.7491" gradientUnits="userSpaceOnUse">
<stop stop-color="white"/>
<stop offset="1" stop-color="#D9D9D9"/>
</linearGradient>
<linearGradient id="paint2_linear_4191_36122" x1="178.942" y1="73.063" x2="229.35" y2="73.063" gradientUnits="userSpaceOnUse">
<stop stop-color="white"/>
<stop offset="1" stop-color="#D9D9D9"/>
</linearGradient>
<linearGradient id="paint3_linear_4191_36122" x1="229.475" y1="73.027" x2="178.746" y2="73.027" gradientUnits="userSpaceOnUse">
<stop stop-color="white"/>
<stop offset="1" stop-color="#D9D9D9"/>
</linearGradient>
<linearGradient id="paint4_linear_4191_36122" x1="195.905" y1="70.684" x2="246.289" y2="70.684" gradientUnits="userSpaceOnUse">
<stop stop-color="white"/>
<stop offset="1" stop-color="#D9D9D9"/>
</linearGradient>
<linearGradient id="paint5_linear_4191_36122" x1="246.413" y1="70.648" x2="195.709" y2="70.648" gradientUnits="userSpaceOnUse">
<stop stop-color="white"/>
<stop offset="1" stop-color="#D9D9D9"/>
</linearGradient>
<linearGradient id="paint6_linear_4191_36122" x1="161.227" y1="99.7927" x2="161.227" y2="64.1981" gradientUnits="userSpaceOnUse">
<stop stop-color="white"/>
<stop offset="1" stop-color="#D9D9D9"/>
</linearGradient>
<linearGradient id="paint7_linear_4191_36122" x1="138.921" y1="81.9954" x2="183.535" y2="81.9954" gradientUnits="userSpaceOnUse">
<stop stop-color="white"/>
<stop offset="1" stop-color="#D9D9D9"/>
</linearGradient>
<linearGradient id="paint8_linear_4191_36122" x1="130.312" y1="90.8324" x2="97.7109" y2="90.8324" gradientUnits="userSpaceOnUse">
<stop stop-color="white"/>
<stop offset="1" stop-color="#D9D9D9"/>
</linearGradient>
<linearGradient id="paint9_linear_4191_36122" x1="97.495" y1="90.8324" x2="130.515" y2="90.8324" gradientUnits="userSpaceOnUse">
<stop stop-color="white"/>
<stop offset="1" stop-color="#D9D9D9"/>
</linearGradient>
<linearGradient id="paint10_linear_4191_36122" x1="143.296" y1="90.8712" x2="111.365" y2="90.8712" gradientUnits="userSpaceOnUse">
<stop stop-color="white"/>
<stop offset="1" stop-color="#D9D9D9"/>
</linearGradient>
<linearGradient id="paint11_linear_4191_36122" x1="111.162" y1="90.8712" x2="143.482" y2="90.8712" gradientUnits="userSpaceOnUse">
<stop stop-color="white"/>
<stop offset="1" stop-color="#D9D9D9"/>
</linearGradient>
<linearGradient id="paint12_linear_4191_36122" x1="152.915" y1="92.7553" x2="166.361" y2="92.7553" gradientUnits="userSpaceOnUse">
<stop stop-color="white"/>
<stop offset="1" stop-color="#D9D9D9"/>
</linearGradient>
<linearGradient id="paint13_linear_4191_36122" x1="152.791" y1="92.7553" x2="166.485" y2="92.7553" gradientUnits="userSpaceOnUse">
<stop stop-color="white"/>
<stop offset="1" stop-color="#D9D9D9"/>
</linearGradient>
<linearGradient id="paint14_linear_4191_36122" x1="155.564" y1="97.3706" x2="169.045" y2="97.3706" gradientUnits="userSpaceOnUse">
<stop stop-color="white"/>
<stop offset="1" stop-color="#D9D9D9"/>
</linearGradient>
<linearGradient id="paint15_linear_4191_36122" x1="155.221" y1="97.3706" x2="169.168" y2="97.3706" gradientUnits="userSpaceOnUse">
<stop stop-color="white"/>
<stop offset="1" stop-color="#D9D9D9"/>
</linearGradient>
<linearGradient id="paint16_linear_4191_36122" x1="153.503" y1="97.4531" x2="161.778" y2="97.4531" gradientUnits="userSpaceOnUse">
<stop stop-color="white"/>
<stop offset="1" stop-color="#D9D9D9"/>
</linearGradient>
<linearGradient id="paint17_linear_4191_36122" x1="153.379" y1="97.4531" x2="161.902" y2="97.4531" gradientUnits="userSpaceOnUse">
<stop stop-color="white"/>
<stop offset="1" stop-color="#D9D9D9"/>
</linearGradient>
<linearGradient id="paint18_linear_4191_36122" x1="165.517" y1="91.4112" x2="168.389" y2="91.4112" gradientUnits="userSpaceOnUse">
<stop stop-color="white"/>
<stop offset="1" stop-color="#D9D9D9"/>
</linearGradient>
<linearGradient id="paint19_linear_4191_36122" x1="165.368" y1="91.3572" x2="168.513" y2="91.3572" gradientUnits="userSpaceOnUse">
<stop stop-color="white"/>
<stop offset="1" stop-color="#D9D9D9"/>
</linearGradient>
<clipPath id="clip0_4191_36122">
<rect width="150" height="85" fill="white" transform="translate(97 37)"/>
</clipPath>
</defs>
</svg>
