<svg width="40" height="40" viewBox="0 0 40 40" fill="none" xmlns="http://www.w3.org/2000/svg">
<circle cx="20" cy="20" r="19.5" stroke="white"/>
<path d="M21.7646 33H17.7611C17.0924 33 16.5484 32.456 16.5484 31.7873V22.7572H14.2127C13.544 22.7572 13 22.213 13 21.5445V17.675C13 17.0063 13.544 16.4623 14.2127 16.4623H16.5484V14.5247C16.5484 12.6034 17.1517 10.9688 18.2929 9.79787C19.4392 8.6216 21.0412 8 22.9257 8L25.9789 8.00496C26.6465 8.0061 27.1895 8.55008 27.1895 9.21765V12.8103C27.1895 13.479 26.6457 14.023 25.9772 14.023L23.9215 14.0238C23.2945 14.0238 23.1349 14.1495 23.1007 14.188C23.0445 14.2519 22.9775 14.4325 22.9775 14.9313V16.4621H25.8227C26.0369 16.4621 26.2444 16.515 26.4228 16.6145C26.8075 16.8295 27.0467 17.236 27.0467 17.6752L27.0451 21.5447C27.0451 22.213 26.5012 22.757 25.8325 22.757H22.9775V31.7873C22.9775 32.456 22.4334 33 21.7646 33ZM18.014 31.5344H21.5117V22.101C21.5117 21.6545 21.8751 21.2914 22.3214 21.2914H25.5795L25.5809 17.9279H22.3212C21.8749 17.9279 21.5117 17.5648 21.5117 17.1183V14.9313C21.5117 14.3587 21.5699 13.7076 22.0021 13.2181C22.5243 12.6265 23.3474 12.5582 23.9211 12.5582L25.7239 12.5574V9.47018L22.9245 9.46561C19.896 9.46561 18.014 11.4042 18.014 14.5247V17.1183C18.014 17.5646 17.6509 17.9279 17.2046 17.9279H14.4656V21.2914H17.2046C17.6509 21.2914 18.014 21.6545 18.014 22.101V31.5344ZM25.9761 9.47057H25.9763H25.9761Z" fill="white"/>
</svg>
