<svg width="40" height="40" viewBox="0 0 40 40" fill="none" xmlns="http://www.w3.org/2000/svg">
<circle cx="20" cy="20" r="19.5" stroke="white"/>
<path d="M11.1576 9C10.3 9 9.52034 9.31188 8.93559 9.89662C8.31188 10.5203 8 11.3 8 12.1186C8 12.9762 8.35085 13.7559 8.93559 14.3406C9.52034 14.9254 10.339 15.2762 11.1187 15.2373C11.1187 15.2373 11.1576 15.2373 11.1966 15.2373C11.9763 15.2373 12.717 14.9254 13.3017 14.3406C13.8865 13.7559 14.2373 12.9762 14.2373 12.1186C14.2763 11.3 13.9254 10.5203 13.3407 9.93555C12.7559 9.31183 11.9763 9 11.1576 9ZM12.7559 13.7949C12.3271 14.2237 11.7424 14.4966 11.1187 14.4576C10.5339 14.4576 9.9102 14.2237 9.48137 13.7949C9.01357 13.3661 8.77968 12.7424 8.77968 12.1187C8.77968 11.4949 9.01357 10.9102 9.48137 10.4424C9.9102 10.0136 10.4949 9.77968 11.1576 9.77968C11.7424 9.77968 12.3271 10.0136 12.7559 10.4424C13.2237 10.9102 13.4576 11.4949 13.4576 12.1187C13.4576 12.7424 13.2237 13.3661 12.7559 13.7949Z" fill="white"/>
<path d="M12.678 16.0171H9.52042C8.8967 16.0171 8.38989 16.5239 8.38989 17.1866V30.8307C8.38989 31.4544 8.93567 32.0001 9.55938 32.0001H12.678C13.3018 32.0001 13.8475 31.4544 13.8475 30.8696V17.1866C13.8475 16.5628 13.3018 16.0171 12.678 16.0171ZM13.0679 30.8696C13.0679 31.0646 12.8729 31.2205 12.678 31.2205H9.55938C9.36445 31.2205 9.16957 31.0255 9.16957 30.8307V17.1866C9.16957 16.9916 9.32549 16.7968 9.52042 16.7968H12.678C12.873 16.7968 13.0679 16.9917 13.0679 17.1866V30.8696Z" fill="white"/>
<path d="M25.9323 15.627H25.1136C23.5933 15.627 22.1509 16.2897 21.2153 17.3422V16.7964C21.2153 16.4066 20.8255 16.0168 20.4357 16.0168H16.5374C16.1865 16.0168 15.7577 16.3286 15.7577 16.7574V31.2981C15.7577 31.7269 16.1865 31.9998 16.5374 31.9998H20.8255C21.1764 31.9998 21.6052 31.7269 21.6052 31.2981V22.8778C21.6052 21.5913 22.5408 20.5777 23.7492 20.5777C24.373 20.5777 24.9577 20.8116 25.3865 21.2405C25.7763 21.5913 25.9323 22.1371 25.9323 22.8388V31.2201C25.9323 31.61 26.3221 31.9998 26.712 31.9998H30.6103C31.0001 31.9998 31.3899 31.61 31.3899 31.2201V21.1625C31.3899 18.0439 29.0119 15.627 25.9323 15.627ZM30.6102 31.1812L30.5713 31.2201H26.7509L26.7119 22.8388C26.7119 21.9032 26.478 21.2015 25.9713 20.6948C25.3865 20.11 24.6069 19.7982 23.7882 19.7982C22.1509 19.8371 20.8645 21.1626 20.8645 22.8778V31.2201H16.5763V16.7964H20.4357L20.4746 16.8354V19.2913L21.5272 18.2388L21.5661 18.1998C22.3458 17.1083 23.7102 16.4066 25.1526 16.4066H25.9712C28.5831 16.4066 30.6102 18.5117 30.6102 21.1626V31.1812Z" fill="white"/>
</svg>
