<svg width="176" height="60" viewBox="0 0 176 60" fill="none" xmlns="http://www.w3.org/2000/svg">
<g clip-path="url(#clip0_3260_32586)">
<path d="M14.2066 11.7548C11.8989 14.1902 7.25955 20.7495 11.8028 29.3708L6.61052 25.6528L6.4102 22.8115C7.48075 18.2343 10.2798 14.2647 14.2066 11.7548Z" fill="url(#paint0_linear_3260_32586)"/>
<path d="M21.9149 38.7958C22.1732 37.6736 22.6836 36.6269 23.4062 35.7371C24.1289 34.8472 25.0443 34.1383 26.0815 33.6653L34.2545 29.4033C33.1087 31.8387 31.5221 37.0261 28.293 37.0261H24.7834C25.1465 37.811 25.3041 38.6773 25.241 39.5418C25.1778 40.4062 24.8961 41.2397 24.4229 41.9618L22.9405 44.519L21.3379 47.3197C20.5367 48.6429 19.9998 49.9012 18.4534 49.9012V48.0016C18.8079 48.0006 19.156 47.9055 19.463 47.7256C19.703 47.5788 19.9076 47.3794 20.0615 47.142C20.2154 46.9045 20.3148 46.6352 20.3524 46.3537L20.4726 45.4607C20.8283 43.2025 21.3099 40.9665 21.9149 38.7634V38.7958Z" fill="url(#paint1_linear_3260_32586)"/>
<path d="M21.9149 38.7958C22.1732 37.6736 22.6836 36.6269 23.4062 35.7371C24.1289 34.8472 25.0443 34.1383 26.0815 33.6653L34.2545 29.4033C28.886 33.8114 23.9581 34.3878 22.7963 39.705C22.4758 40.7685 22.2274 41.8725 21.995 42.9522C21.7065 44.3404 21.4581 45.7367 21.1937 47.133C21.1937 47.2629 21.1937 47.3846 21.1536 47.5064C20.4405 48.7566 19.8556 49.885 18.3893 49.885V48.0016C18.7438 48.0006 19.0919 47.9055 19.3989 47.7256C19.6389 47.5788 19.8434 47.3794 19.9974 47.142C20.1513 46.9045 20.2507 46.6352 20.2883 46.3537L20.4726 45.4607C20.8283 43.2025 21.3099 40.9665 21.9149 38.7634V38.7958Z" fill="#232463"/>
<path d="M10.2563 25.2307C10.6085 26.6761 11.1473 28.0682 11.8589 29.3708L7.00315 25.9775C6.8509 25.6934 6.70667 25.4174 6.57046 25.1657L6.4102 22.8115C6.94801 20.5002 7.93399 18.3202 9.31082 16.3983C9.1355 17.5801 9.07913 18.7769 9.14255 19.9702C9.23962 21.7712 9.61267 23.5459 10.2483 25.2307H10.2563Z" fill="#232463"/>
<path d="M14.9438 38.7958C14.6854 37.6736 14.1751 36.6269 13.4524 35.7371C12.7298 34.8472 11.8143 34.1383 10.7771 33.6653L2.60414 29.4033C3.74195 31.8387 5.33649 37.0261 8.56563 37.0261H12.0752C11.7121 37.811 11.5545 38.6773 11.6177 39.5418C11.6808 40.4062 11.9626 41.2397 12.4358 41.9618L13.9181 44.519L15.5207 47.3197C16.322 48.6429 16.8508 49.9012 18.4053 49.9012V48.0016C18.0507 48.0006 17.7026 47.9055 17.3957 47.7256C17.1556 47.5788 16.9511 47.3794 16.7972 47.142C16.6432 46.9045 16.5438 46.6352 16.5063 46.3537L16.3861 45.4607C16.0303 43.2025 15.5488 40.9665 14.9438 38.7634V38.7958Z" fill="url(#paint2_linear_3260_32586)"/>
<path d="M14.9438 38.7958C14.6854 37.6736 14.1751 36.6269 13.4524 35.7371C12.7298 34.8472 11.8143 34.1383 10.7771 33.6653L2.60414 29.4033C7.97268 33.8114 12.9005 34.3878 14.0624 39.705C14.3829 40.7685 14.6313 41.8725 14.8636 42.9522C15.1521 44.3404 15.4005 45.7367 15.6649 47.133C15.6649 47.2629 15.6649 47.3846 15.705 47.5064C16.4181 48.7566 16.995 49.885 18.4694 49.885V48.0016C18.1148 48.0006 17.7667 47.9055 17.4598 47.7256C17.2197 47.5788 17.0152 47.3794 16.8613 47.142C16.7073 46.9045 16.6079 46.6352 16.5704 46.3537L16.3861 45.4607C16.0303 43.2025 15.5488 40.9665 14.9438 38.7634V38.7958Z" fill="#232463"/>
<path d="M18.4293 48.5618V48.0016C18.0748 48.0007 17.7266 47.9055 17.4197 47.7256C17.1796 47.5789 16.9751 47.3794 16.8212 47.142C16.6673 46.9046 16.5679 46.6352 16.5303 46.3537L16.3861 45.4607C16.2659 44.7707 16.1457 44.1212 16.0335 43.5205C16.1216 44.4054 16.3781 46.9138 16.3781 46.9138C16.4603 47.394 16.7157 47.8261 17.0948 48.1262C17.4739 48.4262 17.9495 48.5728 18.4293 48.5374V48.5618Z" fill="#232463"/>
<path d="M13.9181 44.519L11.4743 48.9839C10.9635 49.8697 10.7706 50.9072 10.9283 51.9206C11.086 52.934 11.5846 53.861 12.3396 54.5447L18.4293 60L24.519 54.5447C25.274 53.861 25.7726 52.934 25.9303 51.9206C26.088 50.9072 25.8952 49.8697 25.3844 48.9839L22.9405 44.519L21.338 47.3197C20.5367 48.6429 19.9998 49.9012 18.4534 49.9012C16.9069 49.9012 16.338 48.6429 15.5688 47.3197L13.9662 44.519H13.9181Z" fill="url(#paint3_linear_3260_32586)"/>
<path d="M18.4293 60L24.519 54.5447C25.274 53.861 25.7726 52.934 25.9303 51.9206C26.088 50.9072 25.8951 49.8697 25.3844 48.9839L22.9405 44.519L21.3379 47.3197C20.5367 48.6429 19.9998 49.9012 18.4534 49.9012V60H18.4293Z" fill="url(#paint4_linear_3260_32586)"/>
<path d="M13.9181 44.519L13.4774 45.3308L14.7835 49.1138C15.0276 49.8996 15.5128 50.5861 16.1685 51.0735C16.8241 51.5608 17.6161 51.8236 18.4293 51.8236C19.2425 51.8236 20.0345 51.5608 20.6902 51.0735C21.3459 50.5861 21.831 49.8996 22.0751 49.1138L23.3812 45.3308L22.9405 44.519L21.338 47.3197C20.5367 48.6429 19.9998 49.9012 18.4534 49.9012C16.9069 49.9012 16.338 48.6429 15.5688 47.3197L13.9181 44.519Z" fill="#232463"/>
<path d="M6.89096 16.9503C6.88895 14.5777 7.3631 12.2294 8.28461 10.0482C9.20613 7.86698 10.5558 5.89835 12.2515 4.26194C9.51024 5.38141 7.24233 7.43784 5.84129 10.0744C4.95188 6.84346 2.98074 2.03761 0 0C3.06888 5.08997 3.50958 10.9917 3.76599 16.3009C1.9471 13.2242 1.00159 7.30618 1.00159 7.30618C0.388804 11.4441 0.779901 15.671 2.14108 19.6215C3.50226 23.5719 5.79256 27.1271 8.81402 29.9797L10.713 30.1502C11.7631 30.2315 12.7895 30.5066 13.7419 30.962C13.8967 31.0449 14.0465 31.1371 14.1906 31.238C13.2823 30.5814 12.4372 29.8394 11.6666 29.0218C8.60135 25.7701 6.89096 21.4467 6.89096 16.9503Z" fill="url(#paint5_linear_3260_32586)"/>
<path d="M1.00159 7.30615C0.81322 8.5826 0.719476 9.87156 0.721148 11.1622C0.711755 16.0511 2.08541 20.8403 4.67945 24.9628C5.9054 24.703 7.37974 24.3539 7.37974 24.3539C0.753198 18.371 0.969543 7.30615 0.969543 7.30615H1.00159Z" fill="#C0E6ED"/>
<path d="M5.80123 10.0744C4.95188 6.84346 2.98074 2.03761 0 0C0 0 4.59932 4.87079 4.89579 14.0035L5.80123 10.0744Z" fill="#C0E6ED"/>
<path d="M12.2515 4.26196C9.51025 5.38143 7.24234 7.43787 5.8413 10.0744L5.44066 17.0478C5.51095 14.5257 6.16366 12.0553 7.34644 9.83492C8.52922 7.61451 10.2092 5.70583 12.2515 4.26196Z" fill="#C0E6ED"/>
<path d="M10.7771 33.6652C11.8143 34.1382 12.7298 34.8472 13.4524 35.7371C14.1751 36.6269 14.6854 37.6736 14.9438 38.7958C15.6167 41.2828 16.1517 43.8061 16.5463 46.3536C16.6184 46.8113 16.8492 47.228 17.1973 47.5288C17.5454 47.8296 17.9879 47.9949 18.4453 47.9949C18.9028 47.9949 19.3453 47.8296 19.6934 47.5288C20.0415 47.228 20.2723 46.8113 20.3444 46.3536C20.739 43.8061 21.274 41.2828 21.9469 38.7958C22.2053 37.6736 22.7156 36.6269 23.4383 35.7371C24.1609 34.8472 25.0764 34.1382 26.1135 33.6652L34.2865 29.4033L26.2017 30.1502C24.9462 30.2245 23.7288 30.6151 22.66 31.2867C22.9172 30.5097 22.9704 29.6782 22.8144 28.8741C22.6585 28.07 22.2988 27.3207 21.7706 26.7C21.8705 27.0371 21.9218 27.3871 21.9229 27.7391C21.9229 28.6692 21.5582 29.5612 20.909 30.2189C20.2599 30.8766 19.3794 31.2461 18.4614 31.2461C17.5433 31.2461 16.6629 30.8766 16.0137 30.2189C15.3646 29.5612 14.9999 28.6692 14.9999 27.7391C15.0009 27.3871 15.0522 27.0371 15.1521 26.7C14.624 27.3207 14.2642 28.07 14.1083 28.8741C13.9524 29.6782 14.0056 30.5097 14.2627 31.2867C12.8204 30.207 10.4166 30.1258 8.5496 29.9553L2.60414 29.4033L10.7771 33.6652Z" fill="url(#paint6_linear_3260_32586)"/>
<path d="M15.5928 41.4017C15.9133 42.863 16.2258 44.5677 16.5303 46.3699C16.6024 46.8276 16.8332 47.2443 17.1813 47.5451C17.5293 47.8459 17.9718 48.0112 18.4293 48.0112C18.8868 48.0112 19.3293 47.8459 19.6774 47.5451C20.0254 47.2443 20.2562 46.8276 20.3283 46.3699C20.6088 44.6733 20.9053 43.0659 21.2097 41.6615C20.4085 45.6718 16.4021 45.6718 15.6569 41.6615C15.6411 41.5736 15.6197 41.4868 15.5928 41.4017Z" fill="#C0E6ED"/>
<path d="M14.2306 31.2867L17.2995 33.3324C16.2078 32.6791 15.3859 31.648 14.9853 30.4292C14.5848 29.2104 14.6327 27.8859 15.1201 26.7C14.5919 27.3207 14.2322 28.07 14.0763 28.8741C13.9203 29.6782 13.9735 30.5097 14.2306 31.2867Z" fill="#C0E6ED"/>
<path d="M13.5175 30.8483C12.0912 30.1745 10.1521 30.0933 8.5496 29.9472L2.60414 29.3952L9.81561 31.5302C11.4875 32.0327 13.0469 32.8599 14.4069 33.9656L14.2467 31.2623L13.5175 30.8483Z" fill="#C0E6ED"/>
<path d="M13.3012 35.1914C12.608 34.4703 11.7941 33.8794 10.8973 33.4461L2.61215 29.3871L10.7852 33.649C11.8223 34.122 12.7378 34.831 13.4604 35.7208C14.1831 36.6107 14.6934 37.6574 14.9518 38.7796C15.5535 40.9775 16.0323 43.2081 16.3861 45.4607L16.5303 46.3212C16.6024 46.7789 16.8332 47.1956 17.1813 47.4964C17.5293 47.7972 17.9718 47.9624 18.4293 47.9624C18.8868 47.9624 19.3293 47.7972 19.6774 47.4964C20.0254 47.1956 20.2562 46.7789 20.3283 46.3212L20.4726 45.4607C20.8283 43.2025 21.3099 40.9665 21.9149 38.7634C22.1732 37.6412 22.6836 36.5944 23.4062 35.7046C24.1289 34.8148 25.0443 34.1058 26.0815 33.6328L34.2545 29.3708L25.9693 33.4298C25.0725 33.8631 24.2586 34.4541 23.5655 35.1752C22.6789 36.1893 22.037 37.3982 21.6905 38.7065C21.362 39.8025 21.1056 40.939 20.8892 42.0674C20.6008 43.4691 20.3337 44.8789 20.088 46.2968C20.0211 46.6934 19.8179 47.0533 19.5143 47.3127C19.2108 47.5722 18.8265 47.7145 18.4293 47.7145C18.0322 47.7145 17.6478 47.5722 17.3443 47.3127C17.0408 47.0533 16.8376 46.6934 16.7707 46.2968C16.541 44.8843 16.2739 43.4745 15.9694 42.0674C15.737 40.939 15.4806 39.8025 15.1681 38.7065C14.8154 37.4006 14.1743 36.1931 13.2931 35.1752L13.3012 35.1914Z" fill="#C0E6ED"/>
<path d="M15.5688 46.8245L12.6601 41.8238C11.7387 40.2003 11.3781 38.7715 12.0752 37.0261C11.7121 37.811 11.5545 38.6774 11.6177 39.5418C11.6808 40.4063 11.9626 41.2397 12.4358 41.9619L13.9182 44.519L15.5207 47.3197L15.6409 47.5227C16.354 48.7728 16.9309 49.9012 18.4053 49.9012C19.8796 49.9012 20.4566 48.7728 21.1697 47.5227L21.2899 47.3197L22.8924 44.519L24.3748 41.9619C24.848 41.2397 25.1297 40.4063 25.1929 39.5418C25.256 38.6774 25.0985 37.811 24.7354 37.0261C25.4325 38.7715 25.0719 40.2246 24.1424 41.8238L21.2418 46.8245L21.0335 47.1817C20.665 47.9802 20.145 48.6974 19.503 49.2924C19.1702 49.5151 18.7801 49.6339 18.3813 49.6339C17.9824 49.6339 17.5923 49.5151 17.2595 49.2924C16.6175 48.6974 16.0975 47.9802 15.729 47.1817L15.5207 46.8245H15.5688Z" fill="#C0E6ED"/>
<path d="M18.4293 48.5618V48.0016C18.7839 48.0007 19.132 47.9055 19.4389 47.7256C19.679 47.5789 19.8835 47.3794 20.0374 47.142C20.1914 46.9046 20.2908 46.6352 20.3283 46.3537L20.4726 45.4607C20.5928 44.7707 20.7049 44.1212 20.8251 43.5205C20.737 44.4054 20.4726 46.9138 20.4726 46.9138C20.3975 47.3978 20.146 47.8357 19.7676 48.1408C19.3893 48.4459 18.9117 48.5962 18.4293 48.5618Z" fill="#232463"/>
<path d="M22.652 11.7548C24.9597 14.1902 29.5991 20.7495 25.0559 29.3708L30.2722 25.6528L30.4484 22.8115C29.3819 18.2325 26.5818 14.2615 22.652 11.7548Z" fill="url(#paint7_linear_3260_32586)"/>
<path d="M26.6023 25.2307C26.2502 26.6761 25.7114 28.0682 24.9998 29.3708L29.8074 25.9369C29.9597 25.6528 30.1039 25.3768 30.2401 25.1251L30.4484 22.8115C29.9167 20.4995 28.9332 18.3188 27.5558 16.3983C27.7311 17.5801 27.7875 18.7769 27.7241 19.9702C27.627 21.7712 27.254 23.5459 26.6183 25.2307H26.6023Z" fill="#232463"/>
<path d="M29.9677 16.9503C29.9697 14.5777 29.4955 12.2294 28.574 10.0482C27.6525 7.86698 26.3029 5.89835 24.6071 4.26194C27.3469 5.38376 29.6141 7.43956 31.0173 10.0744C31.8987 6.84346 33.8779 2.03761 36.8586 0C33.7817 5.08997 33.341 10.9917 33.0926 16.3009C34.9115 13.2242 35.857 7.37113 35.857 7.37113C36.0438 8.63686 36.1376 9.9149 36.1375 11.1947C36.135 14.7212 35.4151 18.2093 34.0226 21.4414C32.6302 24.6734 30.5952 27.58 28.0446 29.9797L26.1456 30.1502C25.0956 30.2315 24.0691 30.5066 23.1168 30.962C22.9619 31.0449 22.8121 31.1371 22.6681 31.238C23.5764 30.5814 24.4215 29.8394 25.1921 29.0218C27.3112 26.75 28.7962 23.9484 29.4949 20.9038C29.7914 19.5964 29.9419 18.2593 29.9436 16.9179L29.9677 16.9503Z" fill="url(#paint8_linear_3260_32586)"/>
<path d="M35.857 7.30615C36.0438 8.57188 36.1376 9.84992 36.1375 11.1297C36.1469 16.0186 34.7732 20.8079 32.1792 24.9303C30.9532 24.6705 29.4709 24.3214 29.4709 24.3214C36.1054 18.3385 35.8811 7.27368 35.8811 7.27368L35.857 7.30615Z" fill="#C0E6ED"/>
<path d="M31.0574 10.0744C31.8987 6.84346 33.8779 2.03761 36.8586 0C36.8586 0 32.2593 4.87079 31.9628 14.0035L31.0574 10.0744Z" fill="#C0E6ED"/>
<path d="M24.6071 4.26196C27.3469 5.38379 29.6142 7.43959 31.0173 10.0744L31.418 17.0478C31.3465 14.527 30.6932 12.0583 29.5104 9.83943C28.3277 7.62052 26.6484 5.71313 24.6071 4.27008V4.26196Z" fill="#C0E6ED"/>
<path d="M23.3411 30.8483C24.7674 30.1745 26.7065 30.0933 28.309 29.9472L34.2545 29.3952L27.043 31.5302C25.3745 32.0348 23.8181 32.8618 22.4597 33.9656L22.62 31.2623L23.3331 30.8321L23.3411 30.8483Z" fill="#C0E6ED"/>
<path d="M22.628 31.2867L19.5591 33.3324C20.6509 32.6791 21.4728 31.648 21.8733 30.4292C22.2738 29.2104 22.226 27.8859 21.7386 26.7C22.2667 27.3207 22.6264 28.07 22.7824 28.8741C22.9383 29.6782 22.8851 30.5097 22.628 31.2867Z" fill="#C0E6ED"/>
<path d="M49.1983 39.3803V14.7017H65.7045V19.7023H54.8232V25.0277H63.8135V29.6469H54.8232V39.3884L49.1983 39.3803Z" fill="#010101"/>
<path d="M68.2766 19.0448V14.0035H73.7654V19.0448H68.2766ZM68.2766 39.3398V21.1068H73.7654V39.3803L68.2766 39.3398Z" fill="#010101"/>
<path d="M94.911 39.3804H89.4143V29.1273C89.4895 28.2024 89.2552 27.2788 88.7492 26.5052C88.5357 26.2408 88.2648 26.03 87.9577 25.8891C87.6505 25.7483 87.3153 25.6813 86.9784 25.6934C86.579 25.696 86.1841 25.7788 85.8165 25.937C85.4097 26.1099 85.0271 26.3364 84.6787 26.6108C84.3121 26.8968 83.9835 27.2297 83.7012 27.6012C83.4157 27.9915 83.1914 28.4242 83.0361 28.8838V39.3804H77.5394V21.1068H82.4832V24.1916C83.1599 23.0921 84.1369 22.2151 85.2957 21.6669C86.6098 21.0585 88.0418 20.7562 89.4864 20.7821C90.4634 20.7393 91.4341 20.9606 92.2988 21.4234C92.9821 21.8274 93.5507 22.4035 93.9495 23.0957C94.3492 23.7868 94.6208 24.5461 94.7507 25.3362C94.8765 26.1173 94.9408 26.9072 94.943 27.6986L94.911 39.3804Z" fill="#010101"/>
<path d="M98.9895 39.3803V14.7017H108.084C109.893 14.6636 111.692 14.9949 113.372 15.6758C114.794 16.2575 116.075 17.1443 117.126 18.2752C118.177 19.4061 118.974 20.7543 119.462 22.227C119.993 23.7637 120.264 25.3803 120.263 27.0085C120.285 28.7453 119.989 30.471 119.39 32.0985C118.857 33.56 118.021 34.8887 116.938 35.9951C115.842 37.0916 114.532 37.9433 113.092 38.4955C111.497 39.1042 109.804 39.4043 108.1 39.3803H98.9895ZM114.502 27.0085C114.513 26.0019 114.37 24.9996 114.077 24.0374C113.815 23.1888 113.387 22.4022 112.819 21.7237C112.27 21.0703 111.575 20.5583 110.792 20.23C109.935 19.8671 109.013 19.6874 108.084 19.7024H104.622V34.3797H108.084C109.029 34.3978 109.967 34.2066 110.832 33.8195C111.609 33.4695 112.295 32.9415 112.836 32.2771C113.389 31.5856 113.81 30.7954 114.077 29.9472C114.368 28.9957 114.511 28.0044 114.502 27.0085Z" fill="#010101"/>
<path d="M131.73 39.7294C130.338 39.7508 128.955 39.4971 127.659 38.9826C126.517 38.5217 125.478 37.8314 124.606 36.9531C123.778 36.1024 123.132 35.0883 122.707 33.9738C122.268 32.8527 122.045 31.6567 122.05 30.4506C122.041 29.1729 122.264 27.9044 122.707 26.7082C123.123 25.5457 123.776 24.4851 124.624 23.5955C125.472 22.7059 126.495 22.0072 127.627 21.5451C128.932 21.0197 130.326 20.7604 131.73 20.7821C133.128 20.7595 134.517 21.0189 135.816 21.5451C136.95 22.0188 137.975 22.7234 138.829 23.6152C139.65 24.4789 140.288 25.5039 140.704 26.627C141.129 27.7713 141.343 28.9846 141.337 30.207C141.337 30.5317 141.337 30.8484 141.337 31.1568C141.319 31.4294 141.285 31.7006 141.233 31.9686H127.883C127.896 32.5036 128.02 33.0299 128.248 33.5127C128.476 33.9955 128.802 34.4238 129.206 34.7693C129.968 35.3908 130.919 35.7263 131.898 35.7191C132.706 35.7153 133.501 35.5119 134.214 35.1265C134.897 34.796 135.432 34.2161 135.712 33.5029L140.375 34.9073C139.639 36.3772 138.494 37.5964 137.082 38.4143C135.451 39.3432 133.599 39.7983 131.73 39.7294ZM135.536 28.5347C135.479 27.4955 135.039 26.5158 134.302 25.7908C133.57 25.1357 132.626 24.7741 131.649 24.7741C130.673 24.7741 129.729 25.1357 128.997 25.7908C128.28 26.5218 127.848 27.4903 127.779 28.5185L135.536 28.5347Z" fill="#010101"/>
<path d="M152.459 39.7294C151.067 39.7507 149.684 39.497 148.388 38.9825C147.245 38.5237 146.206 37.8331 145.335 36.953C144.508 36.1005 143.859 35.0871 143.428 33.9737C142.995 32.851 142.775 31.6558 142.779 30.4505C142.771 29.1737 142.991 27.9059 143.428 26.7081C143.851 25.5656 144.494 24.5198 145.319 23.6314C146.177 22.7297 147.212 22.0191 148.356 21.5451C149.66 21.019 151.055 20.7597 152.459 20.782C153.855 20.7588 155.241 21.0182 156.537 21.5451C157.673 22.0186 158.701 22.7231 159.558 23.6152C160.379 24.4789 161.017 25.5039 161.433 26.627C161.854 27.7723 162.068 28.9849 162.066 30.207C162.066 30.5317 162.066 30.8483 162.066 31.1568C162.044 31.429 162.01 31.6999 161.962 31.9686H148.612C148.621 32.5043 148.744 33.0318 148.972 33.5151C149.2 33.9984 149.528 34.4262 149.935 34.7693C150.696 35.3931 151.648 35.7289 152.627 35.7191C153.435 35.7143 154.229 35.5109 154.943 35.1265C155.625 34.7976 156.159 34.2168 156.433 33.5029L161.104 34.9073C160.368 36.3534 159.24 37.5561 157.851 38.3737C156.212 39.3228 154.345 39.7922 152.459 39.7294ZM156.249 28.5347C156.188 27.4964 155.749 26.5181 155.015 25.7908C154.298 25.1167 153.348 24.7551 152.37 24.7842C151.882 24.7671 151.395 24.8488 150.939 25.0244C150.482 25.2 150.064 25.4661 149.71 25.807C148.99 26.5358 148.557 27.5056 148.492 28.5347H156.249Z" fill="#010101"/>
<path d="M176 25.8964C174.77 25.9022 173.549 26.1247 172.394 26.5539C171.428 26.8819 170.604 27.5389 170.063 28.413V39.3804H164.566V21.1068H169.614V24.7923C170.168 23.643 170.994 22.6503 172.018 21.9023C172.92 21.2355 174.002 20.8618 175.119 20.8308H175.671C175.786 20.8191 175.901 20.8191 176.016 20.8308L176 25.8964Z" fill="#010101"/>
<path d="M49.9354 45.6312L52.3873 49.5197L54.8393 45.5987H55.4082L52.6438 50.0473V52.7669H52.139V50.023L49.3906 45.6312H49.9354Z" fill="#010101"/>
<path d="M58.8216 52.7669C58.3578 52.7718 57.8994 52.6661 57.4835 52.4584C57.0917 52.2558 56.7411 51.9804 56.4498 51.6466C56.1571 51.3077 55.9289 50.9169 55.7767 50.4938C55.6247 50.0696 55.5461 49.6219 55.5444 49.1706C55.5414 48.7042 55.6257 48.2414 55.7928 47.8068C55.9556 47.3878 56.1887 47.0006 56.4819 46.6621C56.7726 46.3243 57.1267 46.0484 57.5235 45.8503C57.9294 45.6472 58.3769 45.5443 58.8296 45.55C59.2942 45.5457 59.753 45.6543 60.1677 45.8666C60.5604 46.0677 60.9113 46.3432 61.2014 46.6784C61.495 47.0394 61.7205 47.4522 61.8664 47.8961C62.1976 48.7547 62.1976 49.7082 61.8664 50.5669C61.7074 50.9877 61.4739 51.3756 61.1773 51.7115C60.8843 52.0469 60.5308 52.3224 60.1357 52.5233C59.7217 52.705 59.2722 52.7883 58.8216 52.7669ZM56.0892 49.1787C56.0757 49.5695 56.13 49.9597 56.2495 50.3315C56.3744 50.6981 56.5676 51.037 56.8184 51.33C57.0634 51.6198 57.363 51.8572 57.6998 52.0281C58.0516 52.2017 58.4383 52.2906 58.8296 52.2879C59.2248 52.2947 59.6156 52.2027 59.9674 52.02C60.2997 51.8423 60.5939 51.5995 60.8328 51.3056C61.0734 51.0038 61.263 50.6637 61.3937 50.299C61.5228 49.9342 61.5906 49.55 61.594 49.1625C61.5939 48.7607 61.5233 48.3621 61.3857 47.9854C61.2479 47.6231 61.0531 47.2859 60.8087 46.9869C60.566 46.6937 60.2694 46.4511 59.9354 46.2725C59.5848 46.0989 59.1997 46.0087 58.8096 46.0087C58.4194 46.0087 58.0343 46.0989 57.6838 46.2725C57.3464 46.4529 57.047 46.6983 56.8024 46.995C56.5602 47.2927 56.3705 47.6305 56.2415 47.9935C56.1232 48.3766 56.0717 48.7777 56.0892 49.1787Z" fill="#010101"/>
<path d="M66.2654 52.3041C66.6741 52.3178 67.0796 52.2256 67.4433 52.0363C67.7478 51.8665 68.0044 51.6206 68.1885 51.3219C68.3696 51.0154 68.4995 50.6808 68.5731 50.3315C68.6465 49.9599 68.6841 49.582 68.6853 49.2031V45.6312H69.1901V49.195C69.1888 49.6538 69.1377 50.1112 69.0378 50.5588C68.9425 50.9692 68.7712 51.3576 68.533 51.7034C68.3046 52.0449 67.9963 52.3238 67.6356 52.5152C67.2025 52.7133 66.7327 52.8158 66.2574 52.8158C65.7822 52.8158 65.3124 52.7133 64.8792 52.5152C64.5162 52.324 64.2052 52.0452 63.9738 51.7034C63.7422 51.3568 63.579 50.9681 63.493 50.5588C63.3963 50.1245 63.3479 49.6807 63.3488 49.2356V45.6312H63.8456V49.195C63.8458 49.577 63.8861 49.958 63.9658 50.3315C64.0333 50.6839 64.1666 51.02 64.3584 51.3219C64.5432 51.6158 64.7999 51.8563 65.1036 52.02C65.4595 52.2165 65.8602 52.3145 66.2654 52.3041Z" fill="#010101"/>
<path d="M70.9128 52.7669V45.6312H73.8214C74.0992 45.6301 74.3734 45.694 74.6227 45.8179C74.8672 45.941 75.0851 46.112 75.2637 46.3212C75.446 46.5319 75.5898 46.7738 75.6884 47.0356C75.7919 47.2933 75.8436 47.5692 75.8407 47.8474C75.8412 48.104 75.8006 48.359 75.7205 48.6024C75.6502 48.8395 75.539 49.0621 75.3919 49.2599C75.2476 49.4525 75.0681 49.6151 74.8631 49.7389C74.6607 49.8678 74.4343 49.9534 74.198 49.9905L75.9609 52.7669H75.3839L73.7173 50.0474H71.4176V52.7669H70.9128ZM71.4176 49.6171H73.8695C74.0849 49.6211 74.2977 49.568 74.4865 49.4629C74.6692 49.3678 74.8302 49.235 74.9593 49.0732C75.0917 48.9055 75.1946 48.7161 75.2637 48.5131C75.3282 48.3028 75.3606 48.0838 75.3599 47.8636C75.3578 47.4176 75.1955 46.9876 74.9032 46.654C74.7624 46.5002 74.5972 46.3712 74.4144 46.2725C74.2257 46.1757 74.017 46.1256 73.8054 46.1264H71.4016L71.4176 49.6171Z" fill="#010101"/>
<path d="M79.855 52.7669V45.6312H84.4143V46.0858H80.3518V48.9027H83.7973V49.3492H80.3518V52.7669H79.855Z" fill="#010101"/>
<path d="M85.7364 52.7669V45.6312H86.2412V52.7669H85.7364Z" fill="#010101"/>
<path d="M88.5569 46.5891V52.7669H88.0521V45.6312H88.4367L93.3485 51.8739V45.6312H93.8533V52.7669H93.3886L88.5569 46.5891Z" fill="#010101"/>
<path d="M97.8757 45.6312H98.3084L101.273 52.7263H100.736L99.7587 50.3883H96.4174L95.4398 52.7669H94.895L97.8757 45.6312ZM99.6225 49.9662L98.0921 46.2725L96.5376 49.9905L99.6225 49.9662Z" fill="#010101"/>
<path d="M102.844 46.5891V52.7669H102.339V45.6312H102.723L107.635 51.8739V45.6312H108.172V52.7669H107.707L102.844 46.5891Z" fill="#010101"/>
<path d="M109.478 49.1219C109.479 48.6897 109.555 48.2609 109.703 47.8555C109.842 47.4384 110.06 47.0526 110.344 46.719C110.637 46.3836 110.99 46.1081 111.385 45.9072C111.826 45.6971 112.308 45.5916 112.795 45.5987C113.36 45.5772 113.918 45.7271 114.398 46.029C114.819 46.2995 115.16 46.6812 115.384 47.133L114.975 47.3765C114.861 47.1487 114.712 46.9405 114.534 46.7596C114.215 46.4442 113.816 46.2249 113.38 46.1264C113.178 46.0785 112.971 46.054 112.763 46.0533C112.352 46.0476 111.945 46.1422 111.578 46.3293C111.244 46.5054 110.95 46.7484 110.712 47.0437C110.473 47.3396 110.291 47.6783 110.175 48.0422C109.908 48.7897 109.908 49.6083 110.175 50.3558C110.314 50.7238 110.514 51.0644 110.768 51.3625C111.017 51.6496 111.319 51.8841 111.658 52.0525C112 52.2297 112.379 52.319 112.763 52.3123C112.982 52.3124 113.2 52.2851 113.412 52.2311C113.636 52.1813 113.852 52.0993 114.053 51.9876C114.262 51.8686 114.454 51.7211 114.622 51.5492C114.805 51.367 114.956 51.1559 115.071 50.9241L115.504 51.1352C115.387 51.3981 115.224 51.6374 115.023 51.8414C114.611 52.2438 114.099 52.5245 113.541 52.6532C113.279 52.7225 113.01 52.758 112.739 52.7588C112.28 52.7639 111.826 52.6553 111.417 52.4422C110.627 52.0056 110.021 51.293 109.711 50.437C109.558 50.0158 109.479 49.5707 109.478 49.1219Z" fill="#010101"/>
<path d="M121.433 52.2636V52.7669H116.77V45.6312H121.345V46.0858H117.275V48.8784H120.832V49.3167H117.275V52.2636H121.433Z" fill="#010101"/>
<path d="M125.343 52.7669V45.6312H128.204C128.482 45.6289 128.756 45.6928 129.005 45.8179C129.25 45.9409 129.468 46.112 129.646 46.3212C129.831 46.5298 129.975 46.7723 130.071 47.0356C130.174 47.2932 130.226 47.5692 130.223 47.8474C130.22 48.1236 130.174 48.3976 130.087 48.6592C129.994 48.9176 129.855 49.1569 129.678 49.3654C129.503 49.5698 129.291 49.738 129.053 49.8606C128.804 49.9848 128.53 50.0488 128.252 50.0473H125.848V52.7669H125.343ZM125.848 49.6171H128.252C128.466 49.6198 128.678 49.5696 128.869 49.471C129.052 49.3759 129.213 49.2431 129.342 49.0813C129.472 48.9149 129.57 48.7248 129.63 48.5212C129.701 48.3095 129.736 48.0872 129.734 47.8636C129.734 47.4148 129.572 46.9815 129.278 46.6459C129.137 46.492 128.972 46.3631 128.789 46.2644C128.601 46.1748 128.396 46.1277 128.188 46.1264H125.832L125.848 49.6171Z" fill="#010101"/>
<path d="M133.228 45.6312H133.661L136.617 52.7669H136.089L135.111 50.4289H131.77L130.792 52.7669H130.247L133.228 45.6312ZM134.975 49.9662L133.444 46.2725L131.882 49.9905L134.975 49.9662Z" fill="#010101"/>
<path d="M137.683 52.7669V45.6312H140.6C140.878 45.6289 141.152 45.6928 141.401 45.8179C141.645 45.9409 141.863 46.112 142.042 46.3212C142.227 46.5298 142.371 46.7723 142.467 47.0356C142.57 47.2932 142.622 47.5692 142.619 47.8474C142.622 48.1035 142.584 48.3585 142.507 48.6023C142.43 48.8385 142.317 49.0606 142.17 49.2599C142.029 49.4522 141.852 49.6149 141.649 49.7389C141.443 49.8664 141.215 49.9519 140.976 49.9905L142.723 52.7506H142.138L140.439 50.0717H138.172V52.7669H137.683ZM138.188 49.6171H140.648C140.861 49.6209 141.071 49.5676 141.257 49.4629C141.439 49.3677 141.6 49.235 141.729 49.0732C141.865 48.9075 141.968 48.7175 142.034 48.513C142.101 48.3032 142.136 48.0842 142.138 47.8636C142.128 47.4176 141.964 46.9894 141.673 46.654C141.534 46.4982 141.369 46.369 141.185 46.2725C140.996 46.1757 140.787 46.1256 140.576 46.1264H138.172L138.188 49.6171Z" fill="#010101"/>
<path d="M148.877 46.0858H146.313V52.7669H145.832V46.0858H143.268V45.6312H148.877V46.0858Z" fill="#010101"/>
<path d="M150.463 46.5891V52.7669H149.959V45.6312H150.343L155.255 51.8739V45.6312H155.76V52.7669H155.295L150.463 46.5891Z" fill="#010101"/>
<path d="M162.25 52.2636V52.7669H157.587V45.6312H162.162V46.0858H158.092V48.8784H161.649V49.3167H158.092V52.2636H162.25Z" fill="#010101"/>
<path d="M163.62 52.7669V45.6312H166.537C166.815 45.6279 167.09 45.6919 167.338 45.8179C167.583 45.9409 167.801 46.112 167.979 46.3212C168.164 46.5298 168.308 46.7723 168.404 47.0356C168.51 47.2927 168.564 47.5687 168.564 47.8474C168.565 48.104 168.524 48.3589 168.444 48.6023C168.368 48.8385 168.254 49.0606 168.107 49.2599C167.966 49.4522 167.789 49.6149 167.587 49.7389C167.381 49.8664 167.152 49.9519 166.914 49.9905L168.66 52.7506H168.075L166.377 50.0717H164.109V52.7669H163.62ZM164.125 49.6171H166.585C166.798 49.6208 167.008 49.5676 167.194 49.4628C167.377 49.3677 167.538 49.235 167.667 49.0732C167.802 48.9075 167.905 48.7175 167.971 48.513C168.038 48.3032 168.073 48.0842 168.075 47.8636C168.077 47.6405 168.034 47.4194 167.947 47.2142C167.87 47.008 167.756 46.8181 167.611 46.654C167.472 46.4982 167.306 46.369 167.122 46.2725C166.933 46.1748 166.725 46.1247 166.513 46.1264H164.109L164.125 49.6171Z" fill="#010101"/>
</g>
<defs>
<linearGradient id="paint0_linear_3260_32586" x1="5.57688" y1="26.286" x2="27.2409" y2="9.93319" gradientUnits="userSpaceOnUse">
<stop stop-color="#2D479D"/>
<stop offset="0.5" stop-color="#457DC0"/>
<stop offset="1" stop-color="#85D2DD"/>
</linearGradient>
<linearGradient id="paint1_linear_3260_32586" x1="22.8604" y1="34.6638" x2="38.9619" y2="57.1229" gradientUnits="userSpaceOnUse">
<stop stop-color="#2D479D"/>
<stop offset="0.5" stop-color="#457DC0"/>
<stop offset="1" stop-color="#85D2DD"/>
</linearGradient>
<linearGradient id="paint2_linear_3260_32586" x1="13.9983" y1="34.6638" x2="-2.10327" y2="57.1229" gradientUnits="userSpaceOnUse">
<stop stop-color="#2D479D"/>
<stop offset="0.5" stop-color="#457DC0"/>
<stop offset="1" stop-color="#85D2DD"/>
</linearGradient>
<linearGradient id="paint3_linear_3260_32586" x1="18.4293" y1="45.2496" x2="18.4293" y2="64.6678" gradientUnits="userSpaceOnUse">
<stop stop-color="#2D479D"/>
<stop offset="0.5" stop-color="#457DC0"/>
<stop offset="1" stop-color="#85D2DD"/>
</linearGradient>
<linearGradient id="paint4_linear_3260_32586" x1="22.2033" y1="45.2496" x2="22.2033" y2="69.2058" gradientUnits="userSpaceOnUse">
<stop stop-color="#2D479D"/>
<stop offset="0.5" stop-color="#457DC0"/>
<stop offset="1" stop-color="#85D2DD"/>
</linearGradient>
<linearGradient id="paint5_linear_3260_32586" x1="4.76758" y1="32.8372" x2="9.65064" y2="-2.54824" gradientUnits="userSpaceOnUse">
<stop stop-color="#2D479D"/>
<stop offset="0.5" stop-color="#457DC0"/>
<stop offset="1" stop-color="#85D2DD"/>
</linearGradient>
<linearGradient id="paint6_linear_3260_32586" x1="18.4293" y1="72.5341" x2="18.4293" y2="8.60503" gradientUnits="userSpaceOnUse">
<stop stop-color="#2D479D"/>
<stop offset="0.5" stop-color="#457DC0"/>
<stop offset="1" stop-color="#85D2DD"/>
</linearGradient>
<linearGradient id="paint7_linear_3260_32586" x1="19.9117" y1="23.7694" x2="41.5756" y2="7.4247" gradientUnits="userSpaceOnUse">
<stop stop-color="#2D479D"/>
<stop offset="0.5" stop-color="#457DC0"/>
<stop offset="1" stop-color="#85D2DD"/>
</linearGradient>
<linearGradient id="paint8_linear_3260_32586" x1="27.1151" y1="32.7966" x2="32.0064" y2="-2.5969" gradientUnits="userSpaceOnUse">
<stop stop-color="#2D479D"/>
<stop offset="0.5" stop-color="#457DC0"/>
<stop offset="1" stop-color="#85D2DD"/>
</linearGradient>
<clipPath id="clip0_3260_32586">
<rect width="176" height="60" fill="white"/>
</clipPath>
</defs>
</svg>
