<svg width="189" height="84" viewBox="0 0 189 84" fill="none" xmlns="http://www.w3.org/2000/svg">
<path d="M70.6599 21.25L52.1599 64.75H46.1599L40.6599 47.75L45.6599 47.25L49.6599 59.25L56.6599 40.25L49.1599 21.25H54.6599L60.1599 35.25L65.1599 21.25H70.6599Z" fill="#1967A7"/>
<path d="M80.6867 42.2929L79.5389 11.2496L117.552 11.2938L81.6588 43.32" fill="#F9BF77"/>
<path d="M99.6867 42.2929L98.5389 11.2496L136.552 11.2938L100.659 43.32" fill="#F9BF77"/>
<path d="M0.972301 40L5.43963 13.0909H15.5305C17.5978 13.0909 19.2708 13.4763 20.5497 14.2472C21.8286 15.0092 22.7177 16.0647 23.217 17.4137C23.7163 18.7539 23.8214 20.2824 23.5323 21.9993C23.252 23.7249 22.6345 25.2578 21.6797 26.598C20.7337 27.9382 19.4854 28.9937 17.935 29.7646C16.3846 30.5266 14.5714 30.9077 12.4954 30.9077H5.80753L6.47763 26.9002H12.5085C13.7173 26.9002 14.7422 26.69 15.5831 26.2695C16.4328 25.8491 17.1029 25.271 17.5934 24.5352C18.0839 23.7994 18.408 22.9541 18.5657 21.9993C18.7146 21.0445 18.6664 20.2036 18.4212 19.4766C18.1759 18.7495 17.6985 18.1845 16.989 17.7816C16.2882 17.3699 15.3291 17.1641 14.1115 17.1641H9.64418L5.84695 40H0.972301Z" fill="#1967A7"/>
<path d="M24.147 30.677C24.517 28.605 25.2447 26.7673 26.33 25.164C27.44 23.5607 28.7843 22.3273 30.363 21.464C31.9417 20.6007 33.6067 20.169 35.358 20.169C36.8873 20.169 38.17 20.4773 39.206 21.094C40.2667 21.7107 41.0437 22.4877 41.537 23.425L42.055 20.502H47.272L43.646 41H38.429L38.984 38.003C38.17 38.965 37.1093 39.7667 35.802 40.408C34.5193 41.0247 33.1133 41.333 31.584 41.333C30.0793 41.333 28.7473 41 27.588 40.334C26.4287 39.6433 25.5283 38.6813 24.887 37.448C24.2457 36.19 23.925 34.7347 23.925 33.082C23.925 32.3173 23.999 31.5157 24.147 30.677ZM40.242 30.751C40.3407 30.1097 40.39 29.641 40.39 29.345C40.39 27.8897 39.9583 26.755 39.095 25.941C38.2563 25.127 37.1957 24.72 35.913 24.72C34.951 24.72 34.0137 24.9543 33.101 25.423C32.213 25.8917 31.436 26.5823 30.77 27.495C30.104 28.383 29.66 29.4437 29.438 30.677C29.364 31.1457 29.327 31.5897 29.327 32.009C29.327 33.489 29.7463 34.6607 30.585 35.524C31.4237 36.3627 32.4843 36.782 33.767 36.782C34.729 36.782 35.6663 36.5477 36.579 36.079C37.4917 35.5857 38.2687 34.8827 38.91 33.97C39.576 33.0573 40.02 31.9843 40.242 30.751Z" fill="#1967A7"/>
<path d="M70.283 46.169C72.8977 46.169 74.9697 46.8967 76.499 48.352C78.0283 49.7827 78.793 51.719 78.793 54.161C78.793 54.9503 78.7313 55.6533 78.608 56.27C78.46 57.01 78.2997 57.6513 78.127 58.194H63.142C63.1173 58.3667 63.105 58.6133 63.105 58.934C63.105 60.2167 63.475 61.228 64.215 61.968C64.9797 62.6833 65.9787 63.041 67.212 63.041C68.248 63.041 69.136 62.819 69.876 62.375C70.6407 61.9063 71.2573 61.302 71.726 60.562H77.313C76.4003 62.5353 74.982 64.1633 73.058 65.446C71.1587 66.704 69.0003 67.333 66.583 67.333C63.9683 67.333 61.8717 66.593 60.293 65.113C58.7143 63.633 57.925 61.6227 57.925 59.082C57.925 58.342 57.999 57.565 58.147 56.751C58.517 54.6297 59.2693 52.7673 60.404 51.164C61.5633 49.5607 62.994 48.3273 64.696 47.464C66.398 46.6007 68.2603 46.169 70.283 46.169ZM73.465 55.049C73.5143 54.6543 73.539 54.3707 73.539 54.198C73.539 53.014 73.1567 52.089 72.392 51.423C71.6273 50.757 70.6283 50.424 69.395 50.424C68.0877 50.424 66.916 50.8433 65.88 51.682C64.844 52.496 64.1163 53.6183 63.697 55.049H73.465ZM95.4869 46.206C97.6083 46.206 99.2733 46.7857 100.482 47.945C101.715 49.0797 102.332 50.7077 102.332 52.829C102.332 53.6183 102.27 54.3337 102.147 54.975L100.001 67H94.8579L96.8559 55.678C96.9299 55.234 96.9669 54.8023 96.9669 54.383C96.9669 53.1497 96.6339 52.2123 95.9679 51.571C95.3266 50.9297 94.4016 50.609 93.1929 50.609C91.8116 50.609 90.6276 51.0283 89.6409 51.867C88.6789 52.681 88.0376 53.865 87.7169 55.419L85.6819 67H80.4649L84.0909 46.502H89.3079L88.8639 49.018C89.7026 48.1547 90.7016 47.4763 91.8609 46.983C93.0203 46.465 94.2289 46.206 95.4869 46.206ZM105.445 56.677C105.815 54.605 106.543 52.7673 107.628 51.164C108.738 49.5607 110.082 48.3273 111.661 47.464C113.264 46.6007 114.942 46.169 116.693 46.169C118.025 46.169 119.246 46.465 120.356 47.057C121.466 47.6243 122.292 48.389 122.835 49.351L124.574 39.62H129.791L124.944 67H119.727L120.282 63.966C119.468 64.9773 118.42 65.7913 117.137 66.408C115.879 67.0247 114.485 67.333 112.956 67.333C111.451 67.333 110.107 67 108.923 66.334C107.764 65.6433 106.851 64.6813 106.185 63.448C105.544 62.19 105.223 60.7347 105.223 59.082C105.223 58.3173 105.297 57.5157 105.445 56.677ZM121.54 56.751C121.639 56.1097 121.688 55.641 121.688 55.345C121.688 53.8897 121.256 52.755 120.393 51.941C119.554 51.127 118.494 50.72 117.211 50.72C116.249 50.72 115.312 50.9543 114.399 51.423C113.511 51.8917 112.734 52.5823 112.068 53.495C111.402 54.383 110.958 55.4437 110.736 56.677C110.662 57.1457 110.625 57.5897 110.625 58.009C110.625 59.489 111.044 60.6607 111.883 61.524C112.722 62.3627 113.782 62.782 115.065 62.782C116.027 62.782 116.964 62.5477 117.877 62.079C118.79 61.5857 119.567 60.8827 120.208 59.97C120.874 59.0573 121.318 57.9843 121.54 56.751ZM139.179 67.333C137.428 67.333 135.874 66.9753 134.517 66.26C133.185 65.5447 132.149 64.5333 131.409 63.226C130.669 61.9187 130.299 60.414 130.299 58.712C130.299 56.3933 130.842 54.2843 131.927 52.385C133.037 50.461 134.542 48.944 136.441 47.834C138.365 46.724 140.499 46.169 142.842 46.169C144.593 46.169 146.147 46.539 147.504 47.279C148.885 47.9943 149.946 49.0057 150.686 50.313C151.451 51.6203 151.833 53.125 151.833 54.827C151.833 57.1703 151.278 59.2917 150.168 61.191C149.058 63.0903 147.529 64.595 145.58 65.705C143.656 66.7903 141.522 67.333 139.179 67.333ZM139.882 62.893C141.115 62.893 142.238 62.5353 143.249 61.82C144.26 61.1047 145.05 60.155 145.617 58.971C146.184 57.787 146.468 56.5413 146.468 55.234C146.468 53.754 146.049 52.6193 145.21 51.83C144.396 51.016 143.36 50.609 142.102 50.609C140.844 50.609 139.722 50.9667 138.735 51.682C137.773 52.3973 137.021 53.3593 136.478 54.568C135.935 55.752 135.664 57.01 135.664 58.342C135.664 59.7973 136.046 60.9197 136.811 61.709C137.6 62.4983 138.624 62.893 139.882 62.893ZM161.812 50.128C162.7 48.8947 163.736 47.9327 164.92 47.242C166.104 46.5513 167.386 46.206 168.768 46.206L167.806 51.645H166.437C164.907 51.645 163.674 51.978 162.737 52.644C161.824 53.31 161.158 54.4447 160.739 56.048L158.815 67H153.598L157.224 46.502H162.441L161.812 50.128ZM176.586 67.333C175.081 67.333 173.712 67.0863 172.479 66.593C171.27 66.075 170.308 65.372 169.593 64.484C168.902 63.5713 168.557 62.5353 168.557 61.376C168.557 61.2033 168.581 60.9197 168.631 60.525H173.663C173.589 61.3883 173.848 62.0913 174.44 62.634C175.032 63.152 175.87 63.411 176.956 63.411C177.942 63.411 178.756 63.2383 179.398 62.893C180.064 62.523 180.397 61.9927 180.397 61.302C180.397 60.6853 180.088 60.192 179.472 59.822C178.88 59.452 177.93 59.0327 176.623 58.564C175.315 58.0953 174.23 57.639 173.367 57.195C172.503 56.751 171.763 56.1343 171.147 55.345C170.53 54.5557 170.222 53.5567 170.222 52.348C170.222 51.1393 170.567 50.0663 171.258 49.129C171.973 48.1917 172.96 47.464 174.218 46.946C175.476 46.428 176.919 46.169 178.547 46.169C180.101 46.169 181.47 46.428 182.654 46.946C183.838 47.464 184.75 48.1917 185.392 49.129C186.058 50.0417 186.391 51.09 186.391 52.274C186.391 52.57 186.378 52.792 186.354 52.94H181.544C181.618 52.0767 181.371 51.386 180.804 50.868C180.236 50.35 179.41 50.091 178.325 50.091C177.437 50.091 176.709 50.2883 176.142 50.683C175.574 51.053 175.291 51.5587 175.291 52.2C175.291 52.8413 175.611 53.3717 176.253 53.791C176.894 54.1857 177.881 54.6297 179.213 55.123C180.545 55.641 181.605 56.122 182.395 56.566C183.209 56.9853 183.912 57.5773 184.504 58.342C185.096 59.082 185.392 60.0193 185.392 61.154C185.392 62.412 185.009 63.5097 184.245 64.447C183.48 65.3843 182.432 66.0997 181.1 66.593C179.768 67.0863 178.263 67.333 176.586 67.333Z" fill="#1967A7"/>
<path d="M94.97 78.67H92.19L91.73 80H90.26L92.77 73.01H94.4L96.91 80H95.43L94.97 78.67ZM94.59 77.55L93.58 74.63L92.57 77.55H94.59ZM99.2482 78.89H101.548V80H97.8482V73.02H99.2482V78.89ZM111.768 73.02L109.818 80H108.168L106.858 75.03L105.488 80L103.848 80.01L101.968 73.02H103.468L104.698 78.44L106.118 73.02H107.678L109.018 78.41L110.258 73.02H111.768ZM116.962 78.67H114.182L113.722 80H112.252L114.762 73.01H116.392L118.902 80H117.422L116.962 78.67ZM116.582 77.55L115.572 74.63L114.562 77.55H116.582ZM125.39 73.02L123.03 77.57V80H121.63V77.57L119.26 73.02H120.84L122.34 76.21L123.83 73.02H125.39ZM128.608 80.07C128.121 80.07 127.681 79.9867 127.288 79.82C126.901 79.6533 126.594 79.4133 126.368 79.1C126.141 78.7867 126.024 78.4167 126.018 77.99H127.518C127.538 78.2767 127.638 78.5033 127.818 78.67C128.004 78.8367 128.258 78.92 128.578 78.92C128.904 78.92 129.161 78.8433 129.348 78.69C129.534 78.53 129.628 78.3233 129.628 78.07C129.628 77.8633 129.564 77.6933 129.438 77.56C129.311 77.4267 129.151 77.3233 128.958 77.25C128.771 77.17 128.511 77.0833 128.178 76.99C127.724 76.8567 127.354 76.7267 127.068 76.6C126.788 76.4667 126.544 76.27 126.338 76.01C126.138 75.7433 126.038 75.39 126.038 74.95C126.038 74.5367 126.141 74.1767 126.348 73.87C126.554 73.5633 126.844 73.33 127.218 73.17C127.591 73.0033 128.018 72.92 128.498 72.92C129.218 72.92 129.801 73.0967 130.248 73.45C130.701 73.7967 130.951 74.2833 130.998 74.91H129.458C129.444 74.67 129.341 74.4733 129.148 74.32C128.961 74.16 128.711 74.08 128.398 74.08C128.124 74.08 127.904 74.15 127.738 74.29C127.578 74.43 127.498 74.6333 127.498 74.9C127.498 75.0867 127.558 75.2433 127.678 75.37C127.804 75.49 127.958 75.59 128.138 75.67C128.324 75.7433 128.584 75.83 128.918 75.93C129.371 76.0633 129.741 76.1967 130.028 76.33C130.314 76.4633 130.561 76.6633 130.768 76.93C130.974 77.1967 131.078 77.5467 131.078 77.98C131.078 78.3533 130.981 78.7 130.788 79.02C130.594 79.34 130.311 79.5967 129.938 79.79C129.564 79.9767 129.121 80.07 128.608 80.07ZM144.004 73.02L142.054 80H140.404L139.094 75.03L137.724 80L136.084 80.01L134.204 73.02H135.704L136.934 78.44L138.354 73.02H139.914L141.254 78.41L142.494 73.02H144.004ZM146.319 73.02V80H144.919V73.02H146.319ZM152.452 73.02V74.15H150.592V80H149.192V74.15H147.332V73.02H152.452ZM159.263 73.02V80H157.863V77.03H154.873V80H153.473V73.02H154.873V75.89H157.863V73.02H159.263ZM168.574 73.02L166.214 77.57V80H164.814V77.57L162.444 73.02H164.024L165.524 76.21L167.014 73.02H168.574ZM172.621 80.07C171.968 80.07 171.368 79.9167 170.821 79.61C170.275 79.3033 169.841 78.88 169.521 78.34C169.201 77.7933 169.041 77.1767 169.041 76.49C169.041 75.81 169.201 75.2 169.521 74.66C169.841 74.1133 170.275 73.6867 170.821 73.38C171.368 73.0733 171.968 72.92 172.621 72.92C173.281 72.92 173.881 73.0733 174.421 73.38C174.968 73.6867 175.398 74.1133 175.711 74.66C176.031 75.2 176.191 75.81 176.191 76.49C176.191 77.1767 176.031 77.7933 175.711 78.34C175.398 78.88 174.968 79.3033 174.421 79.61C173.875 79.9167 173.275 80.07 172.621 80.07ZM172.621 78.82C173.041 78.82 173.411 78.7267 173.731 78.54C174.051 78.3467 174.301 78.0733 174.481 77.72C174.661 77.3667 174.751 76.9567 174.751 76.49C174.751 76.0233 174.661 75.6167 174.481 75.27C174.301 74.9167 174.051 74.6467 173.731 74.46C173.411 74.2733 173.041 74.18 172.621 74.18C172.201 74.18 171.828 74.2733 171.501 74.46C171.181 74.6467 170.931 74.9167 170.751 75.27C170.571 75.6167 170.481 76.0233 170.481 76.49C170.481 76.9567 170.571 77.3667 170.751 77.72C170.931 78.0733 171.181 78.3467 171.501 78.54C171.828 78.7267 172.201 78.82 172.621 78.82ZM178.613 73.02V77.34C178.613 77.8133 178.736 78.1767 178.983 78.43C179.23 78.6767 179.576 78.8 180.023 78.8C180.476 78.8 180.826 78.6767 181.073 78.43C181.32 78.1767 181.443 77.8133 181.443 77.34V73.02H182.853V77.33C182.853 77.9233 182.723 78.4267 182.463 78.84C182.21 79.2467 181.866 79.5533 181.433 79.76C181.006 79.9667 180.53 80.07 180.003 80.07C179.483 80.07 179.01 79.9667 178.583 79.76C178.163 79.5533 177.83 79.2467 177.583 78.84C177.336 78.4267 177.213 77.9233 177.213 77.33V73.02H178.613Z" fill="#FCFCFC"/>
<path d="M116.66 11.25L99.1599 28.25L98.6599 11.25H116.66Z" fill="#FFA700"/>
</svg>
