<svg width="40" height="40" viewBox="0 0 40 40" fill="none" xmlns="http://www.w3.org/2000/svg">
<path d="M32.022 12.3545C31.9022 12.2347 31.7025 12.1947 31.5427 12.2347L30.744 12.5143C31.2233 11.9552 31.5427 11.3561 31.7424 10.797C31.8223 10.5973 31.7824 10.4376 31.6625 10.3177C31.5427 10.1979 31.3431 10.158 31.1833 10.2378C30.065 10.7171 29.1066 11.1165 28.3078 11.3561C28.3078 11.396 28.2679 11.3561 28.2279 11.3561C27.5889 10.9966 26.0314 10.1979 24.9131 10.1979C22.0776 10.2378 19.8012 12.6341 19.8012 15.5495V15.7092C15.6477 14.9105 13.3713 13.7123 10.8951 11.1164L10.4959 10.717L10.2562 11.1963C8.89837 13.7922 9.85686 16.1485 11.4144 17.746C10.6956 17.6262 10.2163 17.3866 9.77697 17.0272C9.61723 16.9074 9.41754 16.8674 9.21785 16.9872C9.05811 17.0671 8.97822 17.3067 9.01817 17.5064C9.57728 19.3834 10.9751 20.9011 12.4927 21.8196C11.7738 21.8196 11.1748 21.7397 10.5757 21.3403C10.416 21.2605 10.1763 21.2605 10.0166 21.3803C9.85686 21.5001 9.77697 21.6998 9.85686 21.8995C10.5757 23.9363 11.9735 25.0146 14.21 25.2941C13.0519 25.9731 11.5342 26.5322 9.17795 26.5722C8.93832 26.5722 8.73863 26.7319 8.65878 26.9316C8.57889 27.1712 8.65878 27.3709 8.81853 27.5306C10.2563 28.6888 13.4512 29.3678 17.405 29.3678C24.434 29.3678 30.1849 23.0976 30.1849 15.3897V15.2699C31.0636 14.8306 31.7824 13.9919 32.1419 12.8338C32.1818 12.674 32.1418 12.4743 32.022 12.3545ZM29.6258 14.6309L29.3861 14.7108V15.3897C29.3861 22.6583 23.9946 28.569 17.405 28.569C13.7707 28.569 11.3345 27.97 10.0166 27.331C12.7723 27.1313 14.3698 26.2526 15.6078 25.2941L16.6063 24.5753H15.4081C13.1317 24.5753 11.7339 23.9363 10.9352 22.4187C11.654 22.6583 12.4128 22.6583 13.2515 22.6184C13.571 22.5784 13.8905 22.5784 14.21 22.5784L14.3298 21.7797C12.8122 21.3403 11.015 19.9825 10.1364 18.1454C10.9351 18.5048 11.8137 18.5847 12.6125 18.5847H13.8506L12.8522 17.8658C12.0135 17.2668 9.53738 15.1501 10.7355 12.1149C13.2915 14.6309 15.7277 15.7891 20.1207 16.5878L20.6 16.6677V15.5495C20.6 13.0734 22.517 11.0366 24.9132 10.9966C25.8318 10.9567 27.3494 11.7954 27.7887 12.035C28.0283 12.1548 28.268 12.1947 28.5075 12.1149C29.1066 11.9152 29.8255 11.6356 30.6242 11.3162C30.2648 11.9152 29.7855 12.4743 29.1465 12.9935C28.9868 13.1133 28.9469 13.353 29.0268 13.5527C29.1066 13.7523 29.3462 13.8322 29.5459 13.7523L31.1035 13.2332C30.8239 13.7523 30.3846 14.3514 29.6258 14.6309Z" fill="white"/>
<circle cx="20" cy="20" r="19.5" stroke="white"/>
</svg>
